<svg width="96" height="44" viewBox="0 0 96 44" fill="none" xmlns="http://www.w3.org/2000/svg">
<rect width="96" height="44" rx="10" fill="#898AA6"/>
<rect x="8" y="4" width="36" height="36" rx="18" fill="white"/>
<path d="M18.0722 25.0068C18.0722 25.0068 20.7477 23.7035 23.4306 23.7035L25.4535 17.4431C25.5292 17.1403 25.7504 16.9346 26 16.9346C26.2497 16.9346 26.4708 17.1403 26.5465 17.4431L28.5694 23.7035C31.747 23.7035 33.9278 25.0068 33.9278 25.0068C33.9278 25.0068 29.3833 12.6266 29.3744 12.6018C29.244 12.2357 29.0238 12 28.7269 12H23.2736C22.9767 12 22.7654 12.2357 22.6261 12.6018C22.6162 12.6261 18.0722 25.0068 18.0722 25.0068Z" fill="#17191E"/>
<path d="M23.2235 28.8254C22.32 27.9995 22.0562 26.2641 22.4327 25.0068C23.0854 25.7995 23.9898 26.0506 24.9265 26.1923C26.3727 26.4111 27.7929 26.3293 29.1364 25.6683C29.29 25.5926 29.4321 25.492 29.6 25.3901C29.7261 25.7558 29.7589 26.125 29.7148 26.5007C29.6078 27.4159 29.1523 28.1228 28.428 28.6587C28.1383 28.8731 27.8318 29.0647 27.5326 29.2668C26.6136 29.888 26.3649 30.6163 26.7103 31.6758C26.7185 31.7018 26.7258 31.7275 26.7444 31.7905C26.2751 31.5804 25.9324 31.2746 25.6712 30.8726C25.3953 30.4483 25.2641 29.979 25.2572 29.4711C25.2537 29.2239 25.2537 28.9746 25.2205 28.7309C25.1393 28.1368 24.8605 27.8709 24.3351 27.8555C23.7959 27.8398 23.3694 28.1731 23.2563 28.6981C23.2477 28.7383 23.2352 28.7781 23.2226 28.8249L23.2235 28.8254Z" fill="#17191E"/>
<path d="M57.052 24.008H54.094L53.518 26H52.102L54.736 17.72H56.464L59.104 26H57.628L57.052 24.008ZM54.382 22.934H56.758L55.576 18.8L54.382 22.934ZM62.5673 25.13C62.9873 25.13 63.3213 25.056 63.5693 24.908C63.8173 24.756 63.9413 24.548 63.9413 24.284C63.9413 24.112 63.9053 23.966 63.8333 23.846C63.7613 23.722 63.6173 23.61 63.4013 23.51C63.1853 23.406 62.8573 23.298 62.4173 23.186C62.0013 23.078 61.6353 22.95 61.3193 22.802C61.0073 22.654 60.7653 22.462 60.5933 22.226C60.4213 21.99 60.3353 21.686 60.3353 21.314C60.3353 20.95 60.4373 20.632 60.6413 20.36C60.8453 20.088 61.1373 19.876 61.5173 19.724C61.9013 19.572 62.3513 19.496 62.8673 19.496C63.3993 19.496 63.8633 19.566 64.2593 19.706C64.6553 19.846 64.9933 20.02 65.2733 20.228L64.7093 21.074C64.4613 20.91 64.1893 20.776 63.8933 20.672C63.6013 20.568 63.2713 20.516 62.9033 20.516C62.4753 20.516 62.1673 20.58 61.9793 20.708C61.7953 20.836 61.7033 21.006 61.7033 21.218C61.7033 21.374 61.7493 21.506 61.8413 21.614C61.9373 21.718 62.1013 21.816 62.3333 21.908C62.5653 21.996 62.8933 22.1 63.3173 22.22C63.7293 22.332 64.0873 22.464 64.3913 22.616C64.6993 22.768 64.9373 22.97 65.1053 23.222C65.2773 23.47 65.3633 23.794 65.3633 24.194C65.3633 24.65 65.2313 25.024 64.9673 25.316C64.7073 25.604 64.3633 25.818 63.9353 25.958C63.5113 26.094 63.0553 26.162 62.5673 26.162C61.9793 26.162 61.4713 26.078 61.0433 25.91C60.6153 25.738 60.2553 25.524 59.9633 25.268L60.6773 24.452C60.9253 24.652 61.2093 24.816 61.5293 24.944C61.8493 25.068 62.1953 25.13 62.5673 25.13ZM72.7506 25.664C72.5186 25.812 72.2406 25.932 71.9166 26.024C71.5926 26.116 71.2546 26.162 70.9026 26.162C70.1666 26.162 69.6066 25.972 69.2226 25.592C68.8426 25.208 68.6526 24.704 68.6526 24.08V20.642H67.2426V19.664H68.6526V18.248L69.9966 18.086V19.664H72.1326L71.9826 20.642H69.9966V24.068C69.9966 24.408 70.0806 24.662 70.2486 24.83C70.4206 24.994 70.7006 25.076 71.0886 25.076C71.3206 25.076 71.5346 25.048 71.7306 24.992C71.9266 24.936 72.1046 24.864 72.2646 24.776L72.7506 25.664ZM74.7139 26V25.04H75.6439V20.618H74.7139V19.664H76.6699L76.9159 21.134C77.1519 20.602 77.4439 20.198 77.7919 19.922C78.1439 19.642 78.5959 19.502 79.1479 19.502C79.3359 19.502 79.5039 19.518 79.6519 19.55C79.8039 19.578 79.9539 19.616 80.1019 19.664L79.6999 20.816C79.5719 20.78 79.4519 20.754 79.3399 20.738C79.2279 20.718 79.1039 20.708 78.9679 20.708C78.5079 20.708 78.1099 20.88 77.7739 21.224C77.4419 21.568 77.1799 22.056 76.9879 22.688V25.04H78.2659V26H74.7139ZM78.9139 21.998V20.438L79.0819 19.664H80.1019L79.8739 21.998H78.9139ZM84.3873 19.496C85.0073 19.496 85.5293 19.634 85.9533 19.91C86.3773 20.186 86.6973 20.572 86.9133 21.068C87.1333 21.564 87.2433 22.148 87.2433 22.82C87.2433 23.488 87.1313 24.074 86.9073 24.578C86.6873 25.078 86.3633 25.468 85.9353 25.748C85.5113 26.024 84.9933 26.162 84.3813 26.162C83.7693 26.162 83.2493 26.028 82.8213 25.76C82.3973 25.488 82.0733 25.102 81.8493 24.602C81.6293 24.102 81.5193 23.512 81.5193 22.832C81.5193 22.172 81.6293 21.592 81.8493 21.092C82.0733 20.592 82.3993 20.202 82.8273 19.922C83.2553 19.638 83.7753 19.496 84.3873 19.496ZM84.3873 20.54C83.9033 20.54 83.5393 20.726 83.2953 21.098C83.0513 21.466 82.9293 22.044 82.9293 22.832C82.9293 23.616 83.0493 24.194 83.2893 24.566C83.5333 24.938 83.8973 25.124 84.3813 25.124C84.8653 25.124 85.2273 24.938 85.4673 24.566C85.7113 24.194 85.8333 23.612 85.8333 22.82C85.8333 22.04 85.7133 21.466 85.4733 21.098C85.2333 20.726 84.8713 20.54 84.3873 20.54Z" fill="white"/>
</svg>
