<svg width="125" height="44" viewBox="0 0 125 44" fill="none" xmlns="http://www.w3.org/2000/svg">
<rect width="125" height="44" rx="10" fill="#898AA6"/>
<rect x="8" y="4" width="36" height="36" rx="18" fill="white"/>
<g clip-path="url(#clip0_5_117)">
<path d="M28.5327 23.1634C28.1863 22.8497 27.7092 22.6994 27.0882 22.6994H23.4772V26.3464H27.0882C27.7091 26.3464 28.1928 26.1863 28.5327 25.8628C28.8758 25.5425 29.049 25.085 29.049 24.4967C29.049 23.9183 28.8791 23.4771 28.5327 23.1634ZM28.0359 20.8137C28.3627 20.5327 28.5261 20.134 28.5261 19.6111C28.5261 19.0229 28.3791 18.6078 28.085 18.3693C27.7909 18.1307 27.366 18.0098 26.8104 18.0098H23.4771V21.2321H26.8104C27.3007 21.2321 27.7091 21.0948 28.0359 20.8137Z" fill="#5E3B7F"/>
<path d="M32.6667 12H19.3333C17.5 12 16 13.5 16 15.3333V28.6666C16 30.5 17.5 32 19.3333 32H32.6666C34.5 32 36 30.5 36 28.6667V15.3333C36 13.5 34.5 12 32.6667 12ZM30.8464 26.0425C30.683 26.4412 30.4281 26.7843 30.0784 27.0719C29.7288 27.3595 29.2843 27.5882 28.7386 27.7582C28.1929 27.9281 27.5458 28.0131 26.7941 28.0131H21.4346V16.3464H27.1046C28.1503 16.3464 28.9902 16.585 29.6209 17.0654C30.2516 17.5457 30.5686 18.268 30.5686 19.2386C30.5686 19.8268 30.4248 20.33 30.1372 20.7484C29.8496 21.1667 29.4379 21.4935 28.9019 21.7222V21.7549C29.6209 21.9085 30.1666 22.2484 30.5359 22.7745C30.9052 23.3039 31.0914 23.9641 31.0914 24.7614C31.0915 25.2189 31.0098 25.6471 30.8464 26.0425Z" fill="#5E3B7F"/>
</g>
<path d="M57.166 23.606C57.166 23.234 57.094 22.946 56.95 22.742C56.806 22.538 56.612 22.396 56.368 22.316C56.124 22.232 55.85 22.19 55.546 22.19H54.364V24.92H55.486C55.686 24.92 55.884 24.904 56.08 24.872C56.28 24.836 56.462 24.772 56.626 24.68C56.79 24.584 56.92 24.45 57.016 24.278C57.116 24.106 57.166 23.882 57.166 23.606ZM56.848 19.928C56.848 19.512 56.718 19.214 56.458 19.034C56.198 18.854 55.832 18.764 55.36 18.764H54.364V21.158H55.444C55.908 21.158 56.258 21.062 56.494 20.87C56.73 20.674 56.848 20.36 56.848 19.928ZM58.618 23.612C58.618 24.072 58.528 24.458 58.348 24.77C58.168 25.078 57.924 25.322 57.616 25.502C57.312 25.682 56.968 25.81 56.584 25.886C56.2 25.962 55.804 26 55.396 26H52.972V17.72H55.234C55.622 17.72 55.996 17.754 56.356 17.822C56.716 17.886 57.038 17.998 57.322 18.158C57.61 18.318 57.838 18.534 58.006 18.806C58.174 19.074 58.258 19.41 58.258 19.814C58.258 20.162 58.186 20.458 58.042 20.702C57.898 20.946 57.708 21.144 57.472 21.296C57.24 21.444 56.992 21.55 56.728 21.614C57.028 21.662 57.322 21.756 57.61 21.896C57.902 22.032 58.142 22.238 58.33 22.514C58.522 22.79 58.618 23.156 58.618 23.612ZM62.8013 19.496C63.4213 19.496 63.9433 19.634 64.3673 19.91C64.7913 20.186 65.1113 20.572 65.3273 21.068C65.5473 21.564 65.6573 22.148 65.6573 22.82C65.6573 23.488 65.5453 24.074 65.3213 24.578C65.1013 25.078 64.7773 25.468 64.3493 25.748C63.9253 26.024 63.4073 26.162 62.7953 26.162C62.1833 26.162 61.6633 26.028 61.2353 25.76C60.8113 25.488 60.4873 25.102 60.2633 24.602C60.0433 24.102 59.9333 23.512 59.9333 22.832C59.9333 22.172 60.0433 21.592 60.2633 21.092C60.4873 20.592 60.8133 20.202 61.2413 19.922C61.6693 19.638 62.1893 19.496 62.8013 19.496ZM62.8013 20.54C62.3173 20.54 61.9533 20.726 61.7093 21.098C61.4653 21.466 61.3433 22.044 61.3433 22.832C61.3433 23.616 61.4633 24.194 61.7033 24.566C61.9473 24.938 62.3113 25.124 62.7953 25.124C63.2793 25.124 63.6413 24.938 63.8813 24.566C64.1253 24.194 64.2473 23.612 64.2473 22.82C64.2473 22.04 64.1273 21.466 63.8873 21.098C63.6473 20.726 63.2853 20.54 62.8013 20.54ZM69.9966 19.496C70.6166 19.496 71.1386 19.634 71.5626 19.91C71.9866 20.186 72.3066 20.572 72.5226 21.068C72.7426 21.564 72.8526 22.148 72.8526 22.82C72.8526 23.488 72.7406 24.074 72.5166 24.578C72.2966 25.078 71.9726 25.468 71.5446 25.748C71.1206 26.024 70.6026 26.162 69.9906 26.162C69.3786 26.162 68.8586 26.028 68.4306 25.76C68.0066 25.488 67.6826 25.102 67.4586 24.602C67.2386 24.102 67.1286 23.512 67.1286 22.832C67.1286 22.172 67.2386 21.592 67.4586 21.092C67.6826 20.592 68.0086 20.202 68.4366 19.922C68.8646 19.638 69.3846 19.496 69.9966 19.496ZM69.9966 20.54C69.5126 20.54 69.1486 20.726 68.9046 21.098C68.6606 21.466 68.5386 22.044 68.5386 22.832C68.5386 23.616 68.6586 24.194 68.8986 24.566C69.1426 24.938 69.5066 25.124 69.9906 25.124C70.4746 25.124 70.8366 24.938 71.0766 24.566C71.3206 24.194 71.4426 23.612 71.4426 22.82C71.4426 22.04 71.3226 21.466 71.0826 21.098C70.8426 20.726 70.4806 20.54 69.9966 20.54ZM79.9459 25.664C79.7139 25.812 79.4359 25.932 79.1119 26.024C78.7879 26.116 78.4499 26.162 78.0979 26.162C77.3619 26.162 76.8019 25.972 76.4179 25.592C76.0379 25.208 75.8479 24.704 75.8479 24.08V20.642H74.4379V19.664H75.8479V18.248L77.1919 18.086V19.664H79.3279L79.1779 20.642H77.1919V24.068C77.1919 24.408 77.2759 24.662 77.4439 24.83C77.6159 24.994 77.8959 25.076 78.2839 25.076C78.5159 25.076 78.7299 25.048 78.9259 24.992C79.1219 24.936 79.2999 24.864 79.4599 24.776L79.9459 25.664ZM84.1533 25.13C84.5733 25.13 84.9073 25.056 85.1553 24.908C85.4033 24.756 85.5273 24.548 85.5273 24.284C85.5273 24.112 85.4913 23.966 85.4193 23.846C85.3473 23.722 85.2033 23.61 84.9873 23.51C84.7713 23.406 84.4433 23.298 84.0033 23.186C83.5873 23.078 83.2213 22.95 82.9053 22.802C82.5933 22.654 82.3513 22.462 82.1793 22.226C82.0073 21.99 81.9213 21.686 81.9213 21.314C81.9213 20.95 82.0233 20.632 82.2273 20.36C82.4313 20.088 82.7233 19.876 83.1033 19.724C83.4873 19.572 83.9373 19.496 84.4533 19.496C84.9853 19.496 85.4493 19.566 85.8453 19.706C86.2413 19.846 86.5793 20.02 86.8593 20.228L86.2953 21.074C86.0473 20.91 85.7753 20.776 85.4793 20.672C85.1873 20.568 84.8573 20.516 84.4893 20.516C84.0613 20.516 83.7533 20.58 83.5653 20.708C83.3813 20.836 83.2893 21.006 83.2893 21.218C83.2893 21.374 83.3353 21.506 83.4273 21.614C83.5233 21.718 83.6873 21.816 83.9193 21.908C84.1513 21.996 84.4793 22.1 84.9033 22.22C85.3153 22.332 85.6733 22.464 85.9773 22.616C86.2853 22.768 86.5233 22.97 86.6913 23.222C86.8633 23.47 86.9492 23.794 86.9492 24.194C86.9492 24.65 86.8173 25.024 86.5533 25.316C86.2933 25.604 85.9493 25.818 85.5213 25.958C85.0973 26.094 84.6413 26.162 84.1533 26.162C83.5653 26.162 83.0573 26.078 82.6293 25.91C82.2013 25.738 81.8413 25.524 81.5493 25.268L82.2633 24.452C82.5113 24.652 82.7953 24.816 83.1153 24.944C83.4353 25.068 83.7813 25.13 84.1533 25.13ZM94.3366 25.664C94.1046 25.812 93.8266 25.932 93.5026 26.024C93.1786 26.116 92.8406 26.162 92.4886 26.162C91.7526 26.162 91.1926 25.972 90.8086 25.592C90.4286 25.208 90.2386 24.704 90.2386 24.08V20.642H88.8286V19.664H90.2386V18.248L91.5826 18.086V19.664H93.7186L93.5686 20.642H91.5826V24.068C91.5826 24.408 91.6666 24.662 91.8346 24.83C92.0066 24.994 92.2866 25.076 92.6746 25.076C92.9066 25.076 93.1206 25.048 93.3166 24.992C93.5126 24.936 93.6906 24.864 93.8506 24.776L94.3366 25.664ZM96.2999 26V25.04H97.2299V20.618H96.2999V19.664H98.2559L98.5019 21.134C98.7379 20.602 99.0299 20.198 99.3779 19.922C99.7299 19.642 100.182 19.502 100.734 19.502C100.922 19.502 101.09 19.518 101.238 19.55C101.39 19.578 101.54 19.616 101.688 19.664L101.286 20.816C101.158 20.78 101.038 20.754 100.926 20.738C100.814 20.718 100.69 20.708 100.554 20.708C100.094 20.708 99.6959 20.88 99.3599 21.224C99.0279 21.568 98.7659 22.056 98.5739 22.688V25.04H99.8519V26H96.2999ZM100.5 21.998V20.438L100.668 19.664H101.688L101.46 21.998H100.5ZM108.277 24.446C108.277 24.694 108.315 24.876 108.391 24.992C108.467 25.104 108.589 25.188 108.757 25.244L108.457 26.156C108.145 26.12 107.877 26.034 107.653 25.898C107.429 25.762 107.259 25.556 107.143 25.28C106.911 25.572 106.617 25.792 106.261 25.94C105.905 26.088 105.525 26.162 105.121 26.162C104.481 26.162 103.973 25.982 103.597 25.622C103.225 25.258 103.039 24.782 103.039 24.194C103.039 23.526 103.299 23.012 103.819 22.652C104.339 22.292 105.083 22.112 106.051 22.112H106.957V21.698C106.957 21.29 106.833 20.996 106.585 20.816C106.341 20.636 105.995 20.546 105.547 20.546C105.339 20.546 105.087 20.574 104.791 20.63C104.495 20.682 104.185 20.764 103.861 20.876L103.531 19.928C103.927 19.78 104.315 19.672 104.695 19.604C105.075 19.532 105.427 19.496 105.751 19.496C106.599 19.496 107.231 19.684 107.647 20.06C108.067 20.436 108.277 20.956 108.277 21.62V24.446ZM105.529 25.172C105.801 25.172 106.067 25.1 106.327 24.956C106.587 24.812 106.797 24.61 106.957 24.35V22.952H106.213C105.581 22.952 105.129 23.058 104.857 23.27C104.585 23.478 104.449 23.766 104.449 24.134C104.449 24.47 104.539 24.728 104.719 24.908C104.903 25.084 105.173 25.172 105.529 25.172ZM113.721 19.496C114.281 19.496 114.729 19.634 115.065 19.91C115.401 20.182 115.645 20.568 115.797 21.068C115.949 21.564 116.025 22.148 116.025 22.82C116.025 23.464 115.933 24.038 115.749 24.542C115.565 25.046 115.291 25.442 114.927 25.73C114.567 26.018 114.119 26.162 113.583 26.162C112.919 26.162 112.383 25.928 111.975 25.46V28.436L110.631 28.586V19.664H111.801L111.885 20.48C112.125 20.152 112.403 19.906 112.719 19.742C113.039 19.578 113.373 19.496 113.721 19.496ZM113.349 20.534C113.049 20.534 112.785 20.624 112.557 20.804C112.329 20.984 112.135 21.196 111.975 21.44V24.404C112.127 24.632 112.307 24.808 112.515 24.932C112.727 25.052 112.965 25.112 113.229 25.112C113.681 25.112 114.025 24.93 114.261 24.566C114.497 24.202 114.615 23.622 114.615 22.826C114.615 22.286 114.567 21.848 114.471 21.512C114.379 21.172 114.239 20.924 114.051 20.768C113.867 20.612 113.633 20.534 113.349 20.534Z" fill="white"/>
<defs>
<clipPath id="clip0_5_117">
<rect width="20" height="20" fill="white" transform="translate(16 12)"/>
</clipPath>
</defs>
</svg>
