<svg width="126" height="49" viewBox="0 0 126 49" fill="none" xmlns="http://www.w3.org/2000/svg">
<rect width="126" height="49" rx="10" fill="#898AA6"/>
<rect x="12" y="6" width="37" height="37" rx="18.5" fill="white"/>
<path d="M24.4682 16.278C23.2908 16.278 22.4198 17.309 22.4586 18.4271C22.496 19.501 22.4475 20.8923 22.0972 22.0266C21.7461 23.1645 21.1522 23.8836 20.1821 23.9762V25.024C21.1522 25.1164 21.7461 25.8356 22.0972 26.9736C22.4475 28.1079 22.4959 29.4992 22.4586 30.5731C22.4196 31.6912 23.2908 32.722 24.4682 32.722H36.5334C37.7109 32.722 38.5819 31.691 38.543 30.5731C38.5056 29.4992 38.5542 28.1079 38.9043 26.9736C39.2554 25.8358 39.8478 25.1166 40.8179 25.024V23.9762C39.8478 23.8838 39.2555 23.1645 38.9043 22.0266C38.5542 20.8923 38.5056 19.501 38.543 18.4271C38.5819 17.309 37.7109 16.278 36.5332 16.278H24.4682ZM34.0026 26.3984C34.0026 27.9379 32.8538 28.8713 30.9476 28.8713H27.433C27.4116 28.8713 27.3912 28.8628 27.3761 28.8477C27.3609 28.8326 27.3525 28.8121 27.3525 28.7907V20.206C27.3524 20.1954 27.3545 20.1849 27.3585 20.1751C27.3626 20.1653 27.3685 20.1564 27.376 20.1489C27.3835 20.1414 27.3924 20.1355 27.4021 20.1314C27.4119 20.1274 27.4224 20.1253 27.433 20.1253H30.929C32.5186 20.1253 33.5617 20.986 33.5617 22.3073C33.5617 23.2348 32.86 24.0649 31.9659 24.2104V24.259C33.1829 24.3924 34.0026 25.2348 34.0026 26.3984ZM30.5937 21.2345H28.7434V23.8467H30.302C31.5065 23.8467 32.1708 23.3619 32.1708 22.4952C32.1708 21.6831 31.5997 21.2345 30.5937 21.2345V21.2345ZM28.7434 24.8833V27.7622H30.6621C31.9163 27.7622 32.5808 27.2592 32.5808 26.3136C32.5808 25.3681 31.8978 24.8833 30.5814 24.8833H28.7434Z" fill="#7952B3"/>
<path d="M61.4 24.824V23.936H62.756C62.988 23.936 63.184 23.9 63.344 23.828C63.512 23.756 63.64 23.656 63.728 23.528C63.816 23.392 63.86 23.228 63.86 23.036C63.86 22.748 63.764 22.532 63.572 22.388C63.38 22.244 63.108 22.172 62.756 22.172H61.916V27.428H62.948C63.212 27.428 63.448 27.396 63.656 27.332C63.864 27.26 64.028 27.148 64.148 26.996C64.276 26.836 64.34 26.62 64.34 26.348C64.34 26.172 64.304 26.02 64.232 25.892C64.16 25.764 64.06 25.66 63.932 25.58C63.804 25.5 63.656 25.444 63.488 25.412C63.328 25.372 63.148 25.352 62.948 25.352H61.4V24.248H63.176C63.584 24.248 63.98 24.292 64.364 24.38C64.748 24.468 65.096 24.612 65.408 24.812C65.72 25.004 65.968 25.252 66.152 25.556C66.344 25.852 66.44 26.212 66.44 26.636C66.44 27.196 66.304 27.648 66.032 27.992C65.768 28.336 65.392 28.592 64.904 28.76C64.416 28.92 63.84 29 63.176 29H59.888V20.6H62.972C63.556 20.6 64.068 20.68 64.508 20.84C64.956 20.992 65.308 21.228 65.564 21.548C65.828 21.86 65.96 22.256 65.96 22.736C65.96 23.176 65.828 23.552 65.564 23.864C65.308 24.176 64.956 24.416 64.508 24.584C64.068 24.744 63.556 24.824 62.972 24.824H61.4ZM67.3528 26.24C67.3528 25.656 67.4888 25.148 67.7607 24.716C68.0328 24.284 68.4088 23.948 68.8888 23.708C69.3688 23.468 69.9088 23.348 70.5088 23.348C71.1088 23.348 71.6448 23.468 72.1168 23.708C72.5968 23.948 72.9728 24.284 73.2448 24.716C73.5248 25.148 73.6648 25.656 73.6648 26.24C73.6648 26.816 73.5248 27.32 73.2448 27.752C72.9728 28.184 72.5968 28.52 72.1168 28.76C71.6448 29 71.1088 29.12 70.5088 29.12C69.9088 29.12 69.3688 29 68.8888 28.76C68.4088 28.52 68.0328 28.184 67.7607 27.752C67.4888 27.32 67.3528 26.816 67.3528 26.24ZM69.2128 26.24C69.2128 26.528 69.2728 26.776 69.3928 26.984C69.5128 27.184 69.6688 27.34 69.8608 27.452C70.0528 27.564 70.2688 27.62 70.5088 27.62C70.7408 27.62 70.9528 27.564 71.1448 27.452C71.3448 27.34 71.5008 27.184 71.6128 26.984C71.7328 26.776 71.7928 26.528 71.7928 26.24C71.7928 25.952 71.7328 25.704 71.6128 25.496C71.5008 25.288 71.3448 25.128 71.1448 25.016C70.9528 24.904 70.7408 24.848 70.5088 24.848C70.2688 24.848 70.0528 24.904 69.8608 25.016C69.6688 25.128 69.5128 25.288 69.3928 25.496C69.2728 25.704 69.2128 25.952 69.2128 26.24ZM74.4309 26.24C74.4309 25.656 74.5669 25.148 74.8389 24.716C75.1109 24.284 75.4869 23.948 75.9669 23.708C76.4469 23.468 76.9869 23.348 77.5869 23.348C78.1869 23.348 78.7229 23.468 79.1949 23.708C79.6749 23.948 80.0509 24.284 80.3229 24.716C80.6029 25.148 80.7429 25.656 80.7429 26.24C80.7429 26.816 80.6029 27.32 80.3229 27.752C80.0509 28.184 79.6749 28.52 79.1949 28.76C78.7229 29 78.1869 29.12 77.5869 29.12C76.9869 29.12 76.4469 29 75.9669 28.76C75.4869 28.52 75.1109 28.184 74.8389 27.752C74.5669 27.32 74.4309 26.816 74.4309 26.24ZM76.2909 26.24C76.2909 26.528 76.3509 26.776 76.4709 26.984C76.5909 27.184 76.7469 27.34 76.9389 27.452C77.1309 27.564 77.3469 27.62 77.5869 27.62C77.8189 27.62 78.0309 27.564 78.2229 27.452C78.4229 27.34 78.5789 27.184 78.6909 26.984C78.8109 26.776 78.8709 26.528 78.8709 26.24C78.8709 25.952 78.8109 25.704 78.6909 25.496C78.5789 25.288 78.4229 25.128 78.2229 25.016C78.0309 24.904 77.8189 24.848 77.5869 24.848C77.3469 24.848 77.1309 24.904 76.9389 25.016C76.7469 25.128 76.5909 25.288 76.4709 25.496C76.3509 25.704 76.2909 25.952 76.2909 26.24ZM81.185 23.48H84.881V24.98H81.185V23.48ZM82.157 21.56H83.897V29H82.157V21.56ZM85.9533 26.996C86.2333 27.228 86.4853 27.412 86.7093 27.548C86.9413 27.676 87.1453 27.768 87.3213 27.824C87.4973 27.872 87.6493 27.896 87.7773 27.896C87.9613 27.896 88.0973 27.856 88.1853 27.776C88.2733 27.696 88.3173 27.592 88.3173 27.464C88.3173 27.344 88.2813 27.244 88.2093 27.164C88.1373 27.076 88.0133 26.992 87.8373 26.912C87.6693 26.832 87.4373 26.748 87.1413 26.66C86.8773 26.564 86.6253 26.452 86.3853 26.324C86.1533 26.188 85.9613 26.008 85.8093 25.784C85.6573 25.56 85.5813 25.272 85.5813 24.92C85.5813 24.584 85.6693 24.3 85.8453 24.068C86.0293 23.836 86.2733 23.66 86.5773 23.54C86.8893 23.42 87.2453 23.36 87.6453 23.36C87.9653 23.36 88.2613 23.396 88.5333 23.468C88.8133 23.54 89.0733 23.636 89.3133 23.756C89.5613 23.876 89.7933 24.016 90.0093 24.176L89.3613 25.352C89.1293 25.136 88.8653 24.96 88.5693 24.824C88.2733 24.68 88.0013 24.608 87.7533 24.608C87.5853 24.608 87.4573 24.64 87.3693 24.704C87.2893 24.768 87.2493 24.852 87.2493 24.956C87.2493 25.076 87.2973 25.176 87.3933 25.256C87.4973 25.336 87.6413 25.412 87.8253 25.484C88.0173 25.548 88.2493 25.632 88.5213 25.736C88.8093 25.84 89.0733 25.96 89.3133 26.096C89.5613 26.232 89.7573 26.404 89.9013 26.612C90.0533 26.82 90.1293 27.096 90.1293 27.44C90.1293 28.032 89.9453 28.48 89.5773 28.784C89.2173 29.08 88.7093 29.228 88.0533 29.228C87.6533 29.228 87.2813 29.18 86.9373 29.084C86.6013 28.996 86.2893 28.876 86.0013 28.724C85.7133 28.564 85.4453 28.388 85.1973 28.196L85.9533 26.996ZM90.478 23.48H94.174V24.98H90.478V23.48ZM91.45 21.56H93.19V29H91.45V21.56ZM96.7343 23.48V29H94.9463V23.48H96.7343ZM98.3303 25.352C98.2343 25.256 98.1303 25.18 98.0183 25.124C97.9143 25.068 97.7823 25.04 97.6223 25.04C97.4463 25.04 97.2903 25.088 97.1543 25.184C97.0183 25.28 96.9143 25.42 96.8423 25.604C96.7703 25.788 96.7343 26.012 96.7343 26.276L96.3023 25.64C96.3023 25.2 96.3863 24.808 96.5543 24.464C96.7303 24.12 96.9583 23.848 97.2383 23.648C97.5183 23.448 97.8103 23.348 98.1143 23.348C98.3143 23.348 98.5063 23.388 98.6903 23.468C98.8743 23.548 99.0143 23.66 99.1103 23.804L98.3303 25.352ZM101.284 27.272C101.284 27.416 101.32 27.54 101.392 27.644C101.464 27.74 101.56 27.816 101.68 27.872C101.8 27.92 101.932 27.944 102.076 27.944C102.284 27.944 102.476 27.9 102.652 27.812C102.828 27.724 102.972 27.592 103.084 27.416C103.196 27.24 103.252 27.024 103.252 26.768L103.444 27.488C103.444 27.84 103.348 28.14 103.156 28.388C102.964 28.628 102.716 28.812 102.412 28.94C102.108 29.06 101.78 29.12 101.428 29.12C101.076 29.12 100.748 29.056 100.444 28.928C100.148 28.792 99.9079 28.592 99.7239 28.328C99.5479 28.064 99.4599 27.744 99.4599 27.368C99.4599 26.84 99.6479 26.424 100.024 26.12C100.4 25.808 100.932 25.652 101.62 25.652C101.956 25.652 102.256 25.684 102.52 25.748C102.792 25.812 103.024 25.892 103.216 25.988C103.408 26.084 103.552 26.184 103.648 26.288V27.092C103.456 26.948 103.232 26.84 102.976 26.768C102.728 26.688 102.464 26.648 102.184 26.648C101.968 26.648 101.796 26.672 101.668 26.72C101.54 26.768 101.444 26.84 101.38 26.936C101.316 27.024 101.284 27.136 101.284 27.272ZM100.48 25.172L99.8679 23.96C100.18 23.808 100.556 23.664 100.996 23.528C101.436 23.392 101.916 23.324 102.436 23.324C102.924 23.324 103.36 23.396 103.744 23.54C104.128 23.676 104.432 23.876 104.656 24.14C104.88 24.404 104.992 24.728 104.992 25.112V29H103.252V25.52C103.252 25.384 103.228 25.268 103.18 25.172C103.14 25.068 103.076 24.98 102.988 24.908C102.9 24.836 102.788 24.784 102.652 24.752C102.524 24.72 102.376 24.704 102.208 24.704C101.96 24.704 101.716 24.732 101.476 24.788C101.244 24.844 101.04 24.912 100.864 24.992C100.688 25.064 100.56 25.124 100.48 25.172ZM108.149 31.64H106.337V23.48H108.149V31.64ZM112.661 26.24C112.661 26.88 112.533 27.42 112.277 27.86C112.029 28.3 111.705 28.632 111.305 28.856C110.913 29.08 110.489 29.192 110.033 29.192C109.553 29.192 109.137 29.072 108.785 28.832C108.441 28.584 108.177 28.24 107.993 27.8C107.809 27.352 107.717 26.832 107.717 26.24C107.717 25.64 107.809 25.12 107.993 24.68C108.177 24.24 108.441 23.9 108.785 23.66C109.137 23.412 109.553 23.288 110.033 23.288C110.489 23.288 110.913 23.4 111.305 23.624C111.705 23.848 112.029 24.18 112.277 24.62C112.533 25.052 112.661 25.592 112.661 26.24ZM110.753 26.24C110.753 25.952 110.693 25.708 110.573 25.508C110.453 25.308 110.293 25.156 110.093 25.052C109.893 24.948 109.673 24.896 109.433 24.896C109.225 24.896 109.021 24.948 108.821 25.052C108.629 25.148 108.469 25.296 108.341 25.496C108.213 25.696 108.149 25.944 108.149 26.24C108.149 26.536 108.213 26.784 108.341 26.984C108.469 27.184 108.629 27.336 108.821 27.44C109.021 27.536 109.225 27.584 109.433 27.584C109.673 27.584 109.893 27.532 110.093 27.428C110.293 27.324 110.453 27.172 110.573 26.972C110.693 26.772 110.753 26.528 110.753 26.24Z" fill="white"/>
</svg>
