<svg width="102" height="49" viewBox="0 0 102 49" fill="none" xmlns="http://www.w3.org/2000/svg">
<rect width="102" height="49" rx="10" fill="#898AA6"/>
<rect x="12" y="6" width="37" height="37" rx="18.5" fill="white"/>
<path d="M21.4372 14.1641L23.0868 32.6839L30.489 34.7478L37.9119 32.6764L39.5628 14.1641H21.4372ZM36.1357 18.407L35.5866 24.5766L35.5882 24.6099L35.5859 24.6865V24.6859L35.1958 28.9997L35.1528 29.383L30.5 30.6699V30.6701L30.4964 30.6732L25.8516 29.3791L25.5371 25.8125H27.8148L27.9764 27.626L30.5007 28.3102L30.5 28.3115V28.3112L33.0336 27.6174L33.3014 24.6641H28.0049L27.9595 24.1648L27.856 22.9952L27.8017 22.3672H33.5027L33.7101 20.0703H25.0269L24.9814 19.5714L24.8781 18.4015L24.8236 17.7734H36.19L36.1357 18.407V18.407Z" fill="#1572B6"/>
<path d="M61.616 24.8C61.616 25.312 61.732 25.756 61.964 26.132C62.196 26.5 62.5 26.78 62.876 26.972C63.26 27.164 63.68 27.26 64.136 27.26C64.536 27.26 64.888 27.208 65.192 27.104C65.496 27 65.768 26.864 66.008 26.696C66.248 26.528 66.46 26.348 66.644 26.156V28.34C66.308 28.604 65.94 28.812 65.54 28.964C65.14 29.116 64.632 29.192 64.016 29.192C63.344 29.192 62.724 29.088 62.156 28.88C61.588 28.672 61.1 28.372 60.692 27.98C60.284 27.588 59.968 27.124 59.744 26.588C59.52 26.052 59.408 25.456 59.408 24.8C59.408 24.144 59.52 23.548 59.744 23.012C59.968 22.476 60.284 22.012 60.692 21.62C61.1 21.228 61.588 20.928 62.156 20.72C62.724 20.512 63.344 20.408 64.016 20.408C64.632 20.408 65.14 20.484 65.54 20.636C65.94 20.788 66.308 20.996 66.644 21.26V23.444C66.46 23.252 66.248 23.072 66.008 22.904C65.768 22.728 65.496 22.592 65.192 22.496C64.888 22.392 64.536 22.34 64.136 22.34C63.68 22.34 63.26 22.436 62.876 22.628C62.5 22.82 62.196 23.1 61.964 23.468C61.732 23.836 61.616 24.28 61.616 24.8ZM69.2261 26.048C69.3941 26.352 69.5821 26.616 69.7901 26.84C70.0061 27.064 70.2381 27.236 70.4861 27.356C70.7421 27.476 71.0101 27.536 71.2901 27.536C71.5861 27.536 71.8301 27.464 72.0221 27.32C72.2141 27.168 72.3101 26.964 72.3101 26.708C72.3101 26.492 72.2541 26.32 72.1421 26.192C72.0301 26.056 71.8501 25.928 71.6021 25.808C71.3541 25.688 71.0261 25.552 70.6181 25.4C70.4181 25.328 70.1861 25.228 69.9221 25.1C69.6661 24.972 69.4221 24.808 69.1901 24.608C68.9581 24.4 68.7661 24.152 68.6141 23.864C68.4621 23.568 68.3861 23.212 68.3861 22.796C68.3861 22.3 68.5141 21.872 68.7701 21.512C69.0341 21.152 69.3861 20.88 69.8261 20.696C70.2741 20.504 70.7701 20.408 71.3141 20.408C71.8741 20.408 72.3581 20.5 72.7661 20.684C73.1821 20.868 73.5261 21.1 73.7981 21.38C74.0701 21.66 74.2781 21.944 74.4221 22.232L72.8741 23.096C72.7541 22.896 72.6141 22.724 72.4541 22.58C72.3021 22.428 72.1301 22.312 71.9381 22.232C71.7541 22.144 71.5541 22.1 71.3381 22.1C71.0501 22.1 70.8301 22.164 70.6781 22.292C70.5261 22.412 70.4501 22.564 70.4501 22.748C70.4501 22.94 70.5221 23.108 70.6661 23.252C70.8181 23.396 71.0301 23.528 71.3021 23.648C71.5821 23.768 71.9181 23.896 72.3101 24.032C72.6061 24.144 72.8821 24.276 73.1381 24.428C73.3941 24.572 73.6181 24.748 73.8101 24.956C74.0101 25.164 74.1661 25.404 74.2781 25.676C74.3901 25.948 74.4461 26.26 74.4461 26.612C74.4461 27.036 74.3581 27.416 74.1821 27.752C74.0141 28.08 73.7821 28.356 73.4861 28.58C73.1981 28.804 72.8661 28.972 72.4901 29.084C72.1221 29.204 71.7421 29.264 71.3501 29.264C70.8061 29.264 70.2981 29.168 69.8261 28.976C69.3621 28.776 68.9581 28.508 68.6141 28.172C68.2701 27.836 68.0021 27.468 67.8101 27.068L69.2261 26.048ZM76.7261 26.048C76.8941 26.352 77.0821 26.616 77.2901 26.84C77.5061 27.064 77.7381 27.236 77.9861 27.356C78.2421 27.476 78.5101 27.536 78.7901 27.536C79.0861 27.536 79.3301 27.464 79.5221 27.32C79.7141 27.168 79.8101 26.964 79.8101 26.708C79.8101 26.492 79.7541 26.32 79.6421 26.192C79.5301 26.056 79.3501 25.928 79.1021 25.808C78.8541 25.688 78.5261 25.552 78.1181 25.4C77.9181 25.328 77.6861 25.228 77.4221 25.1C77.1661 24.972 76.9221 24.808 76.6901 24.608C76.4581 24.4 76.2661 24.152 76.1141 23.864C75.9621 23.568 75.8861 23.212 75.8861 22.796C75.8861 22.3 76.0141 21.872 76.2701 21.512C76.5341 21.152 76.8861 20.88 77.3261 20.696C77.7741 20.504 78.2701 20.408 78.8141 20.408C79.3741 20.408 79.8581 20.5 80.2661 20.684C80.6821 20.868 81.0261 21.1 81.2981 21.38C81.5701 21.66 81.7781 21.944 81.9221 22.232L80.3741 23.096C80.2541 22.896 80.1141 22.724 79.9541 22.58C79.8021 22.428 79.6301 22.312 79.4381 22.232C79.2541 22.144 79.0541 22.1 78.8381 22.1C78.5501 22.1 78.3301 22.164 78.1781 22.292C78.0261 22.412 77.9501 22.564 77.9501 22.748C77.9501 22.94 78.0221 23.108 78.1661 23.252C78.3181 23.396 78.5301 23.528 78.8021 23.648C79.0821 23.768 79.4181 23.896 79.8101 24.032C80.1061 24.144 80.3821 24.276 80.6381 24.428C80.8941 24.572 81.1181 24.748 81.3101 24.956C81.5101 25.164 81.6661 25.404 81.7781 25.676C81.8901 25.948 81.9461 26.26 81.9461 26.612C81.9461 27.036 81.8581 27.416 81.6821 27.752C81.5141 28.08 81.2821 28.356 80.9861 28.58C80.6981 28.804 80.3661 28.972 79.9901 29.084C79.6221 29.204 79.2421 29.264 78.8501 29.264C78.3061 29.264 77.7981 29.168 77.3261 28.976C76.8621 28.776 76.4581 28.508 76.1141 28.172C75.7701 27.836 75.5021 27.468 75.3101 27.068L76.7261 26.048ZM85.7141 24.932V24.02C85.9461 24.02 86.1541 23.992 86.3381 23.936C86.5301 23.872 86.6941 23.788 86.8301 23.684C86.9741 23.58 87.0821 23.46 87.1541 23.324C87.2261 23.188 87.2621 23.044 87.2621 22.892C87.2621 22.732 87.2261 22.588 87.1541 22.46C87.0821 22.332 86.9781 22.236 86.8421 22.172C86.7061 22.1 86.5301 22.064 86.3141 22.064C85.9941 22.064 85.7301 22.156 85.5221 22.34C85.3141 22.524 85.2101 22.764 85.2101 23.06H83.3501C83.3501 22.564 83.4701 22.12 83.7101 21.728C83.9581 21.328 84.3061 21.016 84.7541 20.792C85.2021 20.56 85.7221 20.444 86.3141 20.444C86.9461 20.444 87.4821 20.548 87.9221 20.756C88.3621 20.964 88.6941 21.244 88.9181 21.596C89.1501 21.948 89.2661 22.34 89.2661 22.772C89.2661 23.252 89.1061 23.652 88.7861 23.972C88.4741 24.292 88.0501 24.532 87.5141 24.692C86.9781 24.852 86.3781 24.932 85.7141 24.932ZM86.2181 29.192C85.7141 29.192 85.2621 29.116 84.8621 28.964C84.4621 28.812 84.1221 28.6 83.8421 28.328C83.5701 28.056 83.3581 27.748 83.2061 27.404C83.0621 27.06 82.9901 26.704 82.9901 26.336H84.9821C84.9821 26.608 85.0421 26.836 85.1621 27.02C85.2821 27.204 85.4421 27.34 85.6421 27.428C85.8501 27.516 86.0661 27.56 86.2901 27.56C86.5301 27.56 86.7381 27.524 86.9141 27.452C87.0981 27.38 87.2421 27.264 87.3461 27.104C87.4501 26.944 87.5021 26.748 87.5021 26.516C87.5021 26.34 87.4661 26.18 87.3941 26.036C87.3221 25.892 87.2101 25.768 87.0581 25.664C86.9141 25.552 86.7301 25.468 86.5061 25.412C86.2821 25.356 86.0181 25.328 85.7141 25.328V24.296C86.2661 24.296 86.7701 24.344 87.2261 24.44C87.6901 24.528 88.0941 24.672 88.4381 24.872C88.7821 25.064 89.0461 25.312 89.2301 25.616C89.4141 25.92 89.5061 26.284 89.5061 26.708C89.5061 27.196 89.3741 27.628 89.1101 28.004C88.8461 28.372 88.4701 28.664 87.9821 28.88C87.4941 29.088 86.9061 29.192 86.2181 29.192Z" fill="white"/>
</svg>
