<svg width="82" height="44" viewBox="0 0 82 44" fill="none" xmlns="http://www.w3.org/2000/svg">
<rect width="82" height="44" rx="10" fill="#898AA6"/>
<rect x="8" y="4" width="36" height="36" rx="18" fill="white"/>
<path d="M17.25 12L18.8438 30L26 32L33.1537 30.0013L34.75 12H17.25Z" fill="#2196F3"/>
<path d="M31.3425 17.8862L31.1412 20.1475L30.5337 26.9262L26 28.18L25.9962 28.1812L21.465 26.9262L21.1487 23.3812H23.3687L23.5337 25.22L25.9975 25.885L25.9987 25.8837L28.4662 25.2187L28.8025 22.155L21.0425 22.1762L20.8225 20.0812L28.9887 19.985L29.1537 17.7425L20.6037 17.7662L20.46 15.68H31.54L31.3425 17.8862Z" fill="#FAFAFA"/>
<path d="M56.296 17.552C56.856 17.552 57.328 17.626 57.712 17.774C58.1 17.918 58.46 18.126 58.792 18.398L58.066 19.262C57.818 19.054 57.552 18.9 57.268 18.8C56.984 18.7 56.682 18.65 56.362 18.65C55.95 18.65 55.57 18.754 55.222 18.962C54.874 19.17 54.594 19.508 54.382 19.976C54.174 20.444 54.07 21.068 54.07 21.848C54.07 22.612 54.17 23.228 54.37 23.696C54.57 24.164 54.844 24.504 55.192 24.716C55.54 24.928 55.93 25.034 56.362 25.034C56.806 25.034 57.174 24.962 57.466 24.818C57.758 24.67 58.016 24.504 58.24 24.32L58.912 25.178C58.636 25.446 58.286 25.678 57.862 25.874C57.438 26.066 56.922 26.162 56.314 26.162C55.614 26.162 54.984 25.998 54.424 25.67C53.868 25.338 53.428 24.852 53.104 24.212C52.784 23.572 52.624 22.784 52.624 21.848C52.624 20.92 52.79 20.138 53.122 19.502C53.454 18.862 53.898 18.378 54.454 18.05C55.01 17.718 55.624 17.552 56.296 17.552ZM65.7773 23.66C65.7773 24.148 65.6513 24.582 65.3993 24.962C65.1513 25.338 64.7913 25.632 64.3193 25.844C63.8513 26.056 63.2853 26.162 62.6213 26.162C61.9493 26.162 61.3593 26.062 60.8513 25.862C60.3473 25.658 59.9213 25.388 59.5733 25.052L60.3353 24.2C60.6313 24.468 60.9653 24.68 61.3373 24.836C61.7093 24.988 62.1353 25.064 62.6153 25.064C62.9273 25.064 63.2133 25.016 63.4733 24.92C63.7333 24.82 63.9413 24.672 64.0973 24.476C64.2533 24.276 64.3313 24.026 64.3313 23.726C64.3313 23.482 64.2813 23.276 64.1813 23.108C64.0813 22.94 63.9073 22.788 63.6593 22.652C63.4153 22.516 63.0733 22.384 62.6333 22.256C62.0493 22.08 61.5593 21.884 61.1633 21.668C60.7673 21.452 60.4673 21.194 60.2633 20.894C60.0633 20.59 59.9633 20.222 59.9633 19.79C59.9633 19.342 60.0853 18.95 60.3293 18.614C60.5773 18.278 60.9153 18.018 61.3433 17.834C61.7753 17.646 62.2633 17.552 62.8073 17.552C63.4073 17.552 63.9313 17.638 64.3793 17.81C64.8273 17.982 65.2273 18.228 65.5793 18.548L64.8473 19.376C64.5553 19.12 64.2413 18.934 63.9053 18.818C63.5733 18.702 63.2353 18.644 62.8913 18.644C62.6113 18.644 62.3573 18.684 62.1293 18.764C61.9013 18.844 61.7213 18.962 61.5893 19.118C61.4573 19.274 61.3913 19.472 61.3913 19.712C61.3913 19.924 61.4493 20.106 61.5653 20.258C61.6853 20.41 61.8853 20.552 62.1653 20.684C62.4493 20.812 62.8373 20.95 63.3293 21.098C63.7933 21.234 64.2093 21.402 64.5773 21.602C64.9493 21.802 65.2413 22.064 65.4533 22.388C65.6693 22.712 65.7773 23.136 65.7773 23.66ZM72.9726 23.66C72.9726 24.148 72.8466 24.582 72.5946 24.962C72.3466 25.338 71.9866 25.632 71.5146 25.844C71.0466 26.056 70.4806 26.162 69.8166 26.162C69.1446 26.162 68.5546 26.062 68.0466 25.862C67.5426 25.658 67.1166 25.388 66.7686 25.052L67.5306 24.2C67.8266 24.468 68.1606 24.68 68.5326 24.836C68.9046 24.988 69.3306 25.064 69.8106 25.064C70.1226 25.064 70.4086 25.016 70.6686 24.92C70.9286 24.82 71.1366 24.672 71.2926 24.476C71.4486 24.276 71.5266 24.026 71.5266 23.726C71.5266 23.482 71.4766 23.276 71.3766 23.108C71.2766 22.94 71.1026 22.788 70.8546 22.652C70.6106 22.516 70.2686 22.384 69.8286 22.256C69.2446 22.08 68.7546 21.884 68.3586 21.668C67.9626 21.452 67.6626 21.194 67.4586 20.894C67.2586 20.59 67.1586 20.222 67.1586 19.79C67.1586 19.342 67.2806 18.95 67.5246 18.614C67.7726 18.278 68.1106 18.018 68.5386 17.834C68.9706 17.646 69.4586 17.552 70.0026 17.552C70.6026 17.552 71.1266 17.638 71.5746 17.81C72.0226 17.982 72.4226 18.228 72.7746 18.548L72.0426 19.376C71.7506 19.12 71.4366 18.934 71.1006 18.818C70.7686 18.702 70.4306 18.644 70.0866 18.644C69.8066 18.644 69.5526 18.684 69.3246 18.764C69.0966 18.844 68.9166 18.962 68.7846 19.118C68.6526 19.274 68.5866 19.472 68.5866 19.712C68.5866 19.924 68.6446 20.106 68.7606 20.258C68.8806 20.41 69.0806 20.552 69.3606 20.684C69.6446 20.812 70.0326 20.95 70.5246 21.098C70.9886 21.234 71.4046 21.402 71.7726 21.602C72.1446 21.802 72.4366 22.064 72.6486 22.388C72.8646 22.712 72.9726 23.136 72.9726 23.66Z" fill="white"/>
</svg>
