<svg width="96" height="44" viewBox="0 0 96 44" fill="none" xmlns="http://www.w3.org/2000/svg">
<rect width="96" height="44" rx="10" fill="#898AA6"/>
<rect x="8" y="4" width="36" height="36" rx="18" fill="white"/>
<path d="M26.0234 22C26.0234 20.1591 27.5158 18.6667 29.3567 18.6667C31.1977 18.6667 32.69 20.1591 32.69 22C32.69 23.841 31.1976 25.3333 29.3567 25.3333C27.5158 25.3333 26.0234 23.8409 26.0234 22Z" fill="#00BCFF"/>
<path d="M19.3567 28.6667C19.3567 26.8257 20.8491 25.3334 22.69 25.3334L24.4664 24.3955L26.0234 25.3334V28.6667C26.0234 30.5077 24.531 32 22.69 32C20.8491 32 19.3567 30.5076 19.3567 28.6667Z" fill="#00CF7F"/>
<path d="M26.0234 12L24.2096 15.1512L26.0234 18.6666H29.31C31.1509 18.6666 32.6433 17.1743 32.6433 15.3333C32.6433 13.4924 31.1509 12 29.31 12H26.0234Z" fill="#FF7361"/>
<path d="M19.3099 15.3333C19.3099 17.1743 20.8023 18.6666 22.6433 18.6666L24.4115 19.3496L26.0233 18.6666V12H22.6432C20.8023 12 19.3099 13.4924 19.3099 15.3333Z" fill="#FF4D12"/>
<path d="M19.3567 22C19.3567 23.841 20.8491 25.3333 22.69 25.3333H26.0234V18.6666H22.69C20.8491 18.6666 19.3567 20.159 19.3567 22Z" fill="#B659FF"/>
<path d="M54.916 18.776V21.41H58.03V22.466H54.916V26H53.524V17.72H58.618L58.462 18.776H54.916ZM63.7253 19.664V25.016H65.4473V26H60.4853V25.016H62.3813V20.648H60.5453V19.664H63.7253ZM62.7893 16.562C63.0533 16.562 63.2653 16.642 63.4253 16.802C63.5893 16.962 63.6713 17.162 63.6713 17.402C63.6713 17.642 63.5893 17.844 63.4253 18.008C63.2653 18.172 63.0533 18.254 62.7893 18.254C62.5333 18.254 62.3233 18.172 62.1593 18.008C61.9953 17.844 61.9133 17.642 61.9133 17.402C61.9133 17.162 61.9953 16.962 62.1593 16.802C62.3233 16.642 62.5333 16.562 62.7893 16.562ZM72.7926 18.86L73.1526 19.976C72.9006 20.06 72.6226 20.116 72.3186 20.144C72.0186 20.172 71.6826 20.186 71.3106 20.186C71.6906 20.354 71.9766 20.57 72.1686 20.834C72.3606 21.094 72.4566 21.414 72.4566 21.794C72.4566 22.206 72.3566 22.574 72.1566 22.898C71.9566 23.222 71.6706 23.476 71.2986 23.66C70.9266 23.844 70.4806 23.936 69.9606 23.936C69.7766 23.936 69.6166 23.928 69.4806 23.912C69.3486 23.896 69.2186 23.87 69.0906 23.834C69.0106 23.89 68.9426 23.966 68.8866 24.062C68.8346 24.154 68.8086 24.252 68.8086 24.356C68.8086 24.484 68.8606 24.596 68.9646 24.692C69.0726 24.784 69.2846 24.83 69.6006 24.83H70.7046C71.1566 24.83 71.5546 24.908 71.8986 25.064C72.2466 25.216 72.5186 25.426 72.7146 25.694C72.9146 25.958 73.0146 26.258 73.0146 26.594C73.0146 27.226 72.7426 27.716 72.1986 28.064C71.6546 28.412 70.8706 28.586 69.8466 28.586C69.1226 28.586 68.5546 28.512 68.1426 28.364C67.7306 28.216 67.4406 27.996 67.2726 27.704C67.1046 27.412 67.0206 27.054 67.0206 26.63H68.2266C68.2266 26.85 68.2686 27.032 68.3526 27.176C68.4406 27.32 68.6026 27.428 68.8386 27.5C69.0746 27.572 69.4146 27.608 69.8586 27.608C70.3026 27.608 70.6546 27.57 70.9146 27.494C71.1786 27.422 71.3686 27.316 71.4846 27.176C71.6046 27.04 71.6646 26.876 71.6646 26.684C71.6646 26.428 71.5526 26.23 71.3286 26.09C71.1046 25.95 70.8046 25.88 70.4286 25.88H69.3426C68.7426 25.88 68.3026 25.758 68.0226 25.514C67.7466 25.27 67.6086 24.986 67.6086 24.662C67.6086 24.446 67.6686 24.238 67.7886 24.038C67.9126 23.838 68.0886 23.664 68.3166 23.516C67.9366 23.316 67.6586 23.074 67.4826 22.79C67.3106 22.502 67.2246 22.154 67.2246 21.746C67.2246 21.298 67.3366 20.906 67.5606 20.57C67.7846 20.234 68.0946 19.972 68.4906 19.784C68.8906 19.596 69.3506 19.502 69.8706 19.502C70.3786 19.502 70.8026 19.476 71.1426 19.424C71.4826 19.368 71.7786 19.29 72.0306 19.19C72.2866 19.09 72.5406 18.98 72.7926 18.86ZM69.8826 20.426C69.4546 20.426 69.1326 20.548 68.9166 20.792C68.7006 21.032 68.5926 21.346 68.5926 21.734C68.5926 22.134 68.7026 22.456 68.9226 22.7C69.1466 22.94 69.4726 23.06 69.9006 23.06C70.2966 23.06 70.5986 22.944 70.8066 22.712C71.0186 22.48 71.1246 22.15 71.1246 21.722C71.1246 21.29 71.0206 20.966 70.8126 20.75C70.6046 20.534 70.2946 20.426 69.8826 20.426ZM79.0219 19.496C79.2619 19.496 79.4779 19.548 79.6699 19.652C79.8619 19.756 80.0119 19.938 80.1199 20.198C80.2319 20.458 80.2879 20.822 80.2879 21.29V26H79.0939V21.476C79.0939 21.144 79.0699 20.906 79.0219 20.762C78.9779 20.618 78.8599 20.546 78.6679 20.546C78.5159 20.546 78.3619 20.594 78.2059 20.69C78.0499 20.782 77.8919 20.942 77.7319 21.17V26H76.6459V21.476C76.6459 21.144 76.6219 20.906 76.5739 20.762C76.5299 20.618 76.4119 20.546 76.2199 20.546C76.0639 20.546 75.9079 20.594 75.7519 20.69C75.5999 20.782 75.4439 20.942 75.2839 21.17V26H74.0839V19.664H75.0979L75.1879 20.348C75.3679 20.096 75.5639 19.892 75.7759 19.736C75.9879 19.576 76.2439 19.496 76.5439 19.496C76.7839 19.496 77.0019 19.556 77.1979 19.676C77.3939 19.796 77.5379 20.006 77.6299 20.306C77.8059 20.066 78.0059 19.872 78.2299 19.724C78.4539 19.572 78.7179 19.496 79.0219 19.496ZM86.6913 24.446C86.6913 24.694 86.7293 24.876 86.8053 24.992C86.8813 25.104 87.0033 25.188 87.1713 25.244L86.8713 26.156C86.5593 26.12 86.2913 26.034 86.0673 25.898C85.8433 25.762 85.6733 25.556 85.5573 25.28C85.3253 25.572 85.0313 25.792 84.6753 25.94C84.3193 26.088 83.9393 26.162 83.5353 26.162C82.8953 26.162 82.3873 25.982 82.0113 25.622C81.6393 25.258 81.4533 24.782 81.4533 24.194C81.4533 23.526 81.7133 23.012 82.2333 22.652C82.7533 22.292 83.4973 22.112 84.4653 22.112H85.3713V21.698C85.3713 21.29 85.2473 20.996 84.9993 20.816C84.7553 20.636 84.4093 20.546 83.9613 20.546C83.7533 20.546 83.5013 20.574 83.2053 20.63C82.9093 20.682 82.5993 20.764 82.2753 20.876L81.9453 19.928C82.3413 19.78 82.7293 19.672 83.1093 19.604C83.4893 19.532 83.8413 19.496 84.1653 19.496C85.0133 19.496 85.6453 19.684 86.0613 20.06C86.4813 20.436 86.6913 20.956 86.6913 21.62V24.446ZM83.9433 25.172C84.2153 25.172 84.4813 25.1 84.7413 24.956C85.0013 24.812 85.2113 24.61 85.3713 24.35V22.952H84.6273C83.9953 22.952 83.5433 23.058 83.2713 23.27C82.9993 23.478 82.8633 23.766 82.8633 24.134C82.8633 24.47 82.9533 24.728 83.1333 24.908C83.3173 25.084 83.5873 25.172 83.9433 25.172Z" fill="white"/>
</svg>
