<svg width="105" height="49" viewBox="0 0 105 49" fill="none" xmlns="http://www.w3.org/2000/svg">
<rect width="105" height="49" rx="10" fill="#898AA6"/>
<rect x="12" y="6" width="37" height="37" rx="18.5" fill="white"/>
<path d="M27.4648 35.1641C29.4172 35.1641 30.9922 33.5891 30.9922 31.6367V28.1094H27.4648C25.5125 28.1094 23.9375 29.6844 23.9375 31.6367C23.9375 33.5891 25.5125 35.1641 27.4648 35.1641Z" fill="#0ACF83"/>
<path d="M23.9375 24.582C23.9375 22.6297 25.5125 21.0547 27.4648 21.0547H30.9922V28.1094H27.4648C25.5125 28.1094 23.9375 26.5344 23.9375 24.582Z" fill="#A259FF"/>
<path d="M23.9375 17.5273C23.9375 15.575 25.5125 14 27.4648 14H30.9922V21.0547H27.4648C25.5125 21.0547 23.9375 19.4797 23.9375 17.5273Z" fill="#F24E1E"/>
<path d="M30.9922 14H34.5195C36.4719 14 38.0469 15.575 38.0469 17.5273C38.0469 19.4797 36.4719 21.0547 34.5195 21.0547H30.9922V14Z" fill="#FF7262"/>
<path d="M38.0469 24.582C38.0469 26.5344 36.4719 28.1094 34.5195 28.1094C32.5672 28.1094 30.9922 26.5344 30.9922 24.582C30.9922 22.6297 32.5672 21.0547 34.5195 21.0547C36.4719 21.0547 38.0469 22.6297 38.0469 24.582Z" fill="#1ABCFE"/>
<path d="M61.232 22.34V20.6H64.988V22.34H61.232ZM61.232 25.628V23.996H64.868V25.628H61.232ZM59.888 20.6H61.832V29H59.888V20.6ZM66.2328 21.404C66.2328 21.116 66.3368 20.884 66.5448 20.708C66.7528 20.524 67.0008 20.432 67.2888 20.432C67.5848 20.432 67.8328 20.524 68.0328 20.708C68.2408 20.884 68.3448 21.116 68.3448 21.404C68.3448 21.692 68.2408 21.928 68.0328 22.112C67.8328 22.296 67.5848 22.388 67.2888 22.388C67.0008 22.388 66.7528 22.296 66.5448 22.112C66.3368 21.928 66.2328 21.692 66.2328 21.404ZM66.4128 23.48H68.1648V29H66.4128V23.48ZM69.4532 29.396H71.2052C71.2292 29.62 71.2932 29.808 71.3972 29.96C71.5092 30.112 71.6572 30.224 71.8412 30.296C72.0252 30.376 72.2332 30.416 72.4652 30.416C72.7212 30.416 72.9532 30.356 73.1612 30.236C73.3692 30.124 73.5332 29.952 73.6532 29.72C73.7812 29.496 73.8452 29.216 73.8452 28.88V23.48H75.5852V28.88C75.5852 29.584 75.4452 30.156 75.1652 30.596C74.8932 31.036 74.5292 31.356 74.0732 31.556C73.6172 31.764 73.1052 31.868 72.5372 31.868C71.8572 31.868 71.2932 31.764 70.8452 31.556C70.4052 31.348 70.0732 31.056 69.8492 30.68C69.6252 30.312 69.4932 29.884 69.4532 29.396ZM69.3332 26.168C69.3332 25.544 69.4572 25.024 69.7052 24.608C69.9612 24.192 70.2892 23.88 70.6892 23.672C71.0892 23.464 71.5132 23.36 71.9612 23.36C72.4252 23.36 72.8332 23.472 73.1852 23.696C73.5452 23.912 73.8292 24.228 74.0372 24.644C74.2452 25.06 74.3492 25.568 74.3492 26.168C74.3492 26.76 74.2452 27.268 74.0372 27.692C73.8292 28.108 73.5452 28.428 73.1852 28.652C72.8332 28.868 72.4252 28.976 71.9612 28.976C71.5132 28.976 71.0892 28.872 70.6892 28.664C70.2892 28.448 69.9612 28.132 69.7052 27.716C69.4572 27.3 69.3332 26.784 69.3332 26.168ZM71.2412 26.168C71.2412 26.448 71.3012 26.692 71.4212 26.9C71.5412 27.1 71.7012 27.252 71.9012 27.356C72.1012 27.46 72.3212 27.512 72.5612 27.512C72.7692 27.512 72.9692 27.464 73.1612 27.368C73.3612 27.264 73.5252 27.112 73.6532 26.912C73.7812 26.712 73.8452 26.464 73.8452 26.168C73.8452 25.944 73.8052 25.748 73.7252 25.58C73.6532 25.412 73.5532 25.272 73.4252 25.16C73.3052 25.048 73.1692 24.964 73.0172 24.908C72.8652 24.852 72.7132 24.824 72.5612 24.824C72.3212 24.824 72.1012 24.876 71.9012 24.98C71.7012 25.084 71.5412 25.236 71.4212 25.436C71.3012 25.636 71.2412 25.88 71.2412 26.168ZM85.4054 25.448V29H83.5814V25.64C83.5814 25.304 83.5254 25.052 83.4134 24.884C83.3094 24.708 83.1334 24.62 82.8854 24.62C82.7254 24.62 82.5814 24.66 82.4534 24.74C82.3334 24.812 82.2374 24.924 82.1654 25.076C82.1014 25.228 82.0694 25.416 82.0694 25.64V29H80.2454V25.64C80.2454 25.304 80.1894 25.052 80.0774 24.884C79.9734 24.708 79.7974 24.62 79.5494 24.62C79.3894 24.62 79.2454 24.66 79.1174 24.74C78.9974 24.812 78.9014 24.924 78.8294 25.076C78.7654 25.228 78.7334 25.416 78.7334 25.64V29H76.9814V23.48H78.7334V24.296C78.8854 24 79.0934 23.768 79.3574 23.6C79.6294 23.432 79.9534 23.348 80.3294 23.348C80.7614 23.348 81.1054 23.428 81.3614 23.588C81.6174 23.74 81.8014 23.964 81.9134 24.26C82.1134 23.972 82.3614 23.748 82.6574 23.588C82.9534 23.428 83.2894 23.348 83.6654 23.348C84.0974 23.348 84.4374 23.432 84.6854 23.6C84.9414 23.76 85.1254 23.996 85.2374 24.308C85.3494 24.62 85.4054 25 85.4054 25.448ZM88.2292 27.272C88.2292 27.416 88.2652 27.54 88.3372 27.644C88.4092 27.74 88.5052 27.816 88.6252 27.872C88.7452 27.92 88.8772 27.944 89.0212 27.944C89.2292 27.944 89.4212 27.9 89.5972 27.812C89.7732 27.724 89.9172 27.592 90.0292 27.416C90.1412 27.24 90.1972 27.024 90.1972 26.768L90.3892 27.488C90.3892 27.84 90.2932 28.14 90.1012 28.388C89.9092 28.628 89.6612 28.812 89.3572 28.94C89.0532 29.06 88.7252 29.12 88.3732 29.12C88.0212 29.12 87.6932 29.056 87.3892 28.928C87.0932 28.792 86.8532 28.592 86.6692 28.328C86.4932 28.064 86.4052 27.744 86.4052 27.368C86.4052 26.84 86.5932 26.424 86.9692 26.12C87.3452 25.808 87.8772 25.652 88.5652 25.652C88.9012 25.652 89.2012 25.684 89.4652 25.748C89.7372 25.812 89.9692 25.892 90.1612 25.988C90.3532 26.084 90.4972 26.184 90.5932 26.288V27.092C90.4012 26.948 90.1772 26.84 89.9212 26.768C89.6732 26.688 89.4092 26.648 89.1292 26.648C88.9132 26.648 88.7412 26.672 88.6132 26.72C88.4852 26.768 88.3892 26.84 88.3252 26.936C88.2612 27.024 88.2292 27.136 88.2292 27.272ZM87.4252 25.172L86.8132 23.96C87.1252 23.808 87.5012 23.664 87.9412 23.528C88.3812 23.392 88.8612 23.324 89.3812 23.324C89.8692 23.324 90.3052 23.396 90.6892 23.54C91.0732 23.676 91.3772 23.876 91.6012 24.14C91.8252 24.404 91.9372 24.728 91.9372 25.112V29H90.1972V25.52C90.1972 25.384 90.1732 25.268 90.1252 25.172C90.0852 25.068 90.0212 24.98 89.9332 24.908C89.8452 24.836 89.7332 24.784 89.5972 24.752C89.4692 24.72 89.3212 24.704 89.1532 24.704C88.9052 24.704 88.6612 24.732 88.4212 24.788C88.1892 24.844 87.9852 24.912 87.8092 24.992C87.6332 25.064 87.5052 25.124 87.4252 25.172Z" fill="white"/>
</svg>
