<svg width="96" height="44" viewBox="0 0 96 44" fill="none" xmlns="http://www.w3.org/2000/svg">
<rect width="96" height="44" rx="10" fill="#898AA6"/>
<rect x="8" y="4" width="36" height="36" rx="18" fill="white"/>
<g clip-path="url(#clip0_5_82)">
<path d="M17.2593 12.6621L18.5573 29.2682C18.5669 29.3901 18.6126 29.5064 18.6886 29.6021C18.7646 29.6979 18.8675 29.7688 18.984 29.8058L25.8144 31.9713C25.9352 32.0096 26.0648 32.0096 26.1856 31.9713L33.0159 29.8058C33.1325 29.7688 33.2354 29.6979 33.3114 29.6021C33.3874 29.5064 33.4331 29.3901 33.4427 29.2682L34.7407 12.6621C34.7686 12.3051 34.4864 12 34.1284 12H17.8717C17.5136 12 17.2314 12.3051 17.2593 12.6621ZM31.412 17.8144H22.9524L23.2077 20.1687H31.228L30.7033 26.8804L26 28.3715L21.2967 26.8804L21.0226 23.3739H23.4913V25.0939L26.066 25.7849L28.6253 25.0939L28.8238 22.3527H20.9428L20.4196 15.6586H31.5804L31.412 17.8144Z" fill="#FC490B"/>
</g>
<path d="M56.95 26V22.238H54.25V26H52.858V17.72H54.25V21.092H56.95V17.72H58.342V26H56.95ZM63.4733 18.842V26H62.0813V18.842H59.5973V17.72H66.0173L65.8733 18.842H63.4733ZM72.8166 17.72L73.2846 26H72.0126L71.8146 21.968C71.8026 21.664 71.7926 21.37 71.7846 21.086C71.7806 20.802 71.7786 20.53 71.7786 20.27C71.7786 20.01 71.7806 19.77 71.7846 19.55C71.7926 19.326 71.8006 19.124 71.8086 18.944L70.5906 24.542H69.3786L68.0706 18.944C68.0826 19.116 68.0926 19.318 68.1006 19.55C68.1086 19.778 68.1146 20.024 68.1186 20.288C68.1226 20.552 68.1226 20.828 68.1186 21.116C68.1186 21.404 68.1146 21.692 68.1066 21.98L67.9446 26H66.6966L67.1646 17.72H68.8326L70.0146 23.27L71.1426 17.72H72.8166ZM75.0199 26V17.72H76.4119V24.836H80.1199L79.9699 26H75.0199ZM86.7513 17.72L86.5773 18.728H83.3973V21.032C83.6333 20.908 83.8613 20.824 84.0813 20.78C84.3053 20.732 84.5293 20.708 84.7533 20.708C85.1933 20.708 85.5853 20.812 85.9293 21.02C86.2733 21.228 86.5433 21.528 86.7393 21.92C86.9393 22.312 87.0393 22.786 87.0393 23.342C87.0393 23.894 86.9153 24.384 86.6673 24.812C86.4233 25.236 86.0793 25.568 85.6353 25.808C85.1913 26.044 84.6693 26.162 84.0693 26.162C83.5293 26.162 83.0493 26.066 82.6293 25.874C82.2133 25.678 81.8473 25.412 81.5312 25.076L82.3353 24.32C82.5673 24.576 82.8213 24.77 83.0973 24.902C83.3773 25.03 83.6833 25.094 84.0153 25.094C84.5193 25.094 84.9153 24.942 85.2033 24.638C85.4953 24.33 85.6413 23.896 85.6413 23.336C85.6413 22.928 85.5813 22.606 85.4613 22.37C85.3453 22.13 85.1853 21.958 84.9813 21.854C84.7773 21.75 84.5473 21.698 84.2913 21.698C84.0833 21.698 83.8873 21.72 83.7033 21.764C83.5233 21.808 83.3233 21.878 83.1033 21.974H82.1133V17.72H86.7513Z" fill="white"/>
<defs>
<clipPath id="clip0_5_82">
<rect width="20" height="20" fill="white" transform="translate(16 12)"/>
</clipPath>
</defs>
</svg>
