<svg width="112" height="49" viewBox="0 0 112 49" fill="none" xmlns="http://www.w3.org/2000/svg">
<rect width="112" height="49" rx="10" fill="#898AA6"/>
<rect x="12" y="6" width="37" height="37" rx="18.5" fill="white"/>
<path d="M21.4818 14.3281L23.1233 32.7184L30.489 34.7529L37.8751 32.7207L39.5182 14.3281H21.4818ZM36.104 18.6822L36.0012 19.8588L35.9559 20.3984H27.3155L27.5218 22.6953H35.7505L35.6954 23.2648L35.1649 29.1906L35.1259 29.563L30.5 30.8343V30.8346L30.4944 30.8376L25.8716 29.6197L25.5578 26.1406H27.8243L27.9849 27.932L30.4929 28.6016H30.5V28.512L33.0192 27.8762L33.2823 24.9922H25.4569L24.9019 18.7386L24.8479 18.1016H36.1582L36.104 18.6822Z" fill="#E44D26"/>
<path d="M60.452 25.484V23.66H66.812V25.484H60.452ZM65.528 20.6H67.556V29H65.528V20.6ZM59.888 20.6H61.916V29H59.888V20.6ZM68.4816 22.412V20.6H75.1296V22.412H72.8136V29H70.7856V22.412H68.4816ZM78.2082 24.716L77.7042 29H75.5682L76.9242 20.18L80.5002 25.304L84.0882 20.18L85.4442 29H83.3082L82.8042 24.716L80.5002 28.22L78.2082 24.716ZM86.7357 20.6H88.7637V27.26H92.1357V29H86.7357V20.6ZM99.4475 26.312C99.4475 26.808 99.3475 27.236 99.1475 27.596C98.9555 27.956 98.6915 28.252 98.3555 28.484C98.0275 28.716 97.6635 28.888 97.2635 29C96.8715 29.104 96.4715 29.156 96.0635 29.156C95.5515 29.156 95.0875 29.104 94.6715 29C94.2555 28.904 93.8875 28.776 93.5675 28.616C93.2475 28.448 92.9555 28.264 92.6915 28.064L93.4835 26.396C93.7155 26.588 93.9515 26.752 94.1915 26.888C94.4395 27.016 94.6875 27.12 94.9355 27.2C95.1835 27.272 95.4075 27.308 95.6075 27.308C95.9515 27.308 96.2435 27.264 96.4835 27.176C96.7235 27.088 96.9075 26.952 97.0355 26.768C97.1635 26.584 97.2275 26.36 97.2275 26.096C97.2275 25.816 97.1475 25.592 96.9875 25.424C96.8355 25.248 96.6355 25.12 96.3875 25.04C96.1475 24.96 95.8875 24.92 95.6075 24.92C95.3915 24.92 95.1515 24.936 94.8875 24.968C94.6315 24.992 94.3635 25.044 94.0835 25.124C93.8115 25.196 93.5315 25.304 93.2435 25.448L94.4195 20.6H99.2675V22.352H95.9075L95.4275 23.852C95.6515 23.748 95.8835 23.676 96.1235 23.636C96.3715 23.588 96.6275 23.564 96.8915 23.564C97.3395 23.564 97.7555 23.672 98.1395 23.888C98.5315 24.104 98.8475 24.416 99.0875 24.824C99.3275 25.232 99.4475 25.728 99.4475 26.312Z" fill="white"/>
</svg>
