<svg width="128" height="49" viewBox="0 0 128 49" fill="none" xmlns="http://www.w3.org/2000/svg">
<rect width="128" height="49" rx="10" fill="#898AA6"/>
<rect x="12" y="6" width="37" height="37" rx="18.5" fill="white"/>
<path d="M20.231 14.231H40.769V34.7692H20.231V14.231Z" fill="#F0DB4F"/>
<path d="M39.0882 29.8708C38.9377 28.9338 38.3268 28.1468 36.517 27.4129C35.8883 27.124 35.1874 26.9171 34.9786 26.4407C34.9044 26.1634 34.8946 26.0072 34.9415 25.8394C35.0762 25.2947 35.7264 25.1249 36.2417 25.2811C36.5736 25.3923 36.8878 25.6481 37.0773 26.0561C37.9635 25.4822 37.9617 25.486 38.5806 25.0916C38.354 24.7404 38.2331 24.5783 38.0848 24.428C37.5517 23.8326 36.8254 23.526 35.6639 23.5494L35.0588 23.6277C34.479 23.7742 33.9265 24.0785 33.6024 24.4865C32.6302 25.5897 32.9075 27.5204 34.0905 28.3149C35.256 29.1897 36.9682 29.3887 37.1869 30.2068C37.3997 31.2082 36.4509 31.5324 35.5079 31.4172C34.8129 31.2727 34.4264 30.9194 34.0085 30.2771C33.2394 30.7222 33.2394 30.7222 32.4486 31.177C32.6361 31.587 32.8331 31.7726 33.1475 32.1278C34.6352 33.6368 38.3581 33.5627 39.0258 31.2786C39.0529 31.2002 39.2327 30.6771 39.0882 29.8708V29.8708ZM31.3961 23.6703H29.4751L29.4672 28.6368C29.4672 29.6931 29.5219 30.6614 29.3501 30.9582C29.0691 31.5419 28.3408 31.4695 28.0089 31.3563C27.6711 31.1903 27.4993 30.9542 27.3003 30.6205C27.2457 30.5247 27.2047 30.4505 27.1909 30.4448L25.629 31.4013C25.8887 31.9343 26.2713 32.397 26.7614 32.6975C27.4934 33.1369 28.4773 33.2716 29.5063 33.0354C30.176 32.8403 30.7538 32.4362 31.0563 31.8211C31.4937 31.0148 31.3999 30.0388 31.396 28.9592C31.4058 27.198 31.3961 25.4371 31.3961 23.6703V23.6703Z" fill="#323330"/>
<path d="M58.136 29.768C58.256 29.872 58.404 29.96 58.58 30.032C58.756 30.112 58.932 30.152 59.108 30.152C59.292 30.152 59.468 30.08 59.636 29.936C59.804 29.792 59.888 29.544 59.888 29.192V20.6H62.072V29.648C62.072 30.048 62 30.388 61.856 30.668C61.712 30.956 61.512 31.184 61.256 31.352C61 31.528 60.704 31.656 60.368 31.736C60.032 31.824 59.68 31.868 59.312 31.868C59 31.868 58.7 31.832 58.412 31.76C58.124 31.688 57.864 31.6 57.632 31.496C57.4 31.4 57.2 31.296 57.032 31.184L58.136 29.768ZM65.0729 27.272C65.0729 27.416 65.1089 27.54 65.1809 27.644C65.2529 27.74 65.3489 27.816 65.4689 27.872C65.5889 27.92 65.7209 27.944 65.8649 27.944C66.0729 27.944 66.2649 27.9 66.4409 27.812C66.6169 27.724 66.7609 27.592 66.8729 27.416C66.9849 27.24 67.0409 27.024 67.0409 26.768L67.2329 27.488C67.2329 27.84 67.1369 28.14 66.9449 28.388C66.7529 28.628 66.5049 28.812 66.2009 28.94C65.8969 29.06 65.5689 29.12 65.2169 29.12C64.8649 29.12 64.5369 29.056 64.2329 28.928C63.9369 28.792 63.6969 28.592 63.5129 28.328C63.3369 28.064 63.2489 27.744 63.2489 27.368C63.2489 26.84 63.4369 26.424 63.8129 26.12C64.1889 25.808 64.7209 25.652 65.4089 25.652C65.7449 25.652 66.0449 25.684 66.3089 25.748C66.5809 25.812 66.8129 25.892 67.0049 25.988C67.1969 26.084 67.3409 26.184 67.4369 26.288V27.092C67.2449 26.948 67.0209 26.84 66.7649 26.768C66.5169 26.688 66.2529 26.648 65.9729 26.648C65.7569 26.648 65.5849 26.672 65.4569 26.72C65.3289 26.768 65.2329 26.84 65.1689 26.936C65.1049 27.024 65.0729 27.136 65.0729 27.272ZM64.2689 25.172L63.6569 23.96C63.9689 23.808 64.3449 23.664 64.7849 23.528C65.2249 23.392 65.7049 23.324 66.2249 23.324C66.7129 23.324 67.1489 23.396 67.5329 23.54C67.9169 23.676 68.2209 23.876 68.4449 24.14C68.6689 24.404 68.7809 24.728 68.7809 25.112V29H67.0409V25.52C67.0409 25.384 67.0169 25.268 66.9689 25.172C66.9289 25.068 66.8649 24.98 66.7769 24.908C66.6889 24.836 66.5769 24.784 66.4409 24.752C66.3129 24.72 66.1649 24.704 65.9969 24.704C65.7489 24.704 65.5049 24.732 65.2649 24.788C65.0329 24.844 64.8289 24.912 64.6529 24.992C64.4769 25.064 64.3489 25.124 64.2689 25.172ZM69.3351 23.48H71.2671L72.5391 26.54L73.7991 23.48H75.7311L72.5391 29.648L69.3351 23.48ZM77.8112 27.272C77.8112 27.416 77.8472 27.54 77.9192 27.644C77.9912 27.74 78.0872 27.816 78.2072 27.872C78.3272 27.92 78.4592 27.944 78.6032 27.944C78.8112 27.944 79.0032 27.9 79.1792 27.812C79.3552 27.724 79.4992 27.592 79.6112 27.416C79.7232 27.24 79.7792 27.024 79.7792 26.768L79.9712 27.488C79.9712 27.84 79.8752 28.14 79.6832 28.388C79.4912 28.628 79.2432 28.812 78.9392 28.94C78.6352 29.06 78.3072 29.12 77.9552 29.12C77.6032 29.12 77.2752 29.056 76.9712 28.928C76.6752 28.792 76.4352 28.592 76.2512 28.328C76.0752 28.064 75.9872 27.744 75.9872 27.368C75.9872 26.84 76.1752 26.424 76.5512 26.12C76.9272 25.808 77.4592 25.652 78.1472 25.652C78.4832 25.652 78.7832 25.684 79.0472 25.748C79.3192 25.812 79.5512 25.892 79.7432 25.988C79.9352 26.084 80.0792 26.184 80.1752 26.288V27.092C79.9832 26.948 79.7592 26.84 79.5032 26.768C79.2552 26.688 78.9912 26.648 78.7112 26.648C78.4952 26.648 78.3232 26.672 78.1952 26.72C78.0672 26.768 77.9712 26.84 77.9072 26.936C77.8432 27.024 77.8112 27.136 77.8112 27.272ZM77.0072 25.172L76.3952 23.96C76.7072 23.808 77.0832 23.664 77.5232 23.528C77.9632 23.392 78.4432 23.324 78.9632 23.324C79.4512 23.324 79.8872 23.396 80.2712 23.54C80.6552 23.676 80.9592 23.876 81.1832 24.14C81.4072 24.404 81.5192 24.728 81.5192 25.112V29H79.7792V25.52C79.7792 25.384 79.7552 25.268 79.7072 25.172C79.6672 25.068 79.6032 24.98 79.5152 24.908C79.4272 24.836 79.3152 24.784 79.1792 24.752C79.0512 24.72 78.9032 24.704 78.7352 24.704C78.4872 24.704 78.2432 24.732 78.0032 24.788C77.7712 24.844 77.5672 24.912 77.3912 24.992C77.2152 25.064 77.0872 25.124 77.0072 25.172ZM83.98 26.048C84.148 26.352 84.336 26.616 84.544 26.84C84.76 27.064 84.992 27.236 85.24 27.356C85.496 27.476 85.764 27.536 86.044 27.536C86.34 27.536 86.584 27.464 86.776 27.32C86.968 27.168 87.064 26.964 87.064 26.708C87.064 26.492 87.008 26.32 86.896 26.192C86.784 26.056 86.604 25.928 86.356 25.808C86.108 25.688 85.78 25.552 85.372 25.4C85.172 25.328 84.94 25.228 84.676 25.1C84.42 24.972 84.176 24.808 83.944 24.608C83.712 24.4 83.52 24.152 83.368 23.864C83.216 23.568 83.14 23.212 83.14 22.796C83.14 22.3 83.268 21.872 83.524 21.512C83.788 21.152 84.14 20.88 84.58 20.696C85.028 20.504 85.524 20.408 86.068 20.408C86.628 20.408 87.112 20.5 87.52 20.684C87.936 20.868 88.28 21.1 88.552 21.38C88.824 21.66 89.032 21.944 89.176 22.232L87.628 23.096C87.508 22.896 87.368 22.724 87.208 22.58C87.056 22.428 86.884 22.312 86.692 22.232C86.508 22.144 86.308 22.1 86.092 22.1C85.804 22.1 85.584 22.164 85.432 22.292C85.28 22.412 85.204 22.564 85.204 22.748C85.204 22.94 85.276 23.108 85.42 23.252C85.572 23.396 85.784 23.528 86.056 23.648C86.336 23.768 86.672 23.896 87.064 24.032C87.36 24.144 87.636 24.276 87.892 24.428C88.148 24.572 88.372 24.748 88.564 24.956C88.764 25.164 88.92 25.404 89.032 25.676C89.144 25.948 89.2 26.26 89.2 26.612C89.2 27.036 89.112 27.416 88.936 27.752C88.768 28.08 88.536 28.356 88.24 28.58C87.952 28.804 87.62 28.972 87.244 29.084C86.876 29.204 86.496 29.264 86.104 29.264C85.56 29.264 85.052 29.168 84.58 28.976C84.116 28.776 83.712 28.508 83.368 28.172C83.024 27.836 82.756 27.468 82.564 27.068L83.98 26.048ZM91.9 26.24C91.9 26.536 91.964 26.792 92.092 27.008C92.22 27.216 92.396 27.38 92.62 27.5C92.852 27.62 93.1 27.68 93.364 27.68C93.588 27.68 93.8 27.648 94 27.584C94.208 27.512 94.396 27.416 94.564 27.296C94.74 27.176 94.884 27.028 94.996 26.852V28.616C94.804 28.768 94.564 28.892 94.276 28.988C93.988 29.076 93.636 29.12 93.22 29.12C92.612 29.12 92.064 29 91.576 28.76C91.096 28.52 90.716 28.184 90.436 27.752C90.164 27.32 90.028 26.816 90.028 26.24C90.028 25.656 90.164 25.152 90.436 24.728C90.716 24.296 91.096 23.96 91.576 23.72C92.064 23.48 92.612 23.36 93.22 23.36C93.636 23.36 93.988 23.408 94.276 23.504C94.564 23.592 94.804 23.704 94.996 23.84V25.616C94.884 25.44 94.736 25.292 94.552 25.172C94.376 25.052 94.184 24.96 93.976 24.896C93.768 24.832 93.564 24.8 93.364 24.8C93.1 24.8 92.852 24.864 92.62 24.992C92.396 25.12 92.22 25.292 92.092 25.508C91.964 25.724 91.9 25.968 91.9 26.24ZM98.0937 23.48V29H96.3057V23.48H98.0937ZM99.6897 25.352C99.5937 25.256 99.4897 25.18 99.3777 25.124C99.2737 25.068 99.1417 25.04 98.9817 25.04C98.8057 25.04 98.6497 25.088 98.5137 25.184C98.3777 25.28 98.2737 25.42 98.2017 25.604C98.1297 25.788 98.0937 26.012 98.0937 26.276L97.6617 25.64C97.6617 25.2 97.7457 24.808 97.9137 24.464C98.0897 24.12 98.3177 23.848 98.5977 23.648C98.8777 23.448 99.1697 23.348 99.4737 23.348C99.6737 23.348 99.8657 23.388 100.05 23.468C100.234 23.548 100.374 23.66 100.47 23.804L99.6897 25.352ZM101.131 21.404C101.131 21.116 101.235 20.884 101.443 20.708C101.651 20.524 101.899 20.432 102.187 20.432C102.483 20.432 102.731 20.524 102.931 20.708C103.139 20.884 103.243 21.116 103.243 21.404C103.243 21.692 103.139 21.928 102.931 22.112C102.731 22.296 102.483 22.388 102.187 22.388C101.899 22.388 101.651 22.296 101.443 22.112C101.235 21.928 101.131 21.692 101.131 21.404ZM101.311 23.48H103.063V29H101.311V23.48ZM106.356 31.64H104.544V23.48H106.356V31.64ZM110.868 26.24C110.868 26.88 110.74 27.42 110.484 27.86C110.236 28.3 109.912 28.632 109.512 28.856C109.12 29.08 108.696 29.192 108.24 29.192C107.76 29.192 107.344 29.072 106.992 28.832C106.648 28.584 106.384 28.24 106.2 27.8C106.016 27.352 105.924 26.832 105.924 26.24C105.924 25.64 106.016 25.12 106.2 24.68C106.384 24.24 106.648 23.9 106.992 23.66C107.344 23.412 107.76 23.288 108.24 23.288C108.696 23.288 109.12 23.4 109.512 23.624C109.912 23.848 110.236 24.18 110.484 24.62C110.74 25.052 110.868 25.592 110.868 26.24ZM108.96 26.24C108.96 25.952 108.9 25.708 108.78 25.508C108.66 25.308 108.5 25.156 108.3 25.052C108.1 24.948 107.88 24.896 107.64 24.896C107.432 24.896 107.228 24.948 107.028 25.052C106.836 25.148 106.676 25.296 106.548 25.496C106.42 25.696 106.356 25.944 106.356 26.24C106.356 26.536 106.42 26.784 106.548 26.984C106.676 27.184 106.836 27.336 107.028 27.44C107.228 27.536 107.432 27.584 107.64 27.584C107.88 27.584 108.1 27.532 108.3 27.428C108.5 27.324 108.66 27.172 108.78 26.972C108.9 26.772 108.96 26.528 108.96 26.24ZM111.314 23.48H115.01V24.98H111.314V23.48ZM112.286 21.56H114.026V29H112.286V21.56Z" fill="white"/>
</svg>
