<svg width="132" height="44" viewBox="0 0 132 44" fill="none" xmlns="http://www.w3.org/2000/svg">
<rect width="132" height="44" rx="10" fill="#898AA6"/>
<rect x="8" y="4" width="36" height="36" rx="18" fill="white"/>
<g clip-path="url(#clip0_5_143)">
<path d="M16 12H36V32H16V12Z" fill="#FFDF00"/>
<path d="M29.4349 27.6251C29.8378 28.2828 30.3619 28.7663 31.2889 28.7663C32.0676 28.7663 32.5651 28.3771 32.5651 27.8393C32.5651 27.1949 32.054 26.9666 31.1968 26.5917L30.727 26.3901C29.3708 25.8123 28.4698 25.0885 28.4698 23.5583C28.4698 22.1488 29.5438 21.0758 31.2222 21.0758C32.4172 21.0758 33.2762 21.4917 33.8952 22.5806L32.4318 23.5203C32.1095 22.9425 31.7619 22.7149 31.2222 22.7149C30.6718 22.7149 30.3229 23.0641 30.3229 23.5203C30.3229 24.0841 30.6721 24.3123 31.4784 24.6615L31.9482 24.8628C33.5451 25.5476 34.4466 26.2456 34.4466 27.8152C34.4466 29.5072 33.1174 30.4342 31.3323 30.4342C29.587 30.4342 28.4593 29.6025 27.9076 28.5123L29.4349 27.6251ZM22.7959 27.7879C23.0911 28.3117 23.3597 28.7546 24.0054 28.7546C24.6229 28.7546 25.0124 28.513 25.0124 27.5737V21.1831H26.8918V27.599C26.8918 29.545 25.7508 30.4308 24.0854 30.4308C22.5806 30.4308 21.7092 29.652 21.266 28.7141L22.7959 27.7879Z" fill="black"/>
</g>
<path d="M58.096 17.72V23.162C58.096 23.558 58.04 23.936 57.928 24.296C57.816 24.656 57.638 24.976 57.394 25.256C57.154 25.532 56.842 25.752 56.458 25.916C56.078 26.076 55.618 26.156 55.078 26.156C54.622 26.156 54.2 26.09 53.812 25.958C53.424 25.826 53.06 25.638 52.72 25.394L53.29 24.506C53.618 24.722 53.92 24.868 54.196 24.944C54.476 25.02 54.752 25.058 55.024 25.058C55.544 25.058 55.954 24.892 56.254 24.56C56.558 24.228 56.71 23.752 56.71 23.132V18.788H54.22V17.72H58.096ZM65.1053 24.446C65.1053 24.694 65.1433 24.876 65.2193 24.992C65.2953 25.104 65.4173 25.188 65.5853 25.244L65.2853 26.156C64.9733 26.12 64.7053 26.034 64.4813 25.898C64.2573 25.762 64.0873 25.556 63.9713 25.28C63.7393 25.572 63.4453 25.792 63.0893 25.94C62.7333 26.088 62.3533 26.162 61.9493 26.162C61.3093 26.162 60.8013 25.982 60.4253 25.622C60.0533 25.258 59.8673 24.782 59.8673 24.194C59.8673 23.526 60.1273 23.012 60.6473 22.652C61.1673 22.292 61.9113 22.112 62.8793 22.112H63.7853V21.698C63.7853 21.29 63.6613 20.996 63.4133 20.816C63.1693 20.636 62.8233 20.546 62.3753 20.546C62.1673 20.546 61.9153 20.574 61.6193 20.63C61.3233 20.682 61.0133 20.764 60.6893 20.876L60.3593 19.928C60.7553 19.78 61.1433 19.672 61.5233 19.604C61.9033 19.532 62.2553 19.496 62.5793 19.496C63.4273 19.496 64.0593 19.684 64.4753 20.06C64.8953 20.436 65.1053 20.956 65.1053 21.62V24.446ZM62.3573 25.172C62.6293 25.172 62.8953 25.1 63.1553 24.956C63.4153 24.812 63.6253 24.61 63.7853 24.35V22.952H63.0413C62.4093 22.952 61.9573 23.058 61.6853 23.27C61.4133 23.478 61.2773 23.766 61.2773 24.134C61.2773 24.47 61.3673 24.728 61.5473 24.908C61.7313 25.084 62.0013 25.172 62.3573 25.172ZM73.0086 19.664L70.7766 26H69.2046L66.9726 19.664H68.4126L70.0206 24.884L71.6346 19.664H73.0086ZM79.4959 24.446C79.4959 24.694 79.5339 24.876 79.6099 24.992C79.6859 25.104 79.8079 25.188 79.9759 25.244L79.6759 26.156C79.3639 26.12 79.0959 26.034 78.8719 25.898C78.6479 25.762 78.4779 25.556 78.3619 25.28C78.1299 25.572 77.8359 25.792 77.4799 25.94C77.1239 26.088 76.7439 26.162 76.3399 26.162C75.6999 26.162 75.1919 25.982 74.8159 25.622C74.4439 25.258 74.2579 24.782 74.2579 24.194C74.2579 23.526 74.5179 23.012 75.0379 22.652C75.5579 22.292 76.3019 22.112 77.2699 22.112H78.1759V21.698C78.1759 21.29 78.0519 20.996 77.8039 20.816C77.5599 20.636 77.2139 20.546 76.7659 20.546C76.5579 20.546 76.3059 20.574 76.0099 20.63C75.7139 20.682 75.4039 20.764 75.0799 20.876L74.7499 19.928C75.1459 19.78 75.5339 19.672 75.9139 19.604C76.2939 19.532 76.6459 19.496 76.9699 19.496C77.8179 19.496 78.4499 19.684 78.8659 20.06C79.2859 20.436 79.4959 20.956 79.4959 21.62V24.446ZM76.7479 25.172C77.0199 25.172 77.2859 25.1 77.5459 24.956C77.8059 24.812 78.0159 24.61 78.1759 24.35V22.952H77.4319C76.7999 22.952 76.3479 23.058 76.0759 23.27C75.8039 23.478 75.6679 23.766 75.6679 24.134C75.6679 24.47 75.7579 24.728 75.9379 24.908C76.1219 25.084 76.3919 25.172 76.7479 25.172ZM87.3633 23.66C87.3633 24.148 87.2373 24.582 86.9853 24.962C86.7373 25.338 86.3773 25.632 85.9053 25.844C85.4373 26.056 84.8713 26.162 84.2073 26.162C83.5353 26.162 82.9453 26.062 82.4373 25.862C81.9333 25.658 81.5073 25.388 81.1593 25.052L81.9213 24.2C82.2173 24.468 82.5513 24.68 82.9233 24.836C83.2953 24.988 83.7213 25.064 84.2013 25.064C84.5133 25.064 84.7993 25.016 85.0593 24.92C85.3193 24.82 85.5273 24.672 85.6833 24.476C85.8393 24.276 85.9173 24.026 85.9173 23.726C85.9173 23.482 85.8673 23.276 85.7673 23.108C85.6673 22.94 85.4933 22.788 85.2453 22.652C85.0013 22.516 84.6593 22.384 84.2193 22.256C83.6353 22.08 83.1453 21.884 82.7493 21.668C82.3533 21.452 82.0533 21.194 81.8493 20.894C81.6493 20.59 81.5493 20.222 81.5493 19.79C81.5493 19.342 81.6713 18.95 81.9153 18.614C82.1633 18.278 82.5013 18.018 82.9293 17.834C83.3613 17.646 83.8493 17.552 84.3933 17.552C84.9933 17.552 85.5173 17.638 85.9653 17.81C86.4133 17.982 86.8133 18.228 87.1653 18.548L86.4333 19.376C86.1413 19.12 85.8273 18.934 85.4913 18.818C85.1593 18.702 84.8213 18.644 84.4773 18.644C84.1973 18.644 83.9433 18.684 83.7153 18.764C83.4873 18.844 83.3073 18.962 83.1753 19.118C83.0433 19.274 82.9773 19.472 82.9773 19.712C82.9773 19.924 83.0353 20.106 83.1513 20.258C83.2713 20.41 83.4713 20.552 83.7513 20.684C84.0353 20.812 84.4233 20.95 84.9153 21.098C85.3793 21.234 85.7953 21.402 86.1633 21.602C86.5353 21.802 86.8273 22.064 87.0393 22.388C87.2553 22.712 87.3633 23.136 87.3633 23.66ZM92.0986 25.058C92.3946 25.058 92.6706 25.008 92.9266 24.908C93.1826 24.804 93.4266 24.67 93.6586 24.506L94.2826 25.37C94.0066 25.606 93.6706 25.798 93.2746 25.946C92.8826 26.09 92.4766 26.162 92.0566 26.162C91.4086 26.162 90.8546 26.026 90.3946 25.754C89.9346 25.478 89.5826 25.092 89.3386 24.596C89.0946 24.1 88.9726 23.522 88.9726 22.862C88.9726 22.218 89.0946 21.644 89.3386 21.14C89.5866 20.632 89.9426 20.232 90.4066 19.94C90.8706 19.644 91.4286 19.496 92.0806 19.496C92.5126 19.496 92.9106 19.56 93.2746 19.688C93.6386 19.816 93.9726 20.006 94.2766 20.258L93.6586 21.104C93.4106 20.932 93.1566 20.802 92.8966 20.714C92.6406 20.622 92.3766 20.576 92.1046 20.576C91.6046 20.576 91.1946 20.76 90.8746 21.128C90.5586 21.496 90.4006 22.074 90.4006 22.862C90.4006 23.39 90.4726 23.816 90.6166 24.14C90.7646 24.46 90.9666 24.694 91.2226 24.842C91.4786 24.986 91.7706 25.058 92.0986 25.058ZM96.2999 26V25.04H97.2299V20.618H96.2999V19.664H98.2559L98.5019 21.134C98.7379 20.602 99.0299 20.198 99.3779 19.922C99.7299 19.642 100.182 19.502 100.734 19.502C100.922 19.502 101.09 19.518 101.238 19.55C101.39 19.578 101.54 19.616 101.688 19.664L101.286 20.816C101.158 20.78 101.038 20.754 100.926 20.738C100.814 20.718 100.69 20.708 100.554 20.708C100.094 20.708 99.6959 20.88 99.3599 21.224C99.0279 21.568 98.7659 22.056 98.5739 22.688V25.04H99.8519V26H96.2999ZM100.5 21.998V20.438L100.668 19.664H101.688L101.46 21.998H100.5ZM106.897 19.664V25.016H108.619V26H103.657V25.016H105.553V20.648H103.717V19.664H106.897ZM105.961 16.562C106.225 16.562 106.437 16.642 106.597 16.802C106.761 16.962 106.843 17.162 106.843 17.402C106.843 17.642 106.761 17.844 106.597 18.008C106.437 18.172 106.225 18.254 105.961 18.254C105.705 18.254 105.495 18.172 105.331 18.008C105.167 17.844 105.085 17.642 105.085 17.402C105.085 17.162 105.167 16.962 105.331 16.802C105.495 16.642 105.705 16.562 105.961 16.562ZM113.721 19.496C114.281 19.496 114.729 19.634 115.065 19.91C115.401 20.182 115.645 20.568 115.797 21.068C115.949 21.564 116.025 22.148 116.025 22.82C116.025 23.464 115.933 24.038 115.749 24.542C115.565 25.046 115.291 25.442 114.927 25.73C114.567 26.018 114.119 26.162 113.583 26.162C112.919 26.162 112.383 25.928 111.975 25.46V28.436L110.631 28.586V19.664H111.801L111.885 20.48C112.125 20.152 112.403 19.906 112.719 19.742C113.039 19.578 113.373 19.496 113.721 19.496ZM113.349 20.534C113.049 20.534 112.785 20.624 112.557 20.804C112.329 20.984 112.135 21.196 111.975 21.44V24.404C112.127 24.632 112.307 24.808 112.515 24.932C112.727 25.052 112.965 25.112 113.229 25.112C113.681 25.112 114.025 24.93 114.261 24.566C114.497 24.202 114.615 23.622 114.615 22.826C114.615 22.286 114.567 21.848 114.471 21.512C114.379 21.172 114.239 20.924 114.051 20.768C113.867 20.612 113.633 20.534 113.349 20.534ZM123.118 25.664C122.886 25.812 122.608 25.932 122.284 26.024C121.96 26.116 121.622 26.162 121.27 26.162C120.534 26.162 119.974 25.972 119.59 25.592C119.21 25.208 119.02 24.704 119.02 24.08V20.642H117.61V19.664H119.02V18.248L120.364 18.086V19.664H122.5L122.35 20.642H120.364V24.068C120.364 24.408 120.448 24.662 120.616 24.83C120.788 24.994 121.068 25.076 121.456 25.076C121.688 25.076 121.902 25.048 122.098 24.992C122.294 24.936 122.472 24.864 122.632 24.776L123.118 25.664Z" fill="white"/>
<defs>
<clipPath id="clip0_5_143">
<rect width="20" height="20" fill="white" transform="translate(16 12)"/>
</clipPath>
</defs>
</svg>
