<svg width="140" height="44" viewBox="0 0 140 44" fill="none" xmlns="http://www.w3.org/2000/svg">
<rect width="140" height="44" rx="10" fill="#898AA6"/>
<rect x="8" y="4" width="36" height="36" rx="18" fill="white"/>
<g clip-path="url(#clip0_5_131)">
<path d="M35.6267 16.5631C35.6339 16.5896 35.6375 16.6169 35.6376 16.6444V20.9112C35.6376 20.966 35.6231 21.0198 35.5957 21.0671C35.5682 21.1145 35.5288 21.1538 35.4813 21.1811L31.9 23.2429V27.3297C31.9 27.4409 31.8409 27.5436 31.7445 27.5996L24.269 31.903C24.2519 31.9127 24.2332 31.9189 24.2146 31.9255C24.2076 31.9279 24.2009 31.9321 24.1936 31.9341C24.1413 31.9479 24.0864 31.9479 24.0341 31.9341C24.0256 31.9318 24.0178 31.9271 24.0096 31.924C23.9925 31.9178 23.9746 31.9123 23.9583 31.903L16.4843 27.5996C16.4369 27.5723 16.3974 27.533 16.37 27.4856C16.3425 27.4382 16.328 27.3845 16.328 27.3297V14.5292C16.328 14.5012 16.3319 14.474 16.3389 14.4476C16.3412 14.4386 16.3467 14.4305 16.3498 14.4215C16.3556 14.4052 16.3611 14.3885 16.3696 14.3733C16.3754 14.3632 16.384 14.355 16.391 14.3457C16.3999 14.3332 16.4081 14.3204 16.4186 14.3095C16.4276 14.3006 16.4392 14.294 16.4493 14.2862C16.4606 14.2769 16.4707 14.2667 16.4836 14.2594L20.2211 12.1077C20.2684 12.0804 20.3221 12.0661 20.3767 12.0661C20.4313 12.0661 20.4849 12.0804 20.5322 12.1077L24.2694 14.2594H24.2702C24.2826 14.2671 24.2931 14.2769 24.3044 14.2858C24.3145 14.2936 24.3258 14.3006 24.3347 14.3091C24.3456 14.3204 24.3534 14.3332 24.3627 14.3457C24.3693 14.355 24.3783 14.3632 24.3837 14.3733C24.3927 14.3888 24.3977 14.4052 24.4039 14.4215C24.407 14.4305 24.4125 14.4386 24.4148 14.448C24.422 14.4745 24.4256 14.5018 24.4257 14.5292V22.5243L27.5399 20.7311V16.644C27.5399 16.6168 27.5438 16.5892 27.5508 16.5631C27.5535 16.5538 27.5586 16.5456 27.5617 16.5367C27.5679 16.5203 27.5733 16.5036 27.5819 16.4884C27.5877 16.4783 27.5963 16.4702 27.6029 16.4608C27.6122 16.4484 27.62 16.4355 27.6309 16.4247C27.6398 16.4157 27.6511 16.4091 27.6612 16.4013C27.6729 16.392 27.683 16.3819 27.6954 16.3745L31.4334 14.2228C31.4807 14.1955 31.5343 14.1812 31.5889 14.1812C31.6435 14.1812 31.6972 14.1955 31.7445 14.2228L35.4817 16.3745C35.4949 16.3823 35.505 16.392 35.5167 16.4009C35.5264 16.4087 35.5377 16.4157 35.5466 16.4243C35.5575 16.4355 35.5653 16.4484 35.5746 16.4608C35.5816 16.4702 35.5902 16.4783 35.5956 16.4884C35.6045 16.5036 35.6096 16.5203 35.6158 16.5367C35.6193 16.5456 35.6244 16.5538 35.6267 16.5631ZM35.0146 20.7311V17.183L33.7068 17.9359L31.9 18.9761V22.5243L35.015 20.7311H35.0146ZM31.2774 27.1497V23.5992L29.5003 24.6141L24.4253 27.5105V31.0945L31.2774 27.1497ZM16.951 15.0678V27.1497L23.8023 31.0941V27.5109L20.2231 25.4852L20.2219 25.4845L20.2203 25.4837C20.2083 25.4767 20.1982 25.4666 20.1869 25.458C20.1772 25.4502 20.1659 25.444 20.1573 25.4355L20.1566 25.4343C20.1464 25.4246 20.1394 25.4125 20.1309 25.4016C20.1231 25.3911 20.1138 25.3822 20.1076 25.3713L20.1072 25.3701C20.1002 25.3585 20.0959 25.3445 20.0908 25.3312C20.0858 25.3196 20.0792 25.3087 20.0761 25.2962C20.0722 25.2815 20.0714 25.2655 20.0698 25.2504C20.0683 25.2387 20.0652 25.227 20.0652 25.2154V16.861L18.2588 15.8203L16.951 15.0678ZM20.3771 12.7369L17.2633 14.5292L20.3763 16.3216L23.4897 14.5288L20.3763 12.7369H20.3771ZM21.9964 23.9227L23.8027 22.8828V15.0678L22.4949 15.8207L20.6882 16.861V24.676L21.9964 23.9227ZM31.5889 14.852L28.4755 16.6444L31.5889 18.4367L34.7019 16.644L31.5889 14.852ZM31.2774 18.9761L29.4707 17.9359L28.1629 17.183V20.7311L29.9692 21.771L31.2774 22.5243V18.9761ZM24.1134 26.9719L28.6801 24.3649L30.9628 23.0621L27.8518 21.2709L24.2698 23.3332L21.0051 25.2126L24.1134 26.9719Z" fill="#FF2D20"/>
</g>
<path d="M53.434 26V17.72H54.826V24.836H58.534L58.384 26H53.434ZM65.1053 24.446C65.1053 24.694 65.1433 24.876 65.2193 24.992C65.2953 25.104 65.4173 25.188 65.5853 25.244L65.2853 26.156C64.9733 26.12 64.7053 26.034 64.4813 25.898C64.2573 25.762 64.0873 25.556 63.9713 25.28C63.7393 25.572 63.4453 25.792 63.0893 25.94C62.7333 26.088 62.3533 26.162 61.9493 26.162C61.3093 26.162 60.8013 25.982 60.4253 25.622C60.0533 25.258 59.8673 24.782 59.8673 24.194C59.8673 23.526 60.1273 23.012 60.6473 22.652C61.1673 22.292 61.9113 22.112 62.8793 22.112H63.7853V21.698C63.7853 21.29 63.6613 20.996 63.4133 20.816C63.1693 20.636 62.8233 20.546 62.3753 20.546C62.1673 20.546 61.9153 20.574 61.6193 20.63C61.3233 20.682 61.0133 20.764 60.6893 20.876L60.3593 19.928C60.7553 19.78 61.1433 19.672 61.5233 19.604C61.9033 19.532 62.2553 19.496 62.5793 19.496C63.4273 19.496 64.0593 19.684 64.4753 20.06C64.8953 20.436 65.1053 20.956 65.1053 21.62V24.446ZM62.3573 25.172C62.6293 25.172 62.8953 25.1 63.1553 24.956C63.4153 24.812 63.6253 24.61 63.7853 24.35V22.952H63.0413C62.4093 22.952 61.9573 23.058 61.6853 23.27C61.4133 23.478 61.2773 23.766 61.2773 24.134C61.2773 24.47 61.3673 24.728 61.5473 24.908C61.7313 25.084 62.0013 25.172 62.3573 25.172ZM67.5186 26V25.04H68.4486V20.618H67.5186V19.664H69.4746L69.7206 21.134C69.9566 20.602 70.2486 20.198 70.5966 19.922C70.9486 19.642 71.4006 19.502 71.9526 19.502C72.1406 19.502 72.3086 19.518 72.4566 19.55C72.6086 19.578 72.7586 19.616 72.9066 19.664L72.5046 20.816C72.3766 20.78 72.2566 20.754 72.1446 20.738C72.0326 20.718 71.9086 20.708 71.7726 20.708C71.3126 20.708 70.9146 20.88 70.5786 21.224C70.2466 21.568 69.9846 22.056 69.7926 22.688V25.04H71.0706V26H67.5186ZM71.7186 21.998V20.438L71.8866 19.664H72.9066L72.6786 21.998H71.7186ZM79.4959 24.446C79.4959 24.694 79.5339 24.876 79.6099 24.992C79.6859 25.104 79.8079 25.188 79.9759 25.244L79.6759 26.156C79.3639 26.12 79.0959 26.034 78.8719 25.898C78.6479 25.762 78.4779 25.556 78.3619 25.28C78.1299 25.572 77.8359 25.792 77.4799 25.94C77.1239 26.088 76.7439 26.162 76.3399 26.162C75.6999 26.162 75.1919 25.982 74.8159 25.622C74.4439 25.258 74.2579 24.782 74.2579 24.194C74.2579 23.526 74.5179 23.012 75.0379 22.652C75.5579 22.292 76.3019 22.112 77.2699 22.112H78.1759V21.698C78.1759 21.29 78.0519 20.996 77.8039 20.816C77.5599 20.636 77.2139 20.546 76.7659 20.546C76.5579 20.546 76.3059 20.574 76.0099 20.63C75.7139 20.682 75.4039 20.764 75.0799 20.876L74.7499 19.928C75.1459 19.78 75.5339 19.672 75.9139 19.604C76.2939 19.532 76.6459 19.496 76.9699 19.496C77.8179 19.496 78.4499 19.684 78.8659 20.06C79.2859 20.436 79.4959 20.956 79.4959 21.62V24.446ZM76.7479 25.172C77.0199 25.172 77.2859 25.1 77.5459 24.956C77.8059 24.812 78.0159 24.61 78.1759 24.35V22.952H77.4319C76.7999 22.952 76.3479 23.058 76.0759 23.27C75.8039 23.478 75.6679 23.766 75.6679 24.134C75.6679 24.47 75.7579 24.728 75.9379 24.908C76.1219 25.084 76.3919 25.172 76.7479 25.172ZM87.3993 19.664L85.1673 26H83.5953L81.3633 19.664H82.8033L84.4113 24.884L86.0253 19.664H87.3993ZM90.1606 23.264C90.1886 23.696 90.2806 24.05 90.4366 24.326C90.5926 24.598 90.7966 24.798 91.0486 24.926C91.3046 25.054 91.5846 25.118 91.8886 25.118C92.2006 25.118 92.4886 25.07 92.7526 24.974C93.0166 24.878 93.2826 24.742 93.5506 24.566L94.1326 25.37C93.8366 25.61 93.4906 25.802 93.0946 25.946C92.6986 26.09 92.2746 26.162 91.8226 26.162C91.1666 26.162 90.6106 26.022 90.1546 25.742C89.7026 25.462 89.3586 25.072 89.1226 24.572C88.8866 24.072 88.7686 23.494 88.7686 22.838C88.7686 22.202 88.8846 21.634 89.1166 21.134C89.3486 20.63 89.6806 20.232 90.1126 19.94C90.5446 19.644 91.0606 19.496 91.6606 19.496C92.2246 19.496 92.7086 19.624 93.1126 19.88C93.5206 20.136 93.8346 20.5 94.0546 20.972C94.2786 21.44 94.3906 22.004 94.3906 22.664C94.3906 22.772 94.3866 22.88 94.3786 22.988C94.3746 23.092 94.3686 23.184 94.3606 23.264H90.1606ZM91.6726 20.492C91.2526 20.492 90.9046 20.642 90.6286 20.942C90.3566 21.242 90.1986 21.71 90.1546 22.346H93.0886C93.0766 21.75 92.9486 21.292 92.7046 20.972C92.4646 20.652 92.1206 20.492 91.6726 20.492ZM99.0239 17.12V24.272C99.0239 24.564 99.1119 24.772 99.2879 24.896C99.4679 25.016 99.6999 25.076 99.9839 25.076C100.168 25.076 100.342 25.056 100.506 25.016C100.67 24.976 100.83 24.926 100.986 24.866L101.328 25.802C101.14 25.898 100.908 25.982 100.632 26.054C100.36 26.126 100.048 26.162 99.6959 26.162C99.0599 26.162 98.5639 25.984 98.2079 25.628C97.8559 25.268 97.6799 24.776 97.6799 24.152V18.11H95.7659V17.12H99.0239ZM103.957 27.278L102.889 26.798L107.989 16.256L109.045 16.754L103.957 27.278ZM114.873 20.33C114.873 19.95 114.799 19.646 114.651 19.418C114.507 19.19 114.301 19.024 114.033 18.92C113.769 18.816 113.457 18.764 113.097 18.764H112.101V21.986H113.115C113.463 21.986 113.769 21.934 114.033 21.83C114.297 21.726 114.503 21.554 114.651 21.314C114.799 21.074 114.873 20.746 114.873 20.33ZM116.337 20.318C116.337 20.962 116.199 21.484 115.923 21.884C115.651 22.284 115.271 22.578 114.783 22.766C114.295 22.954 113.735 23.048 113.103 23.048H112.101V26H110.709V17.72H113.007C114.047 17.72 114.861 17.934 115.449 18.362C116.041 18.786 116.337 19.438 116.337 20.318ZM121.708 26V22.238H119.008V26H117.616V17.72H119.008V21.092H121.708V17.72H123.1V26H121.708ZM129.263 20.33C129.263 19.95 129.189 19.646 129.041 19.418C128.897 19.19 128.691 19.024 128.423 18.92C128.159 18.816 127.847 18.764 127.487 18.764H126.491V21.986H127.505C127.853 21.986 128.159 21.934 128.423 21.83C128.687 21.726 128.893 21.554 129.041 21.314C129.189 21.074 129.263 20.746 129.263 20.33ZM130.727 20.318C130.727 20.962 130.589 21.484 130.313 21.884C130.041 22.284 129.661 22.578 129.173 22.766C128.685 22.954 128.125 23.048 127.493 23.048H126.491V26H125.099V17.72H127.397C128.437 17.72 129.251 17.934 129.839 18.362C130.431 18.786 130.727 19.438 130.727 20.318Z" fill="white"/>
<defs>
<clipPath id="clip0_5_131">
<rect width="19.344" height="20" fill="white" transform="translate(16.328 12)"/>
</clipPath>
</defs>
</svg>
