<svg width="111" height="44" viewBox="0 0 111 44" fill="none" xmlns="http://www.w3.org/2000/svg">
<rect width="111" height="44" rx="10" fill="#898AA6"/>
<rect x="8" y="4" width="36" height="36" rx="18" fill="white"/>
<g clip-path="url(#clip0_6_194)">
<path d="M25.3458 12.0156C25.3028 12.0195 25.1661 12.0332 25.0431 12.043C22.2054 12.2988 19.5475 13.8299 17.8641 16.1832C16.9267 17.4917 16.3271 18.9759 16.1006 20.548C16.0205 21.0968 16.0107 21.2589 16.0107 22.0029C16.0107 22.747 16.0205 22.9091 16.1006 23.4579C16.6435 27.2095 19.3132 30.3615 22.9339 31.5294C23.5823 31.7383 24.2658 31.8809 25.0431 31.9668C25.3458 32 26.6542 32 26.9569 31.9668C28.2986 31.8184 29.4352 31.4864 30.5562 30.9142C30.7281 30.8263 30.7613 30.8029 30.7378 30.7833C30.7222 30.7716 29.9898 29.7893 29.111 28.6019L27.5135 26.4439L25.5118 23.4813C24.4103 21.8526 23.5042 20.5207 23.4963 20.5207C23.4885 20.5187 23.4807 21.835 23.4768 23.4423C23.471 26.2564 23.469 26.3697 23.4338 26.4361C23.3831 26.5318 23.344 26.5708 23.262 26.6138C23.1995 26.6451 23.1448 26.6509 22.8499 26.6509H22.5121L22.4222 26.5943C22.3636 26.5572 22.3207 26.5084 22.2914 26.4517L22.2504 26.3638L22.2543 22.4482L22.2601 18.5306L22.3207 18.4545C22.3519 18.4134 22.4183 18.3607 22.4652 18.3353C22.5453 18.2963 22.5765 18.2924 22.9144 18.2924C23.3128 18.2924 23.3792 18.308 23.4827 18.4213C23.512 18.4525 24.5958 20.0852 25.8926 22.0518C27.1893 24.0184 28.9626 26.7037 29.8336 28.0219L31.4155 30.4181L31.4956 30.3654C32.2045 29.9045 32.9544 29.2483 33.5481 28.5648C34.8116 27.1138 35.626 25.3444 35.8994 23.4579C35.9795 22.9091 35.9893 22.747 35.9893 22.0029C35.9893 21.2589 35.9795 21.0968 35.8994 20.548C35.3565 16.7964 32.6868 13.6444 29.0661 12.4765C28.4275 12.2695 27.7479 12.1269 26.9862 12.041C26.7988 12.0215 25.5079 12 25.3458 12.0156ZM29.4352 18.058C29.529 18.1049 29.6051 18.1947 29.6325 18.2885C29.6481 18.3392 29.652 19.4251 29.6481 21.8721L29.6422 25.3835L29.0231 24.4343L28.4021 23.4852V20.9327C28.4021 19.2825 28.4099 18.3549 28.4216 18.3099C28.4529 18.2006 28.5212 18.1146 28.615 18.0639C28.6951 18.0229 28.7243 18.019 29.031 18.019C29.32 18.019 29.3708 18.0229 29.4352 18.058Z" fill="black"/>
<path d="M31.3178 30.4611C31.2495 30.5041 31.228 30.5333 31.2885 30.5001C31.3315 30.4748 31.4018 30.422 31.3901 30.4201C31.3842 30.4201 31.351 30.4396 31.3178 30.4611ZM31.1831 30.549C31.1479 30.5763 31.1479 30.5783 31.1909 30.5568C31.2143 30.5451 31.2339 30.5314 31.2339 30.5275C31.2339 30.5119 31.2241 30.5158 31.1831 30.549ZM31.0854 30.6076C31.0503 30.6349 31.0503 30.6369 31.0932 30.6154C31.1167 30.6037 31.1362 30.59 31.1362 30.5861C31.1362 30.5705 31.1264 30.5744 31.0854 30.6076ZM30.9878 30.6661C30.9526 30.6935 30.9526 30.6954 30.9956 30.674C31.019 30.6622 31.0386 30.6486 31.0386 30.6447C31.0386 30.629 31.0288 30.6329 30.9878 30.6661ZM30.8394 30.7443C30.7651 30.7833 30.7691 30.7989 30.8433 30.7618C30.8765 30.7443 30.9019 30.7267 30.9019 30.7228C30.9019 30.7091 30.8999 30.7111 30.8394 30.7443Z" fill="black"/>
</g>
<path d="M56.53 26L53.896 18.956C53.908 19.08 53.924 19.256 53.944 19.484C53.968 19.712 53.99 19.976 54.01 20.276C54.034 20.576 54.054 20.894 54.07 21.23C54.086 21.566 54.094 21.902 54.094 22.238V26H52.858V17.72H54.664L57.304 24.77C57.284 24.602 57.258 24.356 57.226 24.032C57.198 23.704 57.17 23.324 57.142 22.892C57.118 22.456 57.106 21.99 57.106 21.494V17.72H58.342V26H56.53ZM61.3793 23.264C61.4073 23.696 61.4993 24.05 61.6553 24.326C61.8113 24.598 62.0153 24.798 62.2673 24.926C62.5233 25.054 62.8033 25.118 63.1073 25.118C63.4193 25.118 63.7073 25.07 63.9713 24.974C64.2353 24.878 64.5013 24.742 64.7693 24.566L65.3513 25.37C65.0553 25.61 64.7093 25.802 64.3133 25.946C63.9173 26.09 63.4933 26.162 63.0413 26.162C62.3853 26.162 61.8293 26.022 61.3733 25.742C60.9213 25.462 60.5773 25.072 60.3413 24.572C60.1053 24.072 59.9873 23.494 59.9873 22.838C59.9873 22.202 60.1033 21.634 60.3353 21.134C60.5673 20.63 60.8993 20.232 61.3313 19.94C61.7633 19.644 62.2793 19.496 62.8793 19.496C63.4433 19.496 63.9273 19.624 64.3313 19.88C64.7393 20.136 65.0533 20.5 65.2733 20.972C65.4973 21.44 65.6093 22.004 65.6093 22.664C65.6093 22.772 65.6053 22.88 65.5973 22.988C65.5933 23.092 65.5873 23.184 65.5793 23.264H61.3793ZM62.8913 20.492C62.4713 20.492 62.1233 20.642 61.8473 20.942C61.5753 21.242 61.4173 21.71 61.3733 22.346H64.3073C64.2953 21.75 64.1673 21.292 63.9233 20.972C63.6833 20.652 63.3393 20.492 62.8913 20.492ZM68.3946 26H66.9066L69.1806 22.658L67.1586 19.664H68.7066L70.0026 21.896L71.2986 19.664H72.7746L70.7946 22.604L73.0746 26H71.4966L69.9426 23.414L68.3946 26ZM79.9459 25.664C79.7139 25.812 79.4359 25.932 79.1119 26.024C78.7879 26.116 78.4499 26.162 78.0979 26.162C77.3619 26.162 76.8019 25.972 76.4179 25.592C76.0379 25.208 75.8479 24.704 75.8479 24.08V20.642H74.4379V19.664H75.8479V18.248L77.1919 18.086V19.664H79.3279L79.1779 20.642H77.1919V24.068C77.1919 24.408 77.2759 24.662 77.4439 24.83C77.6159 24.994 77.8959 25.076 78.2839 25.076C78.5159 25.076 78.7299 25.048 78.9259 24.992C79.1219 24.936 79.2999 24.864 79.4599 24.776L79.9459 25.664ZM83.2173 24.998C83.2173 24.782 83.2673 24.588 83.3673 24.416C83.4713 24.24 83.6113 24.1 83.7873 23.996C83.9633 23.892 84.1593 23.84 84.3753 23.84C84.5953 23.84 84.7933 23.892 84.9693 23.996C85.1453 24.1 85.2833 24.24 85.3833 24.416C85.4873 24.588 85.5393 24.782 85.5393 24.998C85.5393 25.21 85.4873 25.406 85.3833 25.586C85.2833 25.762 85.1453 25.902 84.9693 26.006C84.7933 26.11 84.5953 26.162 84.3753 26.162C84.1593 26.162 83.9633 26.11 83.7873 26.006C83.6113 25.902 83.4713 25.762 83.3673 25.586C83.2673 25.406 83.2173 25.21 83.2173 24.998ZM93.4426 19.664V24.668C93.4426 25.456 93.2786 26.11 92.9506 26.63C92.6266 27.15 92.1506 27.564 91.5226 27.872C90.8946 28.184 90.1286 28.422 89.2246 28.586L89.0086 27.554C89.6366 27.434 90.1826 27.268 90.6466 27.056C91.1106 26.844 91.4686 26.554 91.7206 26.186C91.9726 25.818 92.0986 25.342 92.0986 24.758V20.648H89.5966V19.664H93.4426ZM92.3926 16.562C92.6526 16.562 92.8646 16.642 93.0286 16.802C93.1926 16.962 93.2746 17.162 93.2746 17.402C93.2746 17.642 93.1926 17.844 93.0286 18.008C92.8646 18.172 92.6526 18.254 92.3926 18.254C92.1326 18.254 91.9206 18.172 91.7566 18.008C91.5966 17.844 91.5166 17.642 91.5166 17.402C91.5166 17.162 91.5966 16.962 91.7566 16.802C91.9206 16.642 92.1326 16.562 92.3926 16.562ZM98.5439 25.13C98.9639 25.13 99.2979 25.056 99.5459 24.908C99.7939 24.756 99.9179 24.548 99.9179 24.284C99.9179 24.112 99.8819 23.966 99.8099 23.846C99.7379 23.722 99.5939 23.61 99.3779 23.51C99.1619 23.406 98.8339 23.298 98.3939 23.186C97.9779 23.078 97.6119 22.95 97.2959 22.802C96.9839 22.654 96.7419 22.462 96.5699 22.226C96.3979 21.99 96.3119 21.686 96.3119 21.314C96.3119 20.95 96.4139 20.632 96.6179 20.36C96.8219 20.088 97.1139 19.876 97.4939 19.724C97.8779 19.572 98.3279 19.496 98.8439 19.496C99.3759 19.496 99.8399 19.566 100.236 19.706C100.632 19.846 100.97 20.02 101.25 20.228L100.686 21.074C100.438 20.91 100.166 20.776 99.8699 20.672C99.5779 20.568 99.2479 20.516 98.8799 20.516C98.4519 20.516 98.1439 20.58 97.9559 20.708C97.7719 20.836 97.6799 21.006 97.6799 21.218C97.6799 21.374 97.7259 21.506 97.8179 21.614C97.9139 21.718 98.0779 21.816 98.3099 21.908C98.5419 21.996 98.8699 22.1 99.2939 22.22C99.7059 22.332 100.064 22.464 100.368 22.616C100.676 22.768 100.914 22.97 101.082 23.222C101.254 23.47 101.34 23.794 101.34 24.194C101.34 24.65 101.208 25.024 100.944 25.316C100.684 25.604 100.34 25.818 99.9119 25.958C99.4879 26.094 99.0319 26.162 98.5439 26.162C97.9559 26.162 97.4479 26.078 97.0199 25.91C96.5919 25.738 96.2319 25.524 95.9399 25.268L96.6539 24.452C96.9019 24.652 97.1859 24.816 97.5059 24.944C97.8259 25.068 98.1719 25.13 98.5439 25.13Z" fill="white"/>
<defs>
<clipPath id="clip0_6_194">
<rect width="20" height="20" fill="white" transform="translate(16 12)"/>
</clipPath>
</defs>
</svg>
