<svg width="99" height="49" viewBox="0 0 99 49" fill="none" xmlns="http://www.w3.org/2000/svg">
<rect width="99" height="49" rx="10" fill="#898AA6"/>
<rect x="12" y="6" width="37" height="37" rx="18.5" fill="white"/>
<path d="M20.3281 20.3164H40.6719V27.4876H30.5V28.6836H25.9784V27.4876H20.3281V20.3164ZM21.4585 26.2932H23.7193V22.7068H24.8497V26.2932H25.9801V21.5124H21.4585V26.2932ZM27.1088 21.5124V27.4876H29.3696V26.2932H31.6304V21.5124H27.1088ZM29.3696 22.7084H30.5V25.0972H29.3696V22.7084ZM32.7608 21.5124V26.2932H35.0216V22.7068H36.152V26.2932H37.2823V22.7068H38.4127V26.2932H39.5431V21.5124H32.7608Z" fill="#CB3837"/>
<path d="M65.684 20.6H67.64V29.42L61.832 24.272V29H59.888V20.18L65.684 25.328V20.6ZM69.4153 20.6H71.4433V29H69.4153V20.6ZM70.6873 22.268V20.6H72.3313C73.0433 20.6 73.6393 20.712 74.1193 20.936C74.6073 21.152 74.9753 21.464 75.2233 21.872C75.4713 22.28 75.5953 22.772 75.5953 23.348C75.5953 23.908 75.4713 24.396 75.2233 24.812C74.9753 25.22 74.6073 25.536 74.1193 25.76C73.6393 25.976 73.0433 26.084 72.3313 26.084H70.6873V24.416H72.3313C72.7393 24.416 73.0593 24.324 73.2913 24.14C73.5233 23.956 73.6393 23.692 73.6393 23.348C73.6393 22.996 73.5233 22.728 73.2913 22.544C73.0593 22.36 72.7393 22.268 72.3313 22.268H70.6873ZM79.0519 24.716L78.5479 29H76.4119L77.7679 20.18L81.3439 25.304L84.9319 20.18L86.2879 29H84.1519L83.6479 24.716L81.3439 28.22L79.0519 24.716Z" fill="white"/>
</svg>
