<svg width="82" height="44" viewBox="0 0 82 44" fill="none" xmlns="http://www.w3.org/2000/svg">
<rect width="82" height="44" rx="10" fill="#898AA6"/>
<rect x="8" y="4" width="36" height="36" rx="18" fill="white"/>
<g clip-path="url(#clip0_6_230)">
<rect width="20" height="20" transform="translate(16 12)" fill="#CB0000"/>
<path d="M16 32H36V12H16V32Z" fill="#CB0000"/>
<path d="M20.2857 27.7143H26V19.1428H28.8571V27.7143H31.7143V16.2857H20.2857V27.7143Z" fill="white"/>
</g>
<path d="M56.53 26L53.896 18.956C53.908 19.08 53.924 19.256 53.944 19.484C53.968 19.712 53.99 19.976 54.01 20.276C54.034 20.576 54.054 20.894 54.07 21.23C54.086 21.566 54.094 21.902 54.094 22.238V26H52.858V17.72H54.664L57.304 24.77C57.284 24.602 57.258 24.356 57.226 24.032C57.198 23.704 57.17 23.324 57.142 22.892C57.118 22.456 57.106 21.99 57.106 21.494V17.72H58.342V26H56.53ZM64.5053 20.33C64.5053 19.95 64.4313 19.646 64.2833 19.418C64.1393 19.19 63.9333 19.024 63.6653 18.92C63.4013 18.816 63.0893 18.764 62.7293 18.764H61.7333V21.986H62.7473C63.0953 21.986 63.4013 21.934 63.6653 21.83C63.9293 21.726 64.1353 21.554 64.2833 21.314C64.4313 21.074 64.5053 20.746 64.5053 20.33ZM65.9693 20.318C65.9693 20.962 65.8313 21.484 65.5553 21.884C65.2833 22.284 64.9033 22.578 64.4153 22.766C63.9273 22.954 63.3673 23.048 62.7353 23.048H61.7333V26H60.3413V17.72H62.6393C63.6793 17.72 64.4933 17.934 65.0813 18.362C65.6733 18.786 65.9693 19.438 65.9693 20.318ZM72.8166 17.72L73.2846 26H72.0126L71.8146 21.968C71.8026 21.664 71.7926 21.37 71.7846 21.086C71.7806 20.802 71.7786 20.53 71.7786 20.27C71.7786 20.01 71.7806 19.77 71.7846 19.55C71.7926 19.326 71.8006 19.124 71.8086 18.944L70.5906 24.542H69.3786L68.0706 18.944C68.0826 19.116 68.0926 19.318 68.1006 19.55C68.1086 19.778 68.1146 20.024 68.1186 20.288C68.1226 20.552 68.1226 20.828 68.1186 21.116C68.1186 21.404 68.1146 21.692 68.1066 21.98L67.9446 26H66.6966L67.1646 17.72H68.8326L70.0146 23.27L71.1426 17.72H72.8166Z" fill="white"/>
<defs>
<clipPath id="clip0_6_230">
<rect width="20" height="20" fill="white" transform="translate(16 12)"/>
</clipPath>
</defs>
</svg>
