<svg width="111" height="44" viewBox="0 0 111 44" fill="none" xmlns="http://www.w3.org/2000/svg">
<rect width="111" height="44" rx="10" fill="#898AA6"/>
<rect x="8" y="4" width="36" height="36" rx="18" fill="white"/>
<path d="M22.1355 29.0265L22.0911 28.938C22.0025 28.7606 22.0025 28.5833 22.0469 28.3615H17.2592L24.3522 15.7719L27.3223 21.1359L28.2975 20.4265L25.3273 15.0625C25.2831 14.9739 24.9284 14.442 24.3522 14.442C24.0861 14.442 23.6872 14.5306 23.3769 15.1069L16.1953 27.8297C16.1509 27.9628 15.8406 28.539 16.1066 29.0265C16.2839 29.2926 16.55 29.5586 17.1706 29.5586H23.1995C22.5789 29.5586 22.2686 29.2926 22.1355 29.0267V29.0265Z" fill="#00C58E"/>
<path d="M35.7891 27.8734L30.0261 17.5001C29.9375 17.4116 29.6272 16.8351 29.0508 16.8351C28.7848 16.8351 28.3859 16.9681 28.0756 17.5001L27.322 18.7414V21.1353L29.0509 18.1651L34.7695 28.3611H32.5973C32.6337 28.5721 32.6026 28.7893 32.5086 28.9817L32.4642 29.0261C32.1983 29.5136 31.5333 29.558 31.4447 29.558H34.8137C34.9467 29.558 35.5673 29.5137 35.8776 29.0261C36.0106 28.8044 36.0994 28.4055 35.7891 27.8734V27.8734Z" fill="#108775"/>
<path d="M32.6422 29.0265V28.9822L32.6866 28.8936C32.7308 28.7162 32.7751 28.5389 32.7308 28.3615L32.5536 27.8297L28.032 19.9389L27.367 18.742H27.3226L26.6576 19.9389L22.1361 27.8295L21.9589 28.3615C21.9159 28.587 21.947 28.8202 22.0475 29.0265C22.2248 29.2925 22.4908 29.5586 23.1114 29.5586H31.5342C31.6672 29.5586 32.3322 29.5142 32.6425 29.0265H32.6422ZM27.3225 21.1358L31.4453 28.3615H23.1998L27.3225 21.1358Z" fill="#2F495E"/>
<path d="M56.53 26L53.896 18.956C53.908 19.08 53.924 19.256 53.944 19.484C53.968 19.712 53.99 19.976 54.01 20.276C54.034 20.576 54.054 20.894 54.07 21.23C54.086 21.566 54.094 21.902 54.094 22.238V26H52.858V17.72H54.664L57.304 24.77C57.284 24.602 57.258 24.356 57.226 24.032C57.198 23.704 57.17 23.324 57.142 22.892C57.118 22.456 57.106 21.99 57.106 21.494V17.72H58.342V26H56.53ZM61.6073 19.664V24.092C61.6073 24.468 61.6813 24.736 61.8293 24.896C61.9813 25.056 62.2093 25.136 62.5133 25.136C62.8013 25.136 63.0793 25.05 63.3473 24.878C63.6153 24.706 63.8273 24.496 63.9833 24.248V19.664H65.3273V26H64.1693L64.0853 25.19C63.8493 25.506 63.5513 25.748 63.1913 25.916C62.8313 26.08 62.4633 26.162 62.0873 26.162C61.4753 26.162 61.0173 25.994 60.7133 25.658C60.4133 25.318 60.2633 24.852 60.2633 24.26V19.664H61.6073ZM68.3946 26H66.9066L69.1806 22.658L67.1586 19.664H68.7066L70.0026 21.896L71.2986 19.664H72.7746L70.7946 22.604L73.0746 26H71.4966L69.9426 23.414L68.3946 26ZM79.9459 25.664C79.7139 25.812 79.4359 25.932 79.1119 26.024C78.7879 26.116 78.4499 26.162 78.0979 26.162C77.3619 26.162 76.8019 25.972 76.4179 25.592C76.0379 25.208 75.8479 24.704 75.8479 24.08V20.642H74.4379V19.664H75.8479V18.248L77.1919 18.086V19.664H79.3279L79.1779 20.642H77.1919V24.068C77.1919 24.408 77.2759 24.662 77.4439 24.83C77.6159 24.994 77.8959 25.076 78.2839 25.076C78.5159 25.076 78.7299 25.048 78.9259 24.992C79.1219 24.936 79.2999 24.864 79.4599 24.776L79.9459 25.664ZM83.2173 24.998C83.2173 24.782 83.2673 24.588 83.3673 24.416C83.4713 24.24 83.6113 24.1 83.7873 23.996C83.9633 23.892 84.1593 23.84 84.3753 23.84C84.5953 23.84 84.7933 23.892 84.9693 23.996C85.1453 24.1 85.2833 24.24 85.3833 24.416C85.4873 24.588 85.5393 24.782 85.5393 24.998C85.5393 25.21 85.4873 25.406 85.3833 25.586C85.2833 25.762 85.1453 25.902 84.9693 26.006C84.7933 26.11 84.5953 26.162 84.3753 26.162C84.1593 26.162 83.9633 26.11 83.7873 26.006C83.6113 25.902 83.4713 25.762 83.3673 25.586C83.2673 25.406 83.2173 25.21 83.2173 24.998ZM93.4426 19.664V24.668C93.4426 25.456 93.2786 26.11 92.9506 26.63C92.6266 27.15 92.1506 27.564 91.5226 27.872C90.8946 28.184 90.1286 28.422 89.2246 28.586L89.0086 27.554C89.6366 27.434 90.1826 27.268 90.6466 27.056C91.1106 26.844 91.4686 26.554 91.7206 26.186C91.9726 25.818 92.0986 25.342 92.0986 24.758V20.648H89.5966V19.664H93.4426ZM92.3926 16.562C92.6526 16.562 92.8646 16.642 93.0286 16.802C93.1926 16.962 93.2746 17.162 93.2746 17.402C93.2746 17.642 93.1926 17.844 93.0286 18.008C92.8646 18.172 92.6526 18.254 92.3926 18.254C92.1326 18.254 91.9206 18.172 91.7566 18.008C91.5966 17.844 91.5166 17.642 91.5166 17.402C91.5166 17.162 91.5966 16.962 91.7566 16.802C91.9206 16.642 92.1326 16.562 92.3926 16.562ZM98.5439 25.13C98.9639 25.13 99.2979 25.056 99.5459 24.908C99.7939 24.756 99.9179 24.548 99.9179 24.284C99.9179 24.112 99.8819 23.966 99.8099 23.846C99.7379 23.722 99.5939 23.61 99.3779 23.51C99.1619 23.406 98.8339 23.298 98.3939 23.186C97.9779 23.078 97.6119 22.95 97.2959 22.802C96.9839 22.654 96.7419 22.462 96.5699 22.226C96.3979 21.99 96.3119 21.686 96.3119 21.314C96.3119 20.95 96.4139 20.632 96.6179 20.36C96.8219 20.088 97.1139 19.876 97.4939 19.724C97.8779 19.572 98.3279 19.496 98.8439 19.496C99.3759 19.496 99.8399 19.566 100.236 19.706C100.632 19.846 100.97 20.02 101.25 20.228L100.686 21.074C100.438 20.91 100.166 20.776 99.8699 20.672C99.5779 20.568 99.2479 20.516 98.8799 20.516C98.4519 20.516 98.1439 20.58 97.9559 20.708C97.7719 20.836 97.6799 21.006 97.6799 21.218C97.6799 21.374 97.7259 21.506 97.8179 21.614C97.9139 21.718 98.0779 21.816 98.3099 21.908C98.5419 21.996 98.8699 22.1 99.2939 22.22C99.7059 22.332 100.064 22.464 100.368 22.616C100.676 22.768 100.914 22.97 101.082 23.222C101.254 23.47 101.34 23.794 101.34 24.194C101.34 24.65 101.208 25.024 100.944 25.316C100.684 25.604 100.34 25.818 99.9119 25.958C99.4879 26.094 99.0319 26.162 98.5439 26.162C97.9559 26.162 97.4479 26.078 97.0199 25.91C96.5919 25.738 96.2319 25.524 95.9399 25.268L96.6539 24.452C96.9019 24.652 97.1859 24.816 97.5059 24.944C97.8259 25.068 98.1719 25.13 98.5439 25.13Z" fill="white"/>
</svg>
