<svg width="111" height="49" viewBox="0 0 111 49" fill="none" xmlns="http://www.w3.org/2000/svg">
<rect width="111" height="49" rx="10" fill="#898AA6"/>
<rect x="12" y="6" width="37" height="37" rx="18.5" fill="white"/>
<path d="M26.4422 31.8779L26.3956 31.7849C26.3026 31.5987 26.3026 31.4124 26.3492 31.1796H21.3222L28.7698 17.9605L31.8885 23.5927L32.9124 22.8479L29.7937 17.2156C29.7473 17.1226 29.3749 16.5641 28.7698 16.5641C28.4904 16.5641 28.0715 16.6572 27.7457 17.2622L20.2051 30.6212C20.1585 30.761 19.8327 31.366 20.1119 31.8779C20.2981 32.1573 20.5775 32.4365 21.2292 32.4365H27.5595C26.9079 32.4365 26.582 32.1573 26.4422 31.8781V31.8779Z" fill="#00C58E"/>
<path d="M40.7785 30.6671L34.7274 19.7752C34.6344 19.6821 34.3085 19.0769 33.7033 19.0769C33.4241 19.0769 33.0052 19.2165 32.6794 19.7752L31.8881 21.0785V23.5921L33.7035 20.4734L39.708 31.1791H37.4272C37.4654 31.4008 37.4327 31.6288 37.334 31.8308L37.2874 31.8774C37.0082 32.3893 36.3099 32.4359 36.2169 32.4359H39.7544C39.894 32.4359 40.5457 32.3894 40.8715 31.8774C41.0111 31.6446 41.1043 31.2257 40.7785 30.6671V30.6671Z" fill="#108775"/>
<path d="M37.4743 31.8779V31.8313L37.5209 31.7383C37.5673 31.5521 37.6139 31.3659 37.5673 31.1796L37.3813 30.6212L32.6336 22.3359L31.9354 21.0791H31.8888L31.1906 22.3359L26.4429 30.621L26.2569 31.1796C26.2118 31.4163 26.2444 31.6613 26.3499 31.8779C26.5361 32.1571 26.8153 32.4365 27.467 32.4365H36.3109C36.4506 32.4365 37.1488 32.3899 37.4746 31.8779H37.4743ZM31.8886 23.5926L36.2176 31.1796H27.5598L31.8886 23.5926Z" fill="#2F495E"/>
<path d="M65.684 20.6H67.64V29.42L61.832 24.272V29H59.888V20.18L65.684 25.328V20.6ZM71.1313 26.84C71.1313 27.16 71.1913 27.412 71.3113 27.596C71.4313 27.772 71.6393 27.86 71.9353 27.86C72.1353 27.86 72.3033 27.82 72.4393 27.74C72.5833 27.66 72.6953 27.544 72.7753 27.392C72.8553 27.24 72.8953 27.056 72.8953 26.84V23.48H74.7073V29H72.8953V28.172C72.7273 28.468 72.5073 28.704 72.2353 28.88C71.9633 29.048 71.6233 29.132 71.2153 29.132C70.5273 29.132 70.0233 28.948 69.7033 28.58C69.3913 28.204 69.2353 27.688 69.2353 27.032V23.48H71.1313V26.84ZM79.6777 23.48H81.6937L79.5817 26.168L81.8137 29H79.7977L78.6457 27.392L77.5177 29H75.4297L77.6977 26.168L75.5497 23.48H77.6377L78.6457 24.932L79.6777 23.48ZM81.8764 23.48H85.5724V24.98H81.8764V23.48ZM82.8484 21.56H84.5884V29H82.8484V21.56ZM86.4407 28.184C86.4407 27.88 86.5487 27.62 86.7647 27.404C86.9807 27.188 87.2487 27.08 87.5687 27.08C87.9047 27.08 88.1767 27.188 88.3847 27.404C88.5927 27.62 88.6967 27.88 88.6967 28.184C88.6967 28.488 88.5927 28.748 88.3847 28.964C88.1767 29.18 87.9047 29.288 87.5687 29.288C87.2487 29.288 86.9807 29.18 86.7647 28.964C86.5487 28.748 86.4407 28.488 86.4407 28.184ZM90.0439 21.404C90.0439 21.116 90.1439 20.884 90.3439 20.708C90.5519 20.524 90.8039 20.432 91.0999 20.432C91.3879 20.432 91.6319 20.524 91.8319 20.708C92.0399 20.884 92.1439 21.116 92.1439 21.404C92.1439 21.692 92.0399 21.928 91.8319 22.112C91.6319 22.296 91.3879 22.388 91.0999 22.388C90.8039 22.388 90.5519 22.296 90.3439 22.112C90.1439 21.928 90.0439 21.692 90.0439 21.404ZM89.1079 29.924C89.1799 30.02 89.2639 30.096 89.3599 30.152C89.4479 30.208 89.5479 30.236 89.6599 30.236C89.7879 30.236 89.8959 30.204 89.9839 30.14C90.0719 30.084 90.1359 29.996 90.1759 29.876C90.2159 29.756 90.2359 29.6 90.2359 29.408V23.48H91.9879V29.864C91.9879 30.264 91.9079 30.612 91.7479 30.908C91.5959 31.212 91.3639 31.448 91.0519 31.616C90.7479 31.784 90.3639 31.868 89.8999 31.868C89.6359 31.868 89.4079 31.836 89.2159 31.772C89.0159 31.708 88.8519 31.628 88.7239 31.532C88.5879 31.436 88.4719 31.344 88.3759 31.256L89.1079 29.924ZM93.7814 26.996C94.0614 27.228 94.3134 27.412 94.5374 27.548C94.7694 27.676 94.9734 27.768 95.1494 27.824C95.3254 27.872 95.4774 27.896 95.6054 27.896C95.7894 27.896 95.9254 27.856 96.0134 27.776C96.1014 27.696 96.1454 27.592 96.1454 27.464C96.1454 27.344 96.1094 27.244 96.0374 27.164C95.9654 27.076 95.8414 26.992 95.6654 26.912C95.4974 26.832 95.2654 26.748 94.9694 26.66C94.7054 26.564 94.4534 26.452 94.2134 26.324C93.9814 26.188 93.7894 26.008 93.6374 25.784C93.4854 25.56 93.4094 25.272 93.4094 24.92C93.4094 24.584 93.4974 24.3 93.6734 24.068C93.8574 23.836 94.1014 23.66 94.4054 23.54C94.7174 23.42 95.0734 23.36 95.4734 23.36C95.7934 23.36 96.0894 23.396 96.3614 23.468C96.6414 23.54 96.9014 23.636 97.1414 23.756C97.3894 23.876 97.6214 24.016 97.8374 24.176L97.1894 25.352C96.9574 25.136 96.6934 24.96 96.3974 24.824C96.1014 24.68 95.8294 24.608 95.5814 24.608C95.4134 24.608 95.2854 24.64 95.1974 24.704C95.1174 24.768 95.0774 24.852 95.0774 24.956C95.0774 25.076 95.1254 25.176 95.2214 25.256C95.3254 25.336 95.4694 25.412 95.6534 25.484C95.8454 25.548 96.0774 25.632 96.3494 25.736C96.6374 25.84 96.9014 25.96 97.1414 26.096C97.3894 26.232 97.5854 26.404 97.7294 26.612C97.8814 26.82 97.9574 27.096 97.9574 27.44C97.9574 28.032 97.7734 28.48 97.4054 28.784C97.0454 29.08 96.5374 29.228 95.8814 29.228C95.4814 29.228 95.1094 29.18 94.7654 29.084C94.4294 28.996 94.1174 28.876 93.8294 28.724C93.5414 28.564 93.2734 28.388 93.0254 28.196L93.7814 26.996Z" fill="white"/>
</svg>
