<svg width="118" height="44" viewBox="0 0 118 44" fill="none" xmlns="http://www.w3.org/2000/svg">
<rect width="118" height="44" rx="10" fill="#898AA6"/>
<rect x="8" y="4" width="36" height="36" rx="18" fill="white"/>
<g clip-path="url(#clip0_6_172)">
<path d="M33.875 32H18.125C16.9375 32 16 31.0625 16 29.875V14.125C16 12.9375 16.9375 12 18.125 12H33.875C35.0625 12 36 12.9375 36 14.125V29.875C36 31.0625 35.0625 32 33.875 32Z" fill="#5CA4DA"/>
<path d="M32.125 12C31.375 15.25 29.4375 18.75 26.4375 21.75C23.25 24.9375 19.4375 26.9375 16 27.5625V14.125C16 12.9375 16.9375 12 18.125 12H32.125Z" fill="#6DAFE0"/>
<path d="M31 20.6875C32 18.9375 32.375 17.3125 31.5 16.5C30.625 15.625 29.0625 16 27.3125 17C26.3125 15.25 25.125 14.125 23.9375 14.4375C22.75 14.75 22.3125 16.3126 22.3125 18.3126C20.3125 18.3126 18.75 18.8126 18.4375 19.9376C18.125 21.1251 19.25 22.3125 21 23.3126C19.9999 25.0626 19.625 26.6876 20.5 27.5001C21.3749 28.3751 22.9375 28.0001 24.6875 27.0001C25.6875 28.7501 26.875 29.8751 28.0625 29.5626C29.2499 29.2501 29.6875 27.6875 29.6875 25.6875C31.6875 25.6875 33.25 25.1875 33.5625 24.0625C33.875 22.875 32.75 21.6875 31 20.6875ZM30.875 17.125C31.25 17.5 31.0625 18.6875 30.1875 20.1875C29.6875 19.9375 29.125 19.6875 28.5 19.5C28.3125 18.9375 28.0625 18.375 27.8125 17.8125C29.3125 16.9375 30.4375 16.75 30.875 17.125ZM26.625 24.375C25.75 24.1875 25.0625 24 24.25 23.75C24 22.9375 23.8125 22.2501 23.625 21.3751C24.1875 20.7501 24.6875 20.2501 25.375 19.6251C26.25 19.8126 26.9375 20.0001 27.75 20.2501C28 21.0626 28.1875 21.75 28.375 22.625C27.8125 23.3125 27.3125 23.8125 26.625 24.375ZM28.5625 23.875C28.625 24.125 28.625 24.4375 28.625 24.6875C28.375 24.6875 28.125 24.625 27.8125 24.625L28.5625 23.875ZM25.6875 25.1875C25.4375 25.375 25.25 25.5 25.0625 25.6875C24.9375 25.4375 24.8125 25.1875 24.75 24.9375C25.1875 25 25.1875 25.0625 25.6875 25.1875ZM23.125 23.3125C22.875 23.1875 22.625 23.125 22.375 23C22.4999 22.8125 22.6875 22.5625 22.875 22.375C22.9375 22.8125 23 22.8125 23.125 23.3125ZM23.4375 20.125C23.375 19.875 23.375 19.5625 23.375 19.3125C23.625 19.3125 23.875 19.375 24.1875 19.375L23.4375 20.125ZM26.3125 18.8125C26.5625 18.625 26.75 18.5 26.9375 18.3125C27.0625 18.5625 27.1875 18.8125 27.25 19.0625C26.8125 19 26.8125 18.9375 26.3125 18.8125ZM28.875 20.6875C29.125 20.8125 29.375 20.875 29.625 21C29.5 21.1875 29.3125 21.4375 29.125 21.625C29.0625 21.1875 29 21.1875 28.875 20.6875ZM24.25 15.375C24.75 15.25 25.6875 16 26.5625 17.5C26.0625 17.8125 25.625 18.1875 25.125 18.5626C24.5 18.4376 23.9375 18.375 23.3125 18.3126C23.3125 16.625 23.6875 15.5 24.25 15.375ZM19.375 20.25C19.5 19.75 20.625 19.3125 22.375 19.3125C22.4375 19.875 22.5 20.5 22.625 21.125C22.25 21.625 21.875 22.0625 21.5625 22.5625C20 21.625 19.25 20.75 19.375 20.25ZM21.125 26.875C20.75 26.5001 20.9375 25.3125 21.8125 23.8125C22.3125 24.0625 22.875 24.3125 23.5 24.5C23.6875 25.0625 23.9375 25.625 24.1874 26.1875C22.6875 27.0625 21.5625 27.25 21.125 26.875ZM27.75 28.625C27.25 28.75 26.3125 28 25.4375 26.5C25.9375 26.1875 26.375 25.8125 26.875 25.4375C27.5 25.5625 28.0625 25.625 28.6875 25.6875C28.6875 27.375 28.3125 28.5 27.75 28.625ZM32.625 23.75C32.5 24.25 31.375 24.6875 29.625 24.6875C29.5625 24.125 29.5 23.5 29.375 22.875C29.75 22.375 30.125 21.9376 30.4375 21.4375C32 22.375 32.75 23.25 32.625 23.75Z" fill="white"/>
<path d="M26 23.375C26.7594 23.375 27.375 22.7594 27.375 22C27.375 21.2406 26.7594 20.625 26 20.625C25.2406 20.625 24.625 21.2406 24.625 22C24.625 22.7594 25.2406 23.375 26 23.375Z" fill="white"/>
</g>
<path d="M58.558 20.114C58.558 20.522 58.474 20.878 58.306 21.182C58.142 21.482 57.916 21.732 57.628 21.932C57.344 22.132 57.026 22.286 56.674 22.394L59.02 26H57.4L55.318 22.592H54.412V26H53.02V17.72H55.33C56.394 17.72 57.198 17.92 57.742 18.32C58.286 18.716 58.558 19.314 58.558 20.114ZM57.1 20.114C57.1 19.634 56.96 19.288 56.68 19.076C56.404 18.86 55.98 18.752 55.408 18.752H54.412V21.572H55.438C55.97 21.572 56.38 21.46 56.668 21.236C56.956 21.008 57.1 20.634 57.1 20.114ZM61.3793 23.264C61.4073 23.696 61.4993 24.05 61.6553 24.326C61.8113 24.598 62.0153 24.798 62.2673 24.926C62.5233 25.054 62.8033 25.118 63.1073 25.118C63.4193 25.118 63.7073 25.07 63.9713 24.974C64.2353 24.878 64.5013 24.742 64.7693 24.566L65.3513 25.37C65.0553 25.61 64.7093 25.802 64.3133 25.946C63.9173 26.09 63.4933 26.162 63.0413 26.162C62.3853 26.162 61.8293 26.022 61.3733 25.742C60.9213 25.462 60.5773 25.072 60.3413 24.572C60.1053 24.072 59.9873 23.494 59.9873 22.838C59.9873 22.202 60.1033 21.634 60.3353 21.134C60.5673 20.63 60.8993 20.232 61.3313 19.94C61.7633 19.644 62.2793 19.496 62.8793 19.496C63.4433 19.496 63.9273 19.624 64.3313 19.88C64.7393 20.136 65.0533 20.5 65.2733 20.972C65.4973 21.44 65.6093 22.004 65.6093 22.664C65.6093 22.772 65.6053 22.88 65.5973 22.988C65.5933 23.092 65.5873 23.184 65.5793 23.264H61.3793ZM62.8913 20.492C62.4713 20.492 62.1233 20.642 61.8473 20.942C61.5753 21.242 61.4173 21.71 61.3733 22.346H64.3073C64.2953 21.75 64.1673 21.292 63.9233 20.972C63.6833 20.652 63.3393 20.492 62.8913 20.492ZM72.3006 24.446C72.3006 24.694 72.3386 24.876 72.4146 24.992C72.4906 25.104 72.6126 25.188 72.7806 25.244L72.4806 26.156C72.1686 26.12 71.9006 26.034 71.6766 25.898C71.4526 25.762 71.2826 25.556 71.1666 25.28C70.9346 25.572 70.6406 25.792 70.2846 25.94C69.9286 26.088 69.5486 26.162 69.1446 26.162C68.5046 26.162 67.9966 25.982 67.6206 25.622C67.2486 25.258 67.0626 24.782 67.0626 24.194C67.0626 23.526 67.3226 23.012 67.8426 22.652C68.3626 22.292 69.1066 22.112 70.0746 22.112H70.9806V21.698C70.9806 21.29 70.8566 20.996 70.6086 20.816C70.3646 20.636 70.0186 20.546 69.5706 20.546C69.3626 20.546 69.1106 20.574 68.8146 20.63C68.5186 20.682 68.2086 20.764 67.8846 20.876L67.5546 19.928C67.9506 19.78 68.3386 19.672 68.7186 19.604C69.0986 19.532 69.4506 19.496 69.7746 19.496C70.6226 19.496 71.2546 19.684 71.6706 20.06C72.0906 20.436 72.3006 20.956 72.3006 21.62V24.446ZM69.5526 25.172C69.8246 25.172 70.0906 25.1 70.3506 24.956C70.6106 24.812 70.8206 24.61 70.9806 24.35V22.952H70.2366C69.6046 22.952 69.1526 23.058 68.8806 23.27C68.6086 23.478 68.4726 23.766 68.4726 24.134C68.4726 24.47 68.5626 24.728 68.7426 24.908C68.9266 25.084 69.1966 25.172 69.5526 25.172ZM77.7079 25.058C78.0039 25.058 78.2799 25.008 78.5359 24.908C78.7919 24.804 79.0359 24.67 79.2679 24.506L79.8919 25.37C79.6159 25.606 79.2799 25.798 78.8839 25.946C78.4919 26.09 78.0859 26.162 77.6659 26.162C77.0179 26.162 76.4639 26.026 76.0039 25.754C75.5439 25.478 75.1919 25.092 74.9479 24.596C74.7039 24.1 74.5819 23.522 74.5819 22.862C74.5819 22.218 74.7039 21.644 74.9479 21.14C75.1959 20.632 75.5519 20.232 76.0159 19.94C76.4799 19.644 77.0379 19.496 77.6899 19.496C78.1219 19.496 78.5199 19.56 78.8839 19.688C79.2479 19.816 79.5819 20.006 79.8859 20.258L79.2679 21.104C79.0199 20.932 78.7659 20.802 78.5059 20.714C78.2499 20.622 77.9859 20.576 77.7139 20.576C77.2139 20.576 76.8039 20.76 76.4839 21.128C76.1679 21.496 76.0099 22.074 76.0099 22.862C76.0099 23.39 76.0819 23.816 76.2259 24.14C76.3739 24.46 76.5759 24.694 76.8319 24.842C77.0879 24.986 77.3799 25.058 77.7079 25.058ZM87.1413 25.664C86.9093 25.812 86.6313 25.932 86.3073 26.024C85.9833 26.116 85.6453 26.162 85.2933 26.162C84.5573 26.162 83.9973 25.972 83.6133 25.592C83.2333 25.208 83.0433 24.704 83.0433 24.08V20.642H81.6333V19.664H83.0433V18.248L84.3873 18.086V19.664H86.5233L86.3733 20.642H84.3873V24.068C84.3873 24.408 84.4713 24.662 84.6393 24.83C84.8113 24.994 85.0913 25.076 85.4793 25.076C85.7113 25.076 85.9253 25.048 86.1213 24.992C86.3173 24.936 86.4953 24.864 86.6553 24.776L87.1413 25.664ZM90.4126 24.998C90.4126 24.782 90.4626 24.588 90.5626 24.416C90.6666 24.24 90.8066 24.1 90.9826 23.996C91.1586 23.892 91.3546 23.84 91.5706 23.84C91.7906 23.84 91.9886 23.892 92.1646 23.996C92.3406 24.1 92.4786 24.24 92.5786 24.416C92.6826 24.588 92.7346 24.782 92.7346 24.998C92.7346 25.21 92.6826 25.406 92.5786 25.586C92.4786 25.762 92.3406 25.902 92.1646 26.006C91.9886 26.11 91.7906 26.162 91.5706 26.162C91.3546 26.162 91.1586 26.11 90.9826 26.006C90.8066 25.902 90.6666 25.762 90.5626 25.586C90.4626 25.406 90.4126 25.21 90.4126 24.998ZM100.638 19.664V24.668C100.638 25.456 100.474 26.11 100.146 26.63C99.8219 27.15 99.3459 27.564 98.7179 27.872C98.0899 28.184 97.3239 28.422 96.4199 28.586L96.2039 27.554C96.8319 27.434 97.3779 27.268 97.8419 27.056C98.3059 26.844 98.6639 26.554 98.9159 26.186C99.1679 25.818 99.2939 25.342 99.2939 24.758V20.648H96.7919V19.664H100.638ZM99.5879 16.562C99.8479 16.562 100.06 16.642 100.224 16.802C100.388 16.962 100.47 17.162 100.47 17.402C100.47 17.642 100.388 17.844 100.224 18.008C100.06 18.172 99.8479 18.254 99.5879 18.254C99.3279 18.254 99.1159 18.172 98.9519 18.008C98.7919 17.844 98.7119 17.642 98.7119 17.402C98.7119 17.162 98.7919 16.962 98.9519 16.802C99.1159 16.642 99.3279 16.562 99.5879 16.562ZM105.739 25.13C106.159 25.13 106.493 25.056 106.741 24.908C106.989 24.756 107.113 24.548 107.113 24.284C107.113 24.112 107.077 23.966 107.005 23.846C106.933 23.722 106.789 23.61 106.573 23.51C106.357 23.406 106.029 23.298 105.589 23.186C105.173 23.078 104.807 22.95 104.491 22.802C104.179 22.654 103.937 22.462 103.765 22.226C103.593 21.99 103.507 21.686 103.507 21.314C103.507 20.95 103.609 20.632 103.813 20.36C104.017 20.088 104.309 19.876 104.689 19.724C105.073 19.572 105.523 19.496 106.039 19.496C106.571 19.496 107.035 19.566 107.431 19.706C107.827 19.846 108.165 20.02 108.445 20.228L107.881 21.074C107.633 20.91 107.361 20.776 107.065 20.672C106.773 20.568 106.443 20.516 106.075 20.516C105.647 20.516 105.339 20.58 105.151 20.708C104.967 20.836 104.875 21.006 104.875 21.218C104.875 21.374 104.921 21.506 105.013 21.614C105.109 21.718 105.273 21.816 105.505 21.908C105.737 21.996 106.065 22.1 106.489 22.22C106.901 22.332 107.259 22.464 107.563 22.616C107.871 22.768 108.109 22.97 108.277 23.222C108.449 23.47 108.535 23.794 108.535 24.194C108.535 24.65 108.403 25.024 108.139 25.316C107.879 25.604 107.535 25.818 107.107 25.958C106.683 26.094 106.227 26.162 105.739 26.162C105.151 26.162 104.643 26.078 104.215 25.91C103.787 25.738 103.427 25.524 103.135 25.268L103.849 24.452C104.097 24.652 104.381 24.816 104.701 24.944C105.021 25.068 105.367 25.13 105.739 25.13Z" fill="white"/>
<defs>
<clipPath id="clip0_6_172">
<rect width="20" height="20" fill="white" transform="translate(16 12)"/>
</clipPath>
</defs>
</svg>
