<svg width="102" height="49" viewBox="0 0 102 49" fill="none" xmlns="http://www.w3.org/2000/svg">
<rect width="102" height="49" rx="10" fill="#898AA6"/>
<rect x="12" y="6" width="37" height="37" rx="18.5" fill="white"/>
<path d="M30.5 26.3703C31.5329 26.3703 32.3703 25.5329 32.3703 24.5C32.3703 23.4671 31.5329 22.6297 30.5 22.6297C29.4671 22.6297 28.6297 23.4671 28.6297 24.5C28.6297 25.5329 29.4671 26.3703 30.5 26.3703Z" fill="#61DAFB"/>
<path d="M37.6039 21.4156C37.243 21.2844 36.8656 21.1531 36.4719 21.0383C36.5703 20.6445 36.6523 20.2508 36.718 19.8734C37.0625 17.7078 36.6852 16.182 35.6352 15.5914C35.3234 15.4109 34.9789 15.3289 34.5852 15.3289C33.4367 15.3289 31.9766 16.182 30.5 17.6094C29.0234 16.182 27.5633 15.3289 26.4148 15.3289C26.0211 15.3289 25.6766 15.4109 25.3648 15.5914C24.3148 16.1984 23.9375 17.7242 24.282 19.8734C24.3477 20.2508 24.4297 20.6445 24.5281 21.0383C24.1344 21.1531 23.757 21.268 23.3961 21.4156C21.3453 22.2031 20.2297 23.2859 20.2297 24.5C20.2297 25.7141 21.3617 26.7969 23.3961 27.5844C23.757 27.7156 24.1344 27.8469 24.5281 27.9617C24.4297 28.3555 24.3477 28.7492 24.282 29.1266C23.9375 31.2922 24.3148 32.818 25.3648 33.4086C25.6766 33.5891 26.0211 33.6711 26.4148 33.6711C27.5797 33.6711 29.0398 32.818 30.5 31.3906C31.9766 32.818 33.4367 33.6711 34.5852 33.6711C34.9789 33.6711 35.3234 33.5891 35.6352 33.4086C36.6852 32.8016 37.0625 31.2758 36.718 29.1266C36.6523 28.7492 36.5703 28.3555 36.4719 27.9617C36.8656 27.8469 37.243 27.732 37.6039 27.5844C39.6547 26.7969 40.7703 25.7141 40.7703 24.5C40.7703 23.2859 39.6547 22.2031 37.6039 21.4156V21.4156ZM35.1758 16.4117C35.8484 16.8055 36.0781 18.0195 35.7992 19.7422C35.75 20.0867 35.668 20.4477 35.5695 20.825C34.7164 20.6281 33.8141 20.4969 32.8625 20.4148C32.3047 19.6273 31.7305 18.9219 31.1563 18.282C32.3703 17.0844 33.6008 16.2641 34.6016 16.2641C34.8148 16.2641 35.0117 16.3133 35.1758 16.4117V16.4117ZM33.3383 26.1406C33.043 26.6656 32.6984 27.1906 32.3375 27.7156C31.7305 27.7648 31.1234 27.7813 30.5 27.7813C29.8602 27.7813 29.2531 27.7648 28.6625 27.7156C28.3016 27.1906 27.9734 26.6656 27.6781 26.1406C27.3664 25.5992 27.0711 25.0414 26.8086 24.5C27.0711 23.9586 27.3664 23.4008 27.6781 22.8594C27.9734 22.3344 28.318 21.8094 28.6789 21.2844C29.2859 21.2352 29.893 21.2188 30.5164 21.2188C31.1563 21.2188 31.7633 21.2352 32.3539 21.2844C32.7148 21.8094 33.043 22.3344 33.3383 22.8594C33.65 23.4008 33.9453 23.9586 34.2078 24.5C33.9289 25.0414 33.65 25.5828 33.3383 26.1406ZM34.7 25.5992C34.9461 26.1734 35.143 26.7313 35.3234 27.2891C34.7656 27.4203 34.175 27.5188 33.5516 27.6008C33.7484 27.2891 33.9617 26.9609 34.1422 26.6164C34.3391 26.2719 34.5195 25.9273 34.7 25.5992ZM30.5 30.0453C30.1063 29.6188 29.7289 29.1594 29.368 28.6836C29.7453 28.7 30.1227 28.7164 30.5 28.7164C30.8773 28.7164 31.2547 28.7 31.632 28.6836C31.2711 29.1594 30.8938 29.6188 30.5 30.0453ZM27.4484 27.5844C26.825 27.5023 26.2344 27.4039 25.6766 27.2727C25.857 26.7313 26.0539 26.157 26.3 25.5828C26.4805 25.9109 26.6609 26.2555 26.8578 26.5836C27.0547 26.9445 27.2516 27.2563 27.4484 27.5844V27.5844ZM26.3 23.4008C26.0539 22.8266 25.857 22.2688 25.6766 21.7109C26.2344 21.5797 26.825 21.4813 27.4484 21.3992C27.2516 21.7109 27.0383 22.0391 26.8578 22.3836C26.6609 22.7281 26.4805 23.0727 26.3 23.4008V23.4008ZM30.5 18.9547C30.8938 19.3813 31.2711 19.8406 31.632 20.3164C31.2547 20.3 30.8773 20.2836 30.5 20.2836C30.1227 20.2836 29.7453 20.3 29.368 20.3164C29.7289 19.8406 30.1063 19.3813 30.5 18.9547ZM34.1422 22.4L33.5516 21.4156C34.175 21.4977 34.7656 21.5961 35.3234 21.7273C35.143 22.2688 34.9461 22.843 34.7 23.4172C34.5195 23.0727 34.3391 22.7281 34.1422 22.4ZM25.2008 19.7422C24.9219 18.0195 25.1516 16.8055 25.8242 16.4117C25.9883 16.3133 26.1852 16.2641 26.3984 16.2641C27.3828 16.2641 28.6133 17.068 29.8438 18.282C29.2695 18.9055 28.6953 19.6273 28.1375 20.4148C27.1859 20.4969 26.2836 20.6445 25.4305 20.825C25.332 20.4477 25.2664 20.0867 25.2008 19.7422V19.7422ZM21.1484 24.5C21.1484 23.7289 22.0836 22.9086 23.7242 22.3016C24.0523 22.1703 24.4133 22.0555 24.7742 21.957C25.0367 22.7773 25.3648 23.6469 25.7586 24.5164C25.3648 25.3859 25.0203 26.2391 24.7742 27.0594C22.5102 26.4031 21.1484 25.4188 21.1484 24.5ZM25.8242 32.5883C25.1516 32.1945 24.9219 30.9805 25.2008 29.2578C25.25 28.9133 25.332 28.5523 25.4305 28.175C26.2836 28.3719 27.1859 28.5031 28.1375 28.5852C28.6953 29.3727 29.2695 30.0781 29.8438 30.718C28.6297 31.9156 27.3992 32.7359 26.3984 32.7359C26.1852 32.7359 25.9883 32.6867 25.8242 32.5883ZM35.7992 29.2578C36.0781 30.9805 35.8484 32.1945 35.1758 32.5883C35.0117 32.6867 34.8148 32.7359 34.6016 32.7359C33.6172 32.7359 32.3867 31.932 31.1563 30.718C31.7305 30.0945 32.3047 29.3727 32.8625 28.5852C33.8141 28.5031 34.7164 28.3555 35.5695 28.175C35.668 28.5523 35.7336 28.9133 35.7992 29.2578V29.2578ZM37.2758 26.6984C36.9477 26.8297 36.5867 26.9445 36.2258 27.043C35.9633 26.2227 35.6352 25.3531 35.2414 24.4836C35.6352 23.6141 35.9797 22.7609 36.2258 21.9406C38.4898 22.5969 39.8516 23.5813 39.8516 24.5C39.8516 25.2711 38.9 26.0914 37.2758 26.6984Z" fill="#61DAFB"/>
<path d="M61.988 25.196H64.088L66.716 29H64.34L61.988 25.196ZM59.888 20.6H61.916V29H59.888V20.6ZM61.16 22.316V20.6H62.948C63.668 20.6 64.268 20.716 64.748 20.948C65.228 21.18 65.592 21.504 65.84 21.92C66.088 22.328 66.212 22.804 66.212 23.348C66.212 23.884 66.088 24.36 65.84 24.776C65.592 25.184 65.228 25.504 64.748 25.736C64.268 25.968 63.668 26.084 62.948 26.084H61.16V24.512H62.804C63.076 24.512 63.308 24.472 63.5 24.392C63.7 24.304 63.852 24.18 63.956 24.02C64.06 23.852 64.112 23.652 64.112 23.42C64.112 23.188 64.06 22.992 63.956 22.832C63.852 22.664 63.7 22.536 63.5 22.448C63.308 22.36 63.076 22.316 62.804 22.316H61.16ZM70.2855 29.12C69.6455 29.12 69.0895 29.004 68.6175 28.772C68.1535 28.532 67.7935 28.196 67.5375 27.764C67.2815 27.332 67.1535 26.824 67.1535 26.24C67.1535 25.648 67.2775 25.136 67.5255 24.704C67.7735 24.272 68.1295 23.94 68.5935 23.708C69.0655 23.476 69.6215 23.36 70.2615 23.36C70.9015 23.36 71.4415 23.472 71.8815 23.696C72.3215 23.912 72.6575 24.228 72.8895 24.644C73.1215 25.06 73.2375 25.564 73.2375 26.156C73.2375 26.244 73.2375 26.332 73.2375 26.42C73.2375 26.5 73.2295 26.568 73.2135 26.624H68.1735V25.616H71.5815L71.1495 26.168C71.1895 26.112 71.2215 26.044 71.2455 25.964C71.2775 25.876 71.2935 25.804 71.2935 25.748C71.2935 25.508 71.2495 25.3 71.1615 25.124C71.0735 24.948 70.9495 24.812 70.7895 24.716C70.6295 24.62 70.4415 24.572 70.2255 24.572C69.9535 24.572 69.7255 24.632 69.5415 24.752C69.3575 24.872 69.2175 25.056 69.1215 25.304C69.0335 25.544 68.9855 25.848 68.9775 26.216C68.9775 26.552 69.0255 26.84 69.1215 27.08C69.2175 27.32 69.3615 27.504 69.5535 27.632C69.7455 27.752 69.9815 27.812 70.2615 27.812C70.5815 27.812 70.8535 27.752 71.0775 27.632C71.3095 27.512 71.4935 27.332 71.6295 27.092L73.2495 27.488C72.9615 28.032 72.5695 28.44 72.0735 28.712C71.5855 28.984 70.9895 29.12 70.2855 29.12ZM75.7604 27.272C75.7604 27.416 75.7964 27.54 75.8684 27.644C75.9404 27.74 76.0364 27.816 76.1564 27.872C76.2764 27.92 76.4084 27.944 76.5524 27.944C76.7604 27.944 76.9524 27.9 77.1284 27.812C77.3044 27.724 77.4484 27.592 77.5604 27.416C77.6724 27.24 77.7284 27.024 77.7284 26.768L77.9204 27.488C77.9204 27.84 77.8244 28.14 77.6324 28.388C77.4404 28.628 77.1924 28.812 76.8884 28.94C76.5844 29.06 76.2564 29.12 75.9044 29.12C75.5524 29.12 75.2244 29.056 74.9204 28.928C74.6244 28.792 74.3844 28.592 74.2004 28.328C74.0244 28.064 73.9364 27.744 73.9364 27.368C73.9364 26.84 74.1244 26.424 74.5004 26.12C74.8764 25.808 75.4084 25.652 76.0964 25.652C76.4324 25.652 76.7324 25.684 76.9964 25.748C77.2684 25.812 77.5004 25.892 77.6924 25.988C77.8844 26.084 78.0284 26.184 78.1244 26.288V27.092C77.9324 26.948 77.7084 26.84 77.4524 26.768C77.2044 26.688 76.9404 26.648 76.6604 26.648C76.4444 26.648 76.2724 26.672 76.1444 26.72C76.0164 26.768 75.9204 26.84 75.8564 26.936C75.7924 27.024 75.7604 27.136 75.7604 27.272ZM74.9564 25.172L74.3444 23.96C74.6564 23.808 75.0324 23.664 75.4724 23.528C75.9124 23.392 76.3924 23.324 76.9124 23.324C77.4004 23.324 77.8364 23.396 78.2204 23.54C78.6044 23.676 78.9084 23.876 79.1324 24.14C79.3564 24.404 79.4684 24.728 79.4684 25.112V29H77.7284V25.52C77.7284 25.384 77.7044 25.268 77.6564 25.172C77.6164 25.068 77.5524 24.98 77.4644 24.908C77.3764 24.836 77.2644 24.784 77.1284 24.752C77.0004 24.72 76.8524 24.704 76.6844 24.704C76.4364 24.704 76.1924 24.732 75.9524 24.788C75.7204 24.844 75.5164 24.912 75.3404 24.992C75.1644 25.064 75.0364 25.124 74.9564 25.172ZM82.3492 26.24C82.3492 26.536 82.4132 26.792 82.5412 27.008C82.6692 27.216 82.8452 27.38 83.0692 27.5C83.3012 27.62 83.5492 27.68 83.8132 27.68C84.0372 27.68 84.2492 27.648 84.4492 27.584C84.6572 27.512 84.8452 27.416 85.0132 27.296C85.1892 27.176 85.3332 27.028 85.4452 26.852V28.616C85.2532 28.768 85.0132 28.892 84.7252 28.988C84.4372 29.076 84.0852 29.12 83.6692 29.12C83.0612 29.12 82.5132 29 82.0252 28.76C81.5452 28.52 81.1652 28.184 80.8852 27.752C80.6132 27.32 80.4772 26.816 80.4772 26.24C80.4772 25.656 80.6132 25.152 80.8852 24.728C81.1652 24.296 81.5452 23.96 82.0252 23.72C82.5132 23.48 83.0612 23.36 83.6692 23.36C84.0852 23.36 84.4372 23.408 84.7252 23.504C85.0132 23.592 85.2532 23.704 85.4452 23.84V25.616C85.3332 25.44 85.1852 25.292 85.0012 25.172C84.8252 25.052 84.6332 24.96 84.4252 24.896C84.2172 24.832 84.0132 24.8 83.8132 24.8C83.5492 24.8 83.3012 24.864 83.0692 24.992C82.8452 25.12 82.6692 25.292 82.5412 25.508C82.4132 25.724 82.3492 25.968 82.3492 26.24ZM86.1069 23.48H89.8029V24.98H86.1069V23.48ZM87.0789 21.56H88.8189V29H87.0789V21.56Z" fill="white"/>
</svg>
