<svg width="89" height="44" viewBox="0 0 89 44" fill="none" xmlns="http://www.w3.org/2000/svg">
<rect width="89" height="44" rx="10" fill="#898AA6"/>
<rect x="8" y="4" width="36" height="36" rx="18" fill="white"/>
<g clip-path="url(#clip0_5_97)">
<path fill-rule="evenodd" clip-rule="evenodd" d="M26 12C31.5229 12 36 16.4772 36 22C36 27.5229 31.5229 32 26 32C20.4772 32 16 27.5229 16 22C16 16.4772 20.4772 12 26 12Z" fill="#CC6699"/>
<path d="M32.2727 16.2801C31.8198 14.5041 28.875 13.9202 26.0879 14.9104C24.4292 15.4997 22.6335 16.4245 21.3424 17.6322C19.8073 19.0681 19.5625 20.3178 19.6634 20.84C20.0193 22.6826 22.5441 23.887 23.582 24.7806V24.7861C23.2759 24.9367 21.036 26.0703 20.5118 27.2292C19.9586 28.4518 20.5998 29.3292 21.0243 29.4473C22.3395 29.8132 23.6891 29.155 24.4144 28.0732C25.1143 27.0292 25.0561 25.681 24.7519 25.0104C25.1715 24.8997 25.6606 24.8501 26.2823 24.9227C28.0365 25.1276 28.3806 26.2229 28.3148 26.6813C28.249 27.1397 27.8811 27.3917 27.7581 27.4678C27.635 27.5439 27.5975 27.5703 27.6078 27.6268C27.6227 27.7091 27.6797 27.706 27.7846 27.6883C27.929 27.6639 28.7057 27.3154 28.7389 26.4692C28.7812 25.3949 27.7517 24.1932 25.9288 24.2246C25.1781 24.2375 24.706 24.309 24.365 24.4358C24.3396 24.4069 24.3138 24.3784 24.2876 24.3502C23.1606 23.1479 21.0773 22.2974 21.1656 20.6809C21.1978 20.0933 21.402 18.5459 25.1688 16.669C28.2544 15.1314 30.7246 15.5545 31.1515 16.4922C31.7613 17.8318 29.8313 20.3218 26.6269 20.6809C25.406 20.8178 24.7632 20.3446 24.6032 20.1684C24.4349 19.9829 24.4098 19.9745 24.347 20.0093C24.2446 20.066 24.3095 20.2298 24.347 20.3274C24.4427 20.5764 24.8352 21.018 25.5046 21.2376C26.0934 21.4309 27.5268 21.537 29.2604 20.8665C31.2019 20.1155 32.718 18.0264 32.2727 16.2801ZM24.0127 25.331C24.1582 25.8692 24.1422 26.3711 23.9919 26.8256C23.8724 27.187 23.6668 27.5148 23.4103 27.7947C22.8293 28.4286 22.0175 28.6683 21.6694 28.4663C21.2935 28.2484 21.4818 27.3547 22.1554 26.6427C22.8801 25.8766 23.9228 25.384 23.9228 25.384L23.9213 25.3809C23.9513 25.3647 23.9818 25.3481 24.0127 25.331Z" fill="white"/>
</g>
<path d="M58.582 23.66C58.582 24.148 58.456 24.582 58.204 24.962C57.956 25.338 57.596 25.632 57.124 25.844C56.656 26.056 56.09 26.162 55.426 26.162C54.754 26.162 54.164 26.062 53.656 25.862C53.152 25.658 52.726 25.388 52.378 25.052L53.14 24.2C53.436 24.468 53.77 24.68 54.142 24.836C54.514 24.988 54.94 25.064 55.42 25.064C55.732 25.064 56.018 25.016 56.278 24.92C56.538 24.82 56.746 24.672 56.902 24.476C57.058 24.276 57.136 24.026 57.136 23.726C57.136 23.482 57.086 23.276 56.986 23.108C56.886 22.94 56.712 22.788 56.464 22.652C56.22 22.516 55.878 22.384 55.438 22.256C54.854 22.08 54.364 21.884 53.968 21.668C53.572 21.452 53.272 21.194 53.068 20.894C52.868 20.59 52.768 20.222 52.768 19.79C52.768 19.342 52.89 18.95 53.134 18.614C53.382 18.278 53.72 18.018 54.148 17.834C54.58 17.646 55.068 17.552 55.612 17.552C56.212 17.552 56.736 17.638 57.184 17.81C57.632 17.982 58.032 18.228 58.384 18.548L57.652 19.376C57.36 19.12 57.046 18.934 56.71 18.818C56.378 18.702 56.04 18.644 55.696 18.644C55.416 18.644 55.162 18.684 54.934 18.764C54.706 18.844 54.526 18.962 54.394 19.118C54.262 19.274 54.196 19.472 54.196 19.712C54.196 19.924 54.254 20.106 54.37 20.258C54.49 20.41 54.69 20.552 54.97 20.684C55.254 20.812 55.642 20.95 56.134 21.098C56.598 21.234 57.014 21.402 57.382 21.602C57.754 21.802 58.046 22.064 58.258 22.388C58.474 22.712 58.582 23.136 58.582 23.66ZM63.4913 17.552C64.0513 17.552 64.5233 17.626 64.9073 17.774C65.2953 17.918 65.6553 18.126 65.9873 18.398L65.2613 19.262C65.0133 19.054 64.7473 18.9 64.4633 18.8C64.1793 18.7 63.8773 18.65 63.5573 18.65C63.1453 18.65 62.7653 18.754 62.4173 18.962C62.0693 19.17 61.7893 19.508 61.5773 19.976C61.3693 20.444 61.2653 21.068 61.2653 21.848C61.2653 22.612 61.3653 23.228 61.5653 23.696C61.7653 24.164 62.0393 24.504 62.3873 24.716C62.7353 24.928 63.1253 25.034 63.5573 25.034C64.0013 25.034 64.3693 24.962 64.6613 24.818C64.9533 24.67 65.2113 24.504 65.4353 24.32L66.1073 25.178C65.8313 25.446 65.4813 25.678 65.0573 25.874C64.6333 26.066 64.1173 26.162 63.5093 26.162C62.8093 26.162 62.1793 25.998 61.6193 25.67C61.0633 25.338 60.6233 24.852 60.2993 24.212C59.9793 23.572 59.8193 22.784 59.8193 21.848C59.8193 20.92 59.9853 20.138 60.3173 19.502C60.6493 18.862 61.0933 18.378 61.6493 18.05C62.2053 17.718 62.8193 17.552 63.4913 17.552ZM72.9726 23.66C72.9726 24.148 72.8466 24.582 72.5946 24.962C72.3466 25.338 71.9866 25.632 71.5146 25.844C71.0466 26.056 70.4806 26.162 69.8166 26.162C69.1446 26.162 68.5546 26.062 68.0466 25.862C67.5426 25.658 67.1166 25.388 66.7686 25.052L67.5306 24.2C67.8266 24.468 68.1606 24.68 68.5326 24.836C68.9046 24.988 69.3306 25.064 69.8106 25.064C70.1226 25.064 70.4086 25.016 70.6686 24.92C70.9286 24.82 71.1366 24.672 71.2926 24.476C71.4486 24.276 71.5266 24.026 71.5266 23.726C71.5266 23.482 71.4766 23.276 71.3766 23.108C71.2766 22.94 71.1026 22.788 70.8546 22.652C70.6106 22.516 70.2686 22.384 69.8286 22.256C69.2446 22.08 68.7546 21.884 68.3586 21.668C67.9626 21.452 67.6626 21.194 67.4586 20.894C67.2586 20.59 67.1586 20.222 67.1586 19.79C67.1586 19.342 67.2806 18.95 67.5246 18.614C67.7726 18.278 68.1106 18.018 68.5386 17.834C68.9706 17.646 69.4586 17.552 70.0026 17.552C70.6026 17.552 71.1266 17.638 71.5746 17.81C72.0226 17.982 72.4226 18.228 72.7746 18.548L72.0426 19.376C71.7506 19.12 71.4366 18.934 71.1006 18.818C70.7686 18.702 70.4306 18.644 70.0866 18.644C69.8066 18.644 69.5526 18.684 69.3246 18.764C69.0966 18.844 68.9166 18.962 68.7846 19.118C68.6526 19.274 68.5866 19.472 68.5866 19.712C68.5866 19.924 68.6446 20.106 68.7606 20.258C68.8806 20.41 69.0806 20.552 69.3606 20.684C69.6446 20.812 70.0326 20.95 70.5246 21.098C70.9886 21.234 71.4046 21.402 71.7726 21.602C72.1446 21.802 72.4366 22.064 72.6486 22.388C72.8646 22.712 72.9726 23.136 72.9726 23.66ZM80.1679 23.66C80.1679 24.148 80.0419 24.582 79.7899 24.962C79.5419 25.338 79.1819 25.632 78.7099 25.844C78.2419 26.056 77.6759 26.162 77.0119 26.162C76.3399 26.162 75.7499 26.062 75.2419 25.862C74.7379 25.658 74.3119 25.388 73.9639 25.052L74.7259 24.2C75.0219 24.468 75.3559 24.68 75.7279 24.836C76.0999 24.988 76.5259 25.064 77.0059 25.064C77.3179 25.064 77.6039 25.016 77.8639 24.92C78.1239 24.82 78.3319 24.672 78.4879 24.476C78.6439 24.276 78.7219 24.026 78.7219 23.726C78.7219 23.482 78.6719 23.276 78.5719 23.108C78.4719 22.94 78.2979 22.788 78.0499 22.652C77.8059 22.516 77.4639 22.384 77.0239 22.256C76.4399 22.08 75.9499 21.884 75.5539 21.668C75.1579 21.452 74.8579 21.194 74.6539 20.894C74.4539 20.59 74.3539 20.222 74.3539 19.79C74.3539 19.342 74.4759 18.95 74.7199 18.614C74.9679 18.278 75.3059 18.018 75.7339 17.834C76.1659 17.646 76.6539 17.552 77.1979 17.552C77.7979 17.552 78.3219 17.638 78.7699 17.81C79.2179 17.982 79.6179 18.228 79.9699 18.548L79.2379 19.376C78.9459 19.12 78.6319 18.934 78.2959 18.818C77.9639 18.702 77.6259 18.644 77.2819 18.644C77.0019 18.644 76.7479 18.684 76.5199 18.764C76.2919 18.844 76.1119 18.962 75.9799 19.118C75.8479 19.274 75.7819 19.472 75.7819 19.712C75.7819 19.924 75.8399 20.106 75.9559 20.258C76.0759 20.41 76.2759 20.552 76.5559 20.684C76.8399 20.812 77.2279 20.95 77.7199 21.098C78.1839 21.234 78.5999 21.402 78.9679 21.602C79.3399 21.802 79.6319 22.064 79.8439 22.388C80.0599 22.712 80.1679 23.136 80.1679 23.66Z" fill="white"/>
<defs>
<clipPath id="clip0_5_97">
<rect width="20" height="20" fill="white" transform="translate(16 12)"/>
</clipPath>
</defs>
</svg>
