<svg width="102" height="49" viewBox="0 0 102 49" fill="none" xmlns="http://www.w3.org/2000/svg">
<rect width="102" height="49" rx="10" fill="#898AA6"/>
<rect x="12" y="6" width="37" height="37" rx="18.5" fill="white"/>
<path fill-rule="evenodd" clip-rule="evenodd" d="M20.2 23.2131C20.2 23.3284 20.2339 23.4046 20.253 23.4785C20.377 23.9597 20.6436 24.3727 20.9599 24.7494C21.4104 25.2862 21.9622 25.7183 22.5274 26.1247C23.0176 26.4771 23.5178 26.8216 24.01 27.1714C24.0945 27.2315 24.1744 27.3005 24.2661 27.3742C24.1872 27.4169 24.1216 27.4544 24.0533 27.4891C23.4038 27.8185 22.7789 28.1878 22.2029 28.6352C21.8557 28.9049 21.52 29.1915 21.283 29.5661C20.9015 30.1685 20.7665 30.8103 21.0508 31.4956C21.1338 31.6958 21.2605 31.8687 21.4391 31.9965C21.4971 32.0379 21.562 32.0789 21.6298 32.0949C21.8034 32.1358 21.9802 32.1625 22.1559 32.1949L22.6535 32.1945C23.2038 32.1455 23.7047 31.957 24.1573 31.6446C24.8648 31.1563 25.3414 30.5017 25.5463 29.6616C25.6953 29.0509 25.7013 28.4396 25.5258 27.8318C25.509 27.7755 25.4896 27.72 25.4677 27.6654C25.4464 27.6108 25.4213 27.5576 25.3917 27.4895L26.5198 26.8408L26.5367 26.8553C26.5162 26.9224 26.4944 26.9893 26.4759 27.0571C26.3418 27.5466 26.2527 28.0447 26.2847 28.5528C26.3189 29.0942 26.47 29.601 26.7869 30.0534C27.0432 30.4192 27.6538 30.4328 27.9262 30.0657C28.0228 29.9352 28.1165 29.7989 28.1869 29.6534C28.3708 29.2736 28.5411 28.887 28.7168 28.5031L28.7475 28.4329C28.7348 28.6147 28.7201 28.7743 28.7133 28.9341C28.7028 29.1837 28.7174 29.4317 28.8028 29.6691C28.8758 29.8722 29 30.024 29.2326 30.0507C29.3917 30.0689 29.5186 29.9961 29.6355 29.9037C29.8168 29.7605 29.967 29.582 30.077 29.3789C30.3889 28.8061 30.7092 28.2369 30.9918 27.6497C31.2977 27.0146 31.5651 26.361 31.8491 25.715L31.896 25.6005C31.9631 25.8642 32.0099 26.1224 32.096 26.3669C32.1961 26.6505 32.3199 26.9275 32.4548 27.1967C32.5186 27.3238 32.5112 27.4064 32.4228 27.513C32.0527 27.9593 31.6889 28.4109 31.3249 28.8621C31.2443 28.9617 31.1641 29.0631 31.097 29.1718C31.0563 29.2405 31.0295 29.3166 31.0183 29.3956C31.007 29.4684 31.0243 29.5427 31.0666 29.603C31.1089 29.6633 31.1729 29.7049 31.2452 29.719C31.391 29.7504 31.5406 29.7611 31.6894 29.7507C32.1975 29.7132 32.6589 29.5349 33.0667 29.2327C33.5952 28.8413 33.7648 28.3071 33.6369 27.674C33.6022 27.5022 33.541 27.3352 33.4815 27.1696C33.4548 27.095 33.4529 27.0426 33.5017 26.9731C33.9241 26.3698 34.2851 25.7298 34.6207 25.075C34.634 25.0493 34.6477 25.0235 34.6709 24.996C34.7797 25.562 34.9435 26.1075 35.2368 26.6025C35.0872 26.7467 34.939 26.8774 34.805 27.0215C34.5098 27.3388 34.2539 27.6833 34.1204 28.1035C34.0629 28.2846 34.0188 28.4687 34.0444 28.6621C34.0841 28.9625 34.3302 29.1577 34.6257 29.0893C35.258 28.943 35.8038 28.645 36.2026 28.1172C36.471 27.7619 36.4955 27.3655 36.3831 26.9503C36.3523 26.8374 36.3157 26.7263 36.2763 26.5969C36.4323 26.5485 36.5844 26.4904 36.7417 26.4545C37.5586 26.2681 38.3666 26.3006 39.1538 26.5956C39.6133 26.7678 39.9846 27.0561 40.2048 27.5096C40.4737 28.0639 40.325 28.5899 39.8025 28.9404C39.7538 28.973 39.698 28.9988 39.6576 29.0396C39.6447 29.0546 39.635 29.0721 39.6292 29.091C39.6235 29.11 39.6217 29.1299 39.624 29.1495C39.6274 29.1697 39.6808 29.195 39.7114 29.1946C39.8832 29.1933 40.0225 29.1033 40.1562 29.0107C40.4912 28.7789 40.7357 28.467 40.7883 28.0564L40.7987 28.0255L40.786 27.7581C40.781 27.7427 40.7898 27.7274 40.7887 27.7158C40.7175 27.1178 40.398 26.654 39.9334 26.2904C39.3953 25.8696 38.7599 25.6963 38.0879 25.6689C37.5429 25.6455 36.9985 25.7293 36.4858 25.9155C36.3386 25.9689 36.1928 26.032 36.0448 26.0916C36.025 26.0556 36.0036 26.0212 35.9861 25.9856C35.8342 25.6745 35.6501 25.3772 35.6094 25.0206C35.5805 24.7673 35.5451 24.5143 35.6053 24.2637C35.6632 24.0227 35.7387 23.7858 35.8097 23.5481C35.8463 23.4257 35.8205 23.3571 35.7037 23.302C35.663 23.2817 35.6196 23.2675 35.5748 23.2597C35.2877 23.218 35.0045 23.2418 34.7264 23.3227C34.628 23.3514 34.5564 23.4065 34.5346 23.5155C34.5221 23.578 34.4967 23.6379 34.479 23.6995C34.4063 23.956 34.3548 24.2173 34.2373 24.4616C33.943 25.0744 33.607 25.664 33.2631 26.2494C33.2259 26.3126 33.1867 26.3746 33.1398 26.4512C33.019 26.1985 32.8902 25.9718 32.8512 25.706C32.807 25.4055 32.7723 25.1054 32.8471 24.8071C32.9027 24.5847 32.9754 24.3663 33.0423 24.1468C33.074 24.0424 33.0594 23.9876 32.9649 23.9327C32.9171 23.9049 32.8631 23.8803 32.8093 23.8723C32.5149 23.8275 32.2141 23.8521 31.9309 23.9442C31.8419 23.973 31.7951 24.0306 31.7679 24.1225C31.6878 24.3935 31.6196 24.6711 31.5072 24.9289C31.0521 25.9723 30.5838 27.0103 30.1161 28.0482C30.0185 28.2649 29.9041 28.4741 29.794 28.6851C29.7661 28.7386 29.7254 28.7856 29.6907 28.8358C29.6628 28.8029 29.6519 28.7802 29.6521 28.7576C29.6529 28.6242 29.637 28.4869 29.6624 28.3579C29.7405 27.9679 29.8269 27.5796 29.9213 27.1932C29.9984 26.874 30.0882 26.5577 30.1737 26.2405C30.2024 26.1344 30.2029 26.0351 30.1266 25.9459C29.9984 25.7964 29.7307 25.7636 29.5719 25.8788L29.5017 25.9185L29.5153 25.8053C29.5488 25.5626 29.5555 25.3208 29.4889 25.0818C29.4059 24.7838 29.1932 24.6124 28.8841 24.6219C28.7401 24.6263 28.5888 24.6509 28.4554 24.7034C27.8945 24.9233 27.4632 25.3126 27.096 25.781C27.062 25.8245 27.0198 25.8609 26.9718 25.8883C26.4972 26.1515 26.0211 26.4113 25.5451 26.6722L25.0154 26.9624C24.8733 26.8269 24.7442 26.6863 24.5977 26.567C24.1503 26.2021 23.6957 25.8463 23.2451 25.4855C22.8458 25.1658 22.459 24.8327 22.163 24.4093C21.9428 24.0943 21.8009 23.7496 21.7873 23.3601C21.7701 22.8638 21.9108 22.4103 22.1635 21.9882C22.4867 21.4481 22.9275 21.0147 23.4122 20.6221C23.9249 20.207 24.4794 19.8546 25.0541 19.5328C25.8582 19.0828 26.6852 18.6845 27.572 18.4215C28.4812 18.1518 29.4037 17.9974 30.3553 18.105C30.7293 18.1473 31.0926 18.233 31.4261 18.4159C31.6816 18.5559 31.8911 18.7391 31.9885 19.0256C32.0847 19.3074 32.0817 19.5931 32.0151 19.8793C31.8798 20.4591 31.5623 20.9371 31.1628 21.3641C30.5075 22.0642 29.7082 22.5408 28.8083 22.8556C28.2909 23.0369 27.7526 23.1517 27.2063 23.1973C26.7585 23.2349 26.3202 23.1952 25.8962 23.0395C25.6155 22.9363 25.3711 22.7785 25.1745 22.5495C25.1394 22.5084 25.0945 22.464 25.029 22.5024C24.9648 22.5401 24.9535 22.6011 24.975 22.663C25.0109 22.7657 25.0441 22.8727 25.1 22.9645C25.2406 23.195 25.4457 23.3622 25.6715 23.5056C26.1051 23.7814 26.5897 23.8741 27.0922 23.8956C27.8548 23.9286 28.5988 23.8147 29.3324 23.6101C30.3796 23.3181 31.2901 22.8023 32.0204 21.9885C32.6284 21.311 33.0626 20.5463 33.1557 19.6229C33.2011 19.1722 33.1527 18.7307 32.9417 18.3196C32.7129 17.8742 32.349 17.5429 31.9139 17.3147C31.2803 16.9825 30.5965 16.7891 29.8907 16.7891H29.1836C28.3288 16.7891 27.5024 17.034 26.6992 17.3262C26.0911 17.5475 25.4949 17.8087 24.9161 18.0978C23.6556 18.7276 22.4818 19.4871 21.5176 20.5313C21.0372 21.0516 20.6305 21.6256 20.3965 22.3016C20.3259 22.5034 20.2651 22.7085 20.2143 22.9161M24.7816 28.8245C24.727 29.5561 24.3954 30.1492 23.8535 30.6295C23.5487 30.8996 23.199 31.0919 22.7918 31.1595C22.6442 31.1839 22.4931 31.1898 22.3499 31.1286C22.1456 31.0413 22.0998 30.86 22.0959 30.6669C22.0898 30.3592 22.1976 30.0809 22.3454 29.8161C22.5384 29.4709 22.8212 29.2078 23.1232 28.962C23.599 28.5747 24.1152 28.2469 24.6438 27.9374L24.6836 27.921C24.7653 28.2229 24.8042 28.521 24.7816 28.8245V28.8245ZM28.9091 25.6452C28.8705 25.8788 28.8223 26.1126 28.754 26.339C28.5181 27.1227 28.2151 27.8821 27.8875 28.6314C27.8269 28.7701 27.7388 28.8965 27.6622 29.028C27.6492 29.0482 27.6336 29.0666 27.6158 29.0828C27.5209 29.1764 27.431 29.1715 27.3831 29.049C27.3273 28.9066 27.2931 28.7541 27.2635 28.6034C27.2437 28.5021 27.2484 28.3958 27.2422 28.2921C27.2486 27.5548 27.4735 26.8848 27.8551 26.261C28.0125 26.0038 28.1838 25.7587 28.4454 25.5959C28.5268 25.5453 28.6149 25.5063 28.7071 25.4801C28.8466 25.4409 28.9322 25.5054 28.9091 25.6452V25.6452ZM31.725 29.2329L32.7371 28.0511C32.7793 28.49 32.0333 29.3661 31.725 29.2329ZM34.9576 28.4377C34.886 28.4787 34.8081 28.5082 34.7348 28.5461C34.6677 28.5809 34.6455 28.5458 34.6435 28.488C34.6426 28.4481 34.6477 28.4082 34.6588 28.3697C34.7955 27.8877 35.047 27.4763 35.4212 27.1416L35.4475 27.1281C35.6255 27.626 35.4197 28.1729 34.9576 28.4377Z" fill="#CB6699"/>
<path d="M60.812 26.048C60.98 26.352 61.168 26.616 61.376 26.84C61.592 27.064 61.824 27.236 62.072 27.356C62.328 27.476 62.596 27.536 62.876 27.536C63.172 27.536 63.416 27.464 63.608 27.32C63.8 27.168 63.896 26.964 63.896 26.708C63.896 26.492 63.84 26.32 63.728 26.192C63.616 26.056 63.436 25.928 63.188 25.808C62.94 25.688 62.612 25.552 62.204 25.4C62.004 25.328 61.772 25.228 61.508 25.1C61.252 24.972 61.008 24.808 60.776 24.608C60.544 24.4 60.352 24.152 60.2 23.864C60.048 23.568 59.972 23.212 59.972 22.796C59.972 22.3 60.1 21.872 60.356 21.512C60.62 21.152 60.972 20.88 61.412 20.696C61.86 20.504 62.356 20.408 62.9 20.408C63.46 20.408 63.944 20.5 64.352 20.684C64.768 20.868 65.112 21.1 65.384 21.38C65.656 21.66 65.864 21.944 66.008 22.232L64.46 23.096C64.34 22.896 64.2 22.724 64.04 22.58C63.888 22.428 63.716 22.312 63.524 22.232C63.34 22.144 63.14 22.1 62.924 22.1C62.636 22.1 62.416 22.164 62.264 22.292C62.112 22.412 62.036 22.564 62.036 22.748C62.036 22.94 62.108 23.108 62.252 23.252C62.404 23.396 62.616 23.528 62.888 23.648C63.168 23.768 63.504 23.896 63.896 24.032C64.192 24.144 64.468 24.276 64.724 24.428C64.98 24.572 65.204 24.748 65.396 24.956C65.596 25.164 65.752 25.404 65.864 25.676C65.976 25.948 66.032 26.26 66.032 26.612C66.032 27.036 65.944 27.416 65.768 27.752C65.6 28.08 65.368 28.356 65.072 28.58C64.784 28.804 64.452 28.972 64.076 29.084C63.708 29.204 63.328 29.264 62.936 29.264C62.392 29.264 61.884 29.168 61.412 28.976C60.948 28.776 60.544 28.508 60.2 28.172C59.856 27.836 59.588 27.468 59.396 27.068L60.812 26.048ZM69.116 24.8C69.116 25.312 69.232 25.756 69.464 26.132C69.696 26.5 70 26.78 70.376 26.972C70.76 27.164 71.18 27.26 71.636 27.26C72.036 27.26 72.388 27.208 72.692 27.104C72.996 27 73.268 26.864 73.508 26.696C73.748 26.528 73.96 26.348 74.144 26.156V28.34C73.808 28.604 73.44 28.812 73.04 28.964C72.64 29.116 72.132 29.192 71.516 29.192C70.844 29.192 70.224 29.088 69.656 28.88C69.088 28.672 68.6 28.372 68.192 27.98C67.784 27.588 67.468 27.124 67.244 26.588C67.02 26.052 66.908 25.456 66.908 24.8C66.908 24.144 67.02 23.548 67.244 23.012C67.468 22.476 67.784 22.012 68.192 21.62C68.6 21.228 69.088 20.928 69.656 20.72C70.224 20.512 70.844 20.408 71.516 20.408C72.132 20.408 72.64 20.484 73.04 20.636C73.44 20.788 73.808 20.996 74.144 21.26V23.444C73.96 23.252 73.748 23.072 73.508 22.904C73.268 22.728 72.996 22.592 72.692 22.496C72.388 22.392 72.036 22.34 71.636 22.34C71.18 22.34 70.76 22.436 70.376 22.628C70 22.82 69.696 23.1 69.464 23.468C69.232 23.836 69.116 24.28 69.116 24.8ZM76.7261 26.048C76.8941 26.352 77.0821 26.616 77.2901 26.84C77.5061 27.064 77.7381 27.236 77.9861 27.356C78.2421 27.476 78.5101 27.536 78.7901 27.536C79.0861 27.536 79.3301 27.464 79.5221 27.32C79.7141 27.168 79.8101 26.964 79.8101 26.708C79.8101 26.492 79.7541 26.32 79.6421 26.192C79.5301 26.056 79.3501 25.928 79.1021 25.808C78.8541 25.688 78.5261 25.552 78.1181 25.4C77.9181 25.328 77.6861 25.228 77.4221 25.1C77.1661 24.972 76.9221 24.808 76.6901 24.608C76.4581 24.4 76.2661 24.152 76.1141 23.864C75.9621 23.568 75.8861 23.212 75.8861 22.796C75.8861 22.3 76.0141 21.872 76.2701 21.512C76.5341 21.152 76.8861 20.88 77.3261 20.696C77.7741 20.504 78.2701 20.408 78.8141 20.408C79.3741 20.408 79.8581 20.5 80.2661 20.684C80.6821 20.868 81.0261 21.1 81.2981 21.38C81.5701 21.66 81.7781 21.944 81.9221 22.232L80.3741 23.096C80.2541 22.896 80.1141 22.724 79.9541 22.58C79.8021 22.428 79.6301 22.312 79.4381 22.232C79.2541 22.144 79.0541 22.1 78.8381 22.1C78.5501 22.1 78.3301 22.164 78.1781 22.292C78.0261 22.412 77.9501 22.564 77.9501 22.748C77.9501 22.94 78.0221 23.108 78.1661 23.252C78.3181 23.396 78.5301 23.528 78.8021 23.648C79.0821 23.768 79.4181 23.896 79.8101 24.032C80.1061 24.144 80.3821 24.276 80.6381 24.428C80.8941 24.572 81.1181 24.748 81.3101 24.956C81.5101 25.164 81.6661 25.404 81.7781 25.676C81.8901 25.948 81.9461 26.26 81.9461 26.612C81.9461 27.036 81.8581 27.416 81.6821 27.752C81.5141 28.08 81.2821 28.356 80.9861 28.58C80.6981 28.804 80.3661 28.972 79.9901 29.084C79.6221 29.204 79.2421 29.264 78.8501 29.264C78.3061 29.264 77.7981 29.168 77.3261 28.976C76.8621 28.776 76.4581 28.508 76.1141 28.172C75.7701 27.836 75.5021 27.468 75.3101 27.068L76.7261 26.048ZM84.2261 26.048C84.3941 26.352 84.5821 26.616 84.7901 26.84C85.0061 27.064 85.2381 27.236 85.4861 27.356C85.7421 27.476 86.0101 27.536 86.2901 27.536C86.5861 27.536 86.8301 27.464 87.0221 27.32C87.2141 27.168 87.3101 26.964 87.3101 26.708C87.3101 26.492 87.2541 26.32 87.1421 26.192C87.0301 26.056 86.8501 25.928 86.6021 25.808C86.3541 25.688 86.0261 25.552 85.6181 25.4C85.4181 25.328 85.1861 25.228 84.9221 25.1C84.6661 24.972 84.4221 24.808 84.1901 24.608C83.9581 24.4 83.7661 24.152 83.6141 23.864C83.4621 23.568 83.3861 23.212 83.3861 22.796C83.3861 22.3 83.5141 21.872 83.7701 21.512C84.0341 21.152 84.3861 20.88 84.8261 20.696C85.2741 20.504 85.7701 20.408 86.3141 20.408C86.8741 20.408 87.3581 20.5 87.7661 20.684C88.1821 20.868 88.5261 21.1 88.7981 21.38C89.0701 21.66 89.2781 21.944 89.4221 22.232L87.8741 23.096C87.7541 22.896 87.6141 22.724 87.4541 22.58C87.3021 22.428 87.1301 22.312 86.9381 22.232C86.7541 22.144 86.5541 22.1 86.3381 22.1C86.0501 22.1 85.8301 22.164 85.6781 22.292C85.5261 22.412 85.4501 22.564 85.4501 22.748C85.4501 22.94 85.5221 23.108 85.6661 23.252C85.8181 23.396 86.0301 23.528 86.3021 23.648C86.5821 23.768 86.9181 23.896 87.3101 24.032C87.6061 24.144 87.8821 24.276 88.1381 24.428C88.3941 24.572 88.6181 24.748 88.8101 24.956C89.0101 25.164 89.1661 25.404 89.2781 25.676C89.3901 25.948 89.4461 26.26 89.4461 26.612C89.4461 27.036 89.3581 27.416 89.1821 27.752C89.0141 28.08 88.7821 28.356 88.4861 28.58C88.1981 28.804 87.8661 28.972 87.4901 29.084C87.1221 29.204 86.7421 29.264 86.3501 29.264C85.8061 29.264 85.2981 29.168 84.8261 28.976C84.3621 28.776 83.9581 28.508 83.6141 28.172C83.2701 27.836 83.0021 27.468 82.8101 27.068L84.2261 26.048Z" fill="white"/>
</svg>
