<svg width="147" height="44" viewBox="0 0 147 44" fill="none" xmlns="http://www.w3.org/2000/svg">
<rect width="147" height="44" rx="10" fill="#898AA6"/>
<rect x="8" y="4" width="36" height="36" rx="18" fill="white"/>
<path d="M26.0006 16.0003C23.3339 16.0003 21.6678 17.3331 21.0006 19.9998C22.0003 18.6669 23.1673 18.167 24.5003 18.5003C25.2614 18.69 25.8053 19.2419 26.4076 19.8534C27.388 20.8483 28.5226 22 31.0006 22C33.6672 22 35.3334 20.667 36.0006 17.9997C35.0008 19.3334 33.8339 19.8333 32.5008 19.5C31.7398 19.3101 31.1965 18.7584 30.5934 18.1469C29.6137 17.152 28.4794 16.0003 26.0006 16.0003V16.0003ZM21.0006 22C18.334 22 16.6678 23.333 16.0006 26.0003C17.0003 24.6666 18.1672 24.1667 19.5003 24.5C20.2614 24.6898 20.8053 25.2416 21.4076 25.8531C22.388 26.848 23.5226 27.9997 26.0006 27.9997C28.6672 27.9997 30.3334 26.6669 31.0006 24.0001C30.0008 25.3331 28.8339 25.833 27.5008 25.4997C26.7398 25.31 26.1965 24.7581 25.5934 24.1466C24.6137 23.1517 23.4794 22 21.0006 22Z" fill="#38B2AC"/>
<path d="M56.278 18.842V26H54.886V18.842H52.402V17.72H58.822L58.678 18.842H56.278ZM65.1053 24.446C65.1053 24.694 65.1433 24.876 65.2193 24.992C65.2953 25.104 65.4173 25.188 65.5853 25.244L65.2853 26.156C64.9733 26.12 64.7053 26.034 64.4813 25.898C64.2573 25.762 64.0873 25.556 63.9713 25.28C63.7393 25.572 63.4453 25.792 63.0893 25.94C62.7333 26.088 62.3533 26.162 61.9493 26.162C61.3093 26.162 60.8013 25.982 60.4253 25.622C60.0533 25.258 59.8673 24.782 59.8673 24.194C59.8673 23.526 60.1273 23.012 60.6473 22.652C61.1673 22.292 61.9113 22.112 62.8793 22.112H63.7853V21.698C63.7853 21.29 63.6613 20.996 63.4133 20.816C63.1693 20.636 62.8233 20.546 62.3753 20.546C62.1673 20.546 61.9153 20.574 61.6193 20.63C61.3233 20.682 61.0133 20.764 60.6893 20.876L60.3593 19.928C60.7553 19.78 61.1433 19.672 61.5233 19.604C61.9033 19.532 62.2553 19.496 62.5793 19.496C63.4273 19.496 64.0593 19.684 64.4753 20.06C64.8953 20.436 65.1053 20.956 65.1053 21.62V24.446ZM62.3573 25.172C62.6293 25.172 62.8953 25.1 63.1553 24.956C63.4153 24.812 63.6253 24.61 63.7853 24.35V22.952H63.0413C62.4093 22.952 61.9573 23.058 61.6853 23.27C61.4133 23.478 61.2773 23.766 61.2773 24.134C61.2773 24.47 61.3673 24.728 61.5473 24.908C61.7313 25.084 62.0013 25.172 62.3573 25.172ZM70.9206 19.664V25.016H72.6426V26H67.6806V25.016H69.5766V20.648H67.7406V19.664H70.9206ZM69.9846 16.562C70.2486 16.562 70.4606 16.642 70.6206 16.802C70.7846 16.962 70.8666 17.162 70.8666 17.402C70.8666 17.642 70.7846 17.844 70.6206 18.008C70.4606 18.172 70.2486 18.254 69.9846 18.254C69.7286 18.254 69.5186 18.172 69.3546 18.008C69.1906 17.844 69.1086 17.642 69.1086 17.402C69.1086 17.162 69.1906 16.962 69.3546 16.802C69.5186 16.642 69.7286 16.562 69.9846 16.562ZM77.4379 17.12V24.272C77.4379 24.564 77.5259 24.772 77.7019 24.896C77.8819 25.016 78.1139 25.076 78.3979 25.076C78.5819 25.076 78.7559 25.056 78.9199 25.016C79.0839 24.976 79.2439 24.926 79.3999 24.866L79.7419 25.802C79.5539 25.898 79.3219 25.982 79.0459 26.054C78.7739 26.126 78.4619 26.162 78.1099 26.162C77.4739 26.162 76.9779 25.984 76.6219 25.628C76.2699 25.268 76.0939 24.776 76.0939 24.152V18.11H74.1799V17.12H77.4379ZM86.8053 26H85.1253L84.4113 21.5L83.6433 26H81.9993L80.9253 19.664H82.2213L82.8813 25.166L83.7633 20.468H85.1073L85.9293 25.166L86.5893 19.664H87.8372L86.8053 26ZM92.5066 19.664V25.016H94.2286V26H89.2666V25.016H91.1626V20.648H89.3266V19.664H92.5066ZM91.5706 16.562C91.8346 16.562 92.0466 16.642 92.2066 16.802C92.3706 16.962 92.4526 17.162 92.4526 17.402C92.4526 17.642 92.3706 17.844 92.2066 18.008C92.0466 18.172 91.8346 18.254 91.5706 18.254C91.3146 18.254 91.1046 18.172 90.9406 18.008C90.7766 17.844 90.6946 17.642 90.6946 17.402C90.6946 17.162 90.7766 16.962 90.9406 16.802C91.1046 16.642 91.3146 16.562 91.5706 16.562ZM96.2399 26V19.664H97.3979L97.4999 20.486C97.7639 20.162 98.0759 19.916 98.4359 19.748C98.7959 19.58 99.1659 19.496 99.5459 19.496C100.138 19.496 100.58 19.662 100.872 19.994C101.168 20.322 101.316 20.784 101.316 21.38V26H99.9719V22.046C99.9719 21.678 99.9499 21.382 99.9059 21.158C99.8619 20.934 99.7739 20.772 99.6419 20.672C99.5139 20.572 99.3219 20.522 99.0659 20.522C98.8619 20.522 98.6679 20.566 98.4839 20.654C98.2999 20.742 98.1319 20.858 97.9799 21.002C97.8279 21.142 97.6959 21.292 97.5839 21.452V26H96.2399ZM107.155 16.97L108.499 17.12V26H107.317L107.221 25.22C107.005 25.52 106.747 25.752 106.447 25.916C106.147 26.08 105.811 26.162 105.439 26.162C104.895 26.162 104.447 26.024 104.095 25.748C103.743 25.468 103.481 25.078 103.309 24.578C103.141 24.074 103.057 23.492 103.057 22.832C103.057 22.188 103.157 21.616 103.357 21.116C103.557 20.612 103.843 20.216 104.215 19.928C104.587 19.64 105.035 19.496 105.559 19.496C105.891 19.496 106.189 19.556 106.453 19.676C106.717 19.792 106.951 19.962 107.155 20.186V16.97ZM105.913 20.528C105.461 20.528 105.109 20.716 104.857 21.092C104.605 21.464 104.479 22.044 104.479 22.832C104.479 23.372 104.531 23.812 104.635 24.152C104.739 24.488 104.889 24.736 105.085 24.896C105.281 25.052 105.517 25.13 105.793 25.13C106.097 25.13 106.361 25.042 106.585 24.866C106.809 24.69 106.999 24.478 107.155 24.23V21.23C106.999 21.006 106.817 20.834 106.609 20.714C106.401 20.59 106.169 20.528 105.913 20.528ZM121.054 17.552C121.614 17.552 122.086 17.626 122.47 17.774C122.858 17.918 123.218 18.126 123.55 18.398L122.824 19.262C122.576 19.054 122.31 18.9 122.026 18.8C121.742 18.7 121.44 18.65 121.12 18.65C120.708 18.65 120.328 18.754 119.98 18.962C119.632 19.17 119.352 19.508 119.14 19.976C118.932 20.444 118.828 21.068 118.828 21.848C118.828 22.612 118.928 23.228 119.128 23.696C119.328 24.164 119.602 24.504 119.95 24.716C120.298 24.928 120.688 25.034 121.12 25.034C121.564 25.034 121.932 24.962 122.224 24.818C122.516 24.67 122.774 24.504 122.998 24.32L123.67 25.178C123.394 25.446 123.044 25.678 122.62 25.874C122.196 26.066 121.68 26.162 121.072 26.162C120.372 26.162 119.742 25.998 119.182 25.67C118.626 25.338 118.186 24.852 117.862 24.212C117.542 23.572 117.382 22.784 117.382 21.848C117.382 20.92 117.548 20.138 117.88 19.502C118.212 18.862 118.656 18.378 119.212 18.05C119.768 17.718 120.382 17.552 121.054 17.552ZM130.535 23.66C130.535 24.148 130.409 24.582 130.157 24.962C129.909 25.338 129.549 25.632 129.077 25.844C128.609 26.056 128.043 26.162 127.379 26.162C126.707 26.162 126.117 26.062 125.609 25.862C125.105 25.658 124.679 25.388 124.331 25.052L125.093 24.2C125.389 24.468 125.723 24.68 126.095 24.836C126.467 24.988 126.893 25.064 127.373 25.064C127.685 25.064 127.971 25.016 128.231 24.92C128.491 24.82 128.699 24.672 128.855 24.476C129.011 24.276 129.089 24.026 129.089 23.726C129.089 23.482 129.039 23.276 128.939 23.108C128.839 22.94 128.665 22.788 128.417 22.652C128.173 22.516 127.831 22.384 127.391 22.256C126.807 22.08 126.317 21.884 125.921 21.668C125.525 21.452 125.225 21.194 125.021 20.894C124.821 20.59 124.721 20.222 124.721 19.79C124.721 19.342 124.843 18.95 125.087 18.614C125.335 18.278 125.673 18.018 126.101 17.834C126.533 17.646 127.021 17.552 127.565 17.552C128.165 17.552 128.689 17.638 129.137 17.81C129.585 17.982 129.985 18.228 130.337 18.548L129.605 19.376C129.313 19.12 128.999 18.934 128.663 18.818C128.331 18.702 127.993 18.644 127.649 18.644C127.369 18.644 127.115 18.684 126.887 18.764C126.659 18.844 126.479 18.962 126.347 19.118C126.215 19.274 126.149 19.472 126.149 19.712C126.149 19.924 126.207 20.106 126.323 20.258C126.443 20.41 126.643 20.552 126.923 20.684C127.207 20.812 127.595 20.95 128.087 21.098C128.551 21.234 128.967 21.402 129.335 21.602C129.707 21.802 129.999 22.064 130.211 22.388C130.427 22.712 130.535 23.136 130.535 23.66ZM137.73 23.66C137.73 24.148 137.604 24.582 137.352 24.962C137.104 25.338 136.744 25.632 136.272 25.844C135.804 26.056 135.238 26.162 134.574 26.162C133.902 26.162 133.312 26.062 132.804 25.862C132.3 25.658 131.874 25.388 131.526 25.052L132.288 24.2C132.584 24.468 132.918 24.68 133.29 24.836C133.662 24.988 134.088 25.064 134.568 25.064C134.88 25.064 135.166 25.016 135.426 24.92C135.686 24.82 135.894 24.672 136.05 24.476C136.206 24.276 136.284 24.026 136.284 23.726C136.284 23.482 136.234 23.276 136.134 23.108C136.034 22.94 135.86 22.788 135.612 22.652C135.368 22.516 135.026 22.384 134.586 22.256C134.002 22.08 133.512 21.884 133.116 21.668C132.72 21.452 132.42 21.194 132.216 20.894C132.016 20.59 131.916 20.222 131.916 19.79C131.916 19.342 132.038 18.95 132.282 18.614C132.53 18.278 132.868 18.018 133.296 17.834C133.728 17.646 134.216 17.552 134.76 17.552C135.36 17.552 135.884 17.638 136.332 17.81C136.78 17.982 137.18 18.228 137.532 18.548L136.8 19.376C136.508 19.12 136.194 18.934 135.858 18.818C135.526 18.702 135.188 18.644 134.844 18.644C134.564 18.644 134.31 18.684 134.082 18.764C133.854 18.844 133.674 18.962 133.542 19.118C133.41 19.274 133.344 19.472 133.344 19.712C133.344 19.924 133.402 20.106 133.518 20.258C133.638 20.41 133.838 20.552 134.118 20.684C134.402 20.812 134.79 20.95 135.282 21.098C135.746 21.234 136.162 21.402 136.53 21.602C136.902 21.802 137.194 22.064 137.406 22.388C137.622 22.712 137.73 23.136 137.73 23.66Z" fill="white"/>
</svg>
