<svg width="144" height="49" viewBox="0 0 144 49" fill="none" xmlns="http://www.w3.org/2000/svg">
<rect width="144" height="49" rx="10" fill="#898AA6"/>
<rect x="12" y="6" width="37" height="37" rx="18.5" fill="white"/>
<path d="M30.5007 18.2003C27.7006 18.2003 25.9512 19.5998 25.2507 22.3998C26.3003 21.0002 27.5257 20.4754 28.9253 20.8253C29.7245 21.0245 30.2956 21.604 30.928 22.2461C31.9574 23.2907 33.1488 24.5 35.7507 24.5C38.5505 24.5 40.3001 23.1004 41.0007 20.2997C39.9508 21.7001 38.7256 22.225 37.3258 21.875C36.5268 21.6757 35.9564 21.0964 35.3231 20.4542C34.2944 19.4096 33.1033 18.2003 30.5007 18.2003V18.2003ZM25.2507 24.5C22.4508 24.5 20.7012 25.8996 20.0007 28.7003C21.0503 27.2999 22.2755 26.7751 23.6753 27.125C24.4745 27.3243 25.0456 27.9036 25.678 28.5458C26.7074 29.5904 27.8988 30.7997 30.5007 30.7997C33.3005 30.7997 35.0501 29.4002 35.7507 26.6002C34.7008 27.9998 33.4756 28.5246 32.0758 28.1747C31.2768 27.9755 30.7064 27.396 30.0731 26.7539C29.0444 25.7093 27.8533 24.5 25.2507 24.5Z" fill="#38B2AC"/>
<path d="M59.048 22.412V20.6H65.696V22.412H63.38V29H61.352V22.412H59.048ZM66.6433 27.272C66.6433 27.416 66.6793 27.54 66.7513 27.644C66.8233 27.74 66.9193 27.816 67.0393 27.872C67.1593 27.92 67.2913 27.944 67.4353 27.944C67.6433 27.944 67.8353 27.9 68.0113 27.812C68.1873 27.724 68.3313 27.592 68.4433 27.416C68.5553 27.24 68.6113 27.024 68.6113 26.768L68.8033 27.488C68.8033 27.84 68.7073 28.14 68.5153 28.388C68.3233 28.628 68.0753 28.812 67.7713 28.94C67.4673 29.06 67.1393 29.12 66.7873 29.12C66.4353 29.12 66.1073 29.056 65.8033 28.928C65.5073 28.792 65.2673 28.592 65.0833 28.328C64.9073 28.064 64.8193 27.744 64.8193 27.368C64.8193 26.84 65.0073 26.424 65.3833 26.12C65.7593 25.808 66.2913 25.652 66.9793 25.652C67.3153 25.652 67.6153 25.684 67.8793 25.748C68.1513 25.812 68.3833 25.892 68.5753 25.988C68.7673 26.084 68.9113 26.184 69.0073 26.288V27.092C68.8153 26.948 68.5913 26.84 68.3353 26.768C68.0873 26.688 67.8233 26.648 67.5433 26.648C67.3273 26.648 67.1553 26.672 67.0273 26.72C66.8993 26.768 66.8033 26.84 66.7393 26.936C66.6753 27.024 66.6433 27.136 66.6433 27.272ZM65.8393 25.172L65.2273 23.96C65.5393 23.808 65.9153 23.664 66.3553 23.528C66.7953 23.392 67.2753 23.324 67.7953 23.324C68.2833 23.324 68.7193 23.396 69.1033 23.54C69.4873 23.676 69.7913 23.876 70.0153 24.14C70.2393 24.404 70.3513 24.728 70.3513 25.112V29H68.6113V25.52C68.6113 25.384 68.5873 25.268 68.5393 25.172C68.4993 25.068 68.4353 24.98 68.3473 24.908C68.2593 24.836 68.1473 24.784 68.0113 24.752C67.8833 24.72 67.7353 24.704 67.5673 24.704C67.3193 24.704 67.0753 24.732 66.8353 24.788C66.6033 24.844 66.3993 24.912 66.2233 24.992C66.0473 25.064 65.9193 25.124 65.8393 25.172ZM71.6 21.404C71.6 21.116 71.704 20.884 71.912 20.708C72.12 20.524 72.368 20.432 72.656 20.432C72.952 20.432 73.2 20.524 73.4 20.708C73.608 20.884 73.712 21.116 73.712 21.404C73.712 21.692 73.608 21.928 73.4 22.112C73.2 22.296 72.952 22.388 72.656 22.388C72.368 22.388 72.12 22.296 71.912 22.112C71.704 21.928 71.6 21.692 71.6 21.404ZM71.78 23.48H73.532V29H71.78V23.48ZM75.0244 19.64H76.8484V29H75.0244V19.64ZM77.4668 23.48H79.3628L80.5148 26.312L82.0988 23.06L83.7188 26.312L84.8708 23.48H86.7668L83.9228 29.348L82.0988 26.06L80.3108 29.348L77.4668 23.48ZM87.2797 21.404C87.2797 21.116 87.3837 20.884 87.5917 20.708C87.7997 20.524 88.0477 20.432 88.3357 20.432C88.6317 20.432 88.8797 20.524 89.0797 20.708C89.2877 20.884 89.3917 21.116 89.3917 21.404C89.3917 21.692 89.2877 21.928 89.0797 22.112C88.8797 22.296 88.6317 22.388 88.3357 22.388C88.0477 22.388 87.7997 22.296 87.5917 22.112C87.3837 21.928 87.2797 21.692 87.2797 21.404ZM87.4597 23.48H89.2117V29H87.4597V23.48ZM94.2921 25.64C94.2921 25.312 94.2281 25.06 94.1001 24.884C93.9801 24.708 93.7761 24.62 93.4881 24.62C93.2961 24.62 93.1281 24.66 92.9841 24.74C92.8401 24.82 92.7281 24.936 92.6481 25.088C92.5681 25.24 92.5281 25.424 92.5281 25.64V29H90.7041V23.48H92.5281V24.308C92.6881 24.004 92.9041 23.768 93.1761 23.6C93.4561 23.432 93.8001 23.348 94.2081 23.348C94.8961 23.348 95.3961 23.532 95.7081 23.9C96.0201 24.268 96.1761 24.784 96.1761 25.448V29H94.2921V25.64ZM101.794 19.64H103.606V29H101.794V19.64ZM97.2824 26.24C97.2824 25.616 97.4064 25.092 97.6544 24.668C97.9104 24.244 98.2384 23.92 98.6384 23.696C99.0384 23.472 99.4624 23.36 99.9104 23.36C100.374 23.36 100.782 23.476 101.134 23.708C101.494 23.94 101.778 24.272 101.986 24.704C102.194 25.128 102.298 25.64 102.298 26.24C102.298 26.832 102.194 27.344 101.986 27.776C101.778 28.208 101.494 28.54 101.134 28.772C100.782 29.004 100.374 29.12 99.9104 29.12C99.4624 29.12 99.0384 29.008 98.6384 28.784C98.2384 28.56 97.9104 28.236 97.6544 27.812C97.4064 27.38 97.2824 26.856 97.2824 26.24ZM99.1904 26.24C99.1904 26.528 99.2504 26.78 99.3704 26.996C99.4904 27.204 99.6504 27.368 99.8504 27.488C100.05 27.6 100.27 27.656 100.51 27.656C100.718 27.656 100.918 27.6 101.11 27.488C101.31 27.376 101.474 27.216 101.602 27.008C101.73 26.792 101.794 26.536 101.794 26.24C101.794 25.944 101.73 25.692 101.602 25.484C101.474 25.268 101.31 25.104 101.11 24.992C100.918 24.88 100.718 24.824 100.51 24.824C100.27 24.824 100.05 24.884 99.8504 25.004C99.6504 25.116 99.4904 25.28 99.3704 25.496C99.2504 25.704 99.1904 25.952 99.1904 26.24ZM110.518 24.8C110.518 25.312 110.634 25.756 110.866 26.132C111.098 26.5 111.402 26.78 111.778 26.972C112.162 27.164 112.582 27.26 113.038 27.26C113.438 27.26 113.79 27.208 114.094 27.104C114.398 27 114.67 26.864 114.91 26.696C115.15 26.528 115.362 26.348 115.546 26.156V28.34C115.21 28.604 114.842 28.812 114.442 28.964C114.042 29.116 113.534 29.192 112.918 29.192C112.246 29.192 111.626 29.088 111.058 28.88C110.49 28.672 110.002 28.372 109.594 27.98C109.186 27.588 108.87 27.124 108.646 26.588C108.422 26.052 108.31 25.456 108.31 24.8C108.31 24.144 108.422 23.548 108.646 23.012C108.87 22.476 109.186 22.012 109.594 21.62C110.002 21.228 110.49 20.928 111.058 20.72C111.626 20.512 112.246 20.408 112.918 20.408C113.534 20.408 114.042 20.484 114.442 20.636C114.842 20.788 115.21 20.996 115.546 21.26V23.444C115.362 23.252 115.15 23.072 114.91 22.904C114.67 22.728 114.398 22.592 114.094 22.496C113.79 22.392 113.438 22.34 113.038 22.34C112.582 22.34 112.162 22.436 111.778 22.628C111.402 22.82 111.098 23.1 110.866 23.468C110.634 23.836 110.518 24.28 110.518 24.8ZM118.128 26.048C118.296 26.352 118.484 26.616 118.692 26.84C118.908 27.064 119.14 27.236 119.388 27.356C119.644 27.476 119.912 27.536 120.192 27.536C120.488 27.536 120.732 27.464 120.924 27.32C121.116 27.168 121.212 26.964 121.212 26.708C121.212 26.492 121.156 26.32 121.044 26.192C120.932 26.056 120.752 25.928 120.504 25.808C120.256 25.688 119.928 25.552 119.52 25.4C119.32 25.328 119.088 25.228 118.824 25.1C118.568 24.972 118.324 24.808 118.092 24.608C117.86 24.4 117.668 24.152 117.516 23.864C117.364 23.568 117.288 23.212 117.288 22.796C117.288 22.3 117.416 21.872 117.672 21.512C117.936 21.152 118.288 20.88 118.728 20.696C119.176 20.504 119.672 20.408 120.216 20.408C120.776 20.408 121.26 20.5 121.668 20.684C122.084 20.868 122.428 21.1 122.7 21.38C122.972 21.66 123.18 21.944 123.324 22.232L121.776 23.096C121.656 22.896 121.516 22.724 121.356 22.58C121.204 22.428 121.032 22.312 120.84 22.232C120.656 22.144 120.456 22.1 120.24 22.1C119.952 22.1 119.732 22.164 119.58 22.292C119.428 22.412 119.352 22.564 119.352 22.748C119.352 22.94 119.424 23.108 119.568 23.252C119.72 23.396 119.932 23.528 120.204 23.648C120.484 23.768 120.82 23.896 121.212 24.032C121.508 24.144 121.784 24.276 122.04 24.428C122.296 24.572 122.52 24.748 122.712 24.956C122.912 25.164 123.068 25.404 123.18 25.676C123.292 25.948 123.348 26.26 123.348 26.612C123.348 27.036 123.26 27.416 123.084 27.752C122.916 28.08 122.684 28.356 122.388 28.58C122.1 28.804 121.768 28.972 121.392 29.084C121.024 29.204 120.644 29.264 120.252 29.264C119.708 29.264 119.2 29.168 118.728 28.976C118.264 28.776 117.86 28.508 117.516 28.172C117.172 27.836 116.904 27.468 116.712 27.068L118.128 26.048ZM125.628 26.048C125.796 26.352 125.984 26.616 126.192 26.84C126.408 27.064 126.64 27.236 126.888 27.356C127.144 27.476 127.412 27.536 127.692 27.536C127.988 27.536 128.232 27.464 128.424 27.32C128.616 27.168 128.712 26.964 128.712 26.708C128.712 26.492 128.656 26.32 128.544 26.192C128.432 26.056 128.252 25.928 128.004 25.808C127.756 25.688 127.428 25.552 127.02 25.4C126.82 25.328 126.588 25.228 126.324 25.1C126.068 24.972 125.824 24.808 125.592 24.608C125.36 24.4 125.168 24.152 125.016 23.864C124.864 23.568 124.788 23.212 124.788 22.796C124.788 22.3 124.916 21.872 125.172 21.512C125.436 21.152 125.788 20.88 126.228 20.696C126.676 20.504 127.172 20.408 127.716 20.408C128.276 20.408 128.76 20.5 129.168 20.684C129.584 20.868 129.928 21.1 130.2 21.38C130.472 21.66 130.68 21.944 130.824 22.232L129.276 23.096C129.156 22.896 129.016 22.724 128.856 22.58C128.704 22.428 128.532 22.312 128.34 22.232C128.156 22.144 127.956 22.1 127.74 22.1C127.452 22.1 127.232 22.164 127.08 22.292C126.928 22.412 126.852 22.564 126.852 22.748C126.852 22.94 126.924 23.108 127.068 23.252C127.22 23.396 127.432 23.528 127.704 23.648C127.984 23.768 128.32 23.896 128.712 24.032C129.008 24.144 129.284 24.276 129.54 24.428C129.796 24.572 130.02 24.748 130.212 24.956C130.412 25.164 130.568 25.404 130.68 25.676C130.792 25.948 130.848 26.26 130.848 26.612C130.848 27.036 130.76 27.416 130.584 27.752C130.416 28.08 130.184 28.356 129.888 28.58C129.6 28.804 129.268 28.972 128.892 29.084C128.524 29.204 128.144 29.264 127.752 29.264C127.208 29.264 126.7 29.168 126.228 28.976C125.764 28.776 125.36 28.508 125.016 28.172C124.672 27.836 124.404 27.468 124.212 27.068L125.628 26.048Z" fill="white"/>
</svg>
