<svg width="131" height="49" viewBox="0 0 131 49" fill="none" xmlns="http://www.w3.org/2000/svg">
<rect width="131" height="49" rx="10" fill="#898AA6"/>
<rect x="12" y="6" width="37" height="37" rx="18.5" fill="white"/>
<path d="M20.3281 24.4852V34.7391H40.8359V14.2313H20.3281V24.4852ZM36.8541 23.6649C37.3453 23.7789 37.7918 24.0358 38.1371 24.4032C38.3272 24.6011 38.4925 24.8215 38.6293 25.0595C38.6293 25.0857 37.7434 25.6845 37.2036 26.0192C37.1839 26.0323 37.1052 25.947 37.0182 25.8174C36.9197 25.6474 36.7797 25.5051 36.6113 25.4038C36.4429 25.3026 36.2515 25.2456 36.0552 25.2383C35.4334 25.1956 35.033 25.5221 35.0363 26.0586C35.0312 26.1922 35.0618 26.3247 35.1249 26.4425C35.2611 26.7263 35.5154 26.8953 36.3127 27.2398C37.7811 27.8715 38.4095 28.2882 38.7999 28.8805C39.2363 29.5367 39.3331 30.5966 39.0378 31.3808C38.7097 32.2339 37.9058 32.813 36.7688 33.005C36.2495 33.0645 35.7249 33.059 35.207 32.9886C34.4165 32.8604 33.6874 32.484 33.125 31.914C32.9363 31.7056 32.5688 31.1626 32.5918 31.1232C32.6517 31.0787 32.7147 31.0387 32.7805 31.0034L33.5352 30.5703L34.1241 30.2291L34.2472 30.4112C34.4548 30.7082 34.7191 30.9613 35.0248 31.156C35.6811 31.5005 36.5769 31.453 37.0198 31.0543C37.1686 30.9082 37.2614 30.7146 37.282 30.5071C37.3027 30.2997 37.25 30.0916 37.133 29.919C36.969 29.6909 36.6409 29.499 35.7237 29.0987C34.6655 28.6426 34.2095 28.3604 33.7927 27.9109C33.5326 27.6142 33.3405 27.2642 33.23 26.8855C33.1476 26.4527 33.1354 26.0096 33.1939 25.573C33.4121 24.5509 34.1783 23.8372 35.2972 23.6255C35.8154 23.5614 36.3403 23.5758 36.8541 23.6682V23.6649ZM32.0405 24.5246V25.3646H29.3778V32.9492H27.4895V25.363H24.8202V24.5427C24.813 24.2603 24.8207 23.9777 24.8431 23.6961C24.853 23.683 26.4838 23.6764 28.4525 23.6797H32.0307L32.0405 24.5246Z" fill="#007ACC"/>
<path d="M59.048 22.412V20.6H65.696V22.412H63.38V29H61.352V22.412H59.048ZM71.7233 23.48L68.1233 31.64H66.2993L67.6433 28.556L65.2553 23.48H67.2473L69.0353 27.908L68.0993 27.896L69.8633 23.48H71.7233ZM74.1291 31.64H72.3171V23.48H74.1291V31.64ZM78.6411 26.24C78.6411 26.88 78.5131 27.42 78.2571 27.86C78.0091 28.3 77.6851 28.632 77.2851 28.856C76.8931 29.08 76.4691 29.192 76.0131 29.192C75.5331 29.192 75.1171 29.072 74.7651 28.832C74.4211 28.584 74.1571 28.24 73.9731 27.8C73.7891 27.352 73.6971 26.832 73.6971 26.24C73.6971 25.64 73.7891 25.12 73.9731 24.68C74.1571 24.24 74.4211 23.9 74.7651 23.66C75.1171 23.412 75.5331 23.288 76.0131 23.288C76.4691 23.288 76.8931 23.4 77.2851 23.624C77.6851 23.848 78.0091 24.18 78.2571 24.62C78.5131 25.052 78.6411 25.592 78.6411 26.24ZM76.7331 26.24C76.7331 25.952 76.6731 25.708 76.5531 25.508C76.4331 25.308 76.2731 25.156 76.0731 25.052C75.8731 24.948 75.6531 24.896 75.4131 24.896C75.2051 24.896 75.0011 24.948 74.8011 25.052C74.6091 25.148 74.4491 25.296 74.3211 25.496C74.1931 25.696 74.1291 25.944 74.1291 26.24C74.1291 26.536 74.1931 26.784 74.3211 26.984C74.4491 27.184 74.6091 27.336 74.8011 27.44C75.0011 27.536 75.2051 27.584 75.4131 27.584C75.6531 27.584 75.8731 27.532 76.0731 27.428C76.2731 27.324 76.4331 27.172 76.5531 26.972C76.6731 26.772 76.7331 26.528 76.7331 26.24ZM82.5433 29.12C81.9033 29.12 81.3473 29.004 80.8753 28.772C80.4113 28.532 80.0513 28.196 79.7953 27.764C79.5393 27.332 79.4113 26.824 79.4113 26.24C79.4113 25.648 79.5353 25.136 79.7833 24.704C80.0313 24.272 80.3873 23.94 80.8513 23.708C81.3233 23.476 81.8793 23.36 82.5193 23.36C83.1593 23.36 83.6993 23.472 84.1393 23.696C84.5793 23.912 84.9153 24.228 85.1473 24.644C85.3793 25.06 85.4953 25.564 85.4953 26.156C85.4953 26.244 85.4953 26.332 85.4953 26.42C85.4953 26.5 85.4873 26.568 85.4713 26.624H80.4313V25.616H83.8393L83.4073 26.168C83.4473 26.112 83.4793 26.044 83.5033 25.964C83.5353 25.876 83.5513 25.804 83.5513 25.748C83.5513 25.508 83.5073 25.3 83.4193 25.124C83.3313 24.948 83.2073 24.812 83.0473 24.716C82.8873 24.62 82.6993 24.572 82.4833 24.572C82.2113 24.572 81.9833 24.632 81.7993 24.752C81.6153 24.872 81.4753 25.056 81.3793 25.304C81.2913 25.544 81.2433 25.848 81.2353 26.216C81.2353 26.552 81.2833 26.84 81.3793 27.08C81.4753 27.32 81.6193 27.504 81.8113 27.632C82.0033 27.752 82.2393 27.812 82.5193 27.812C82.8393 27.812 83.1113 27.752 83.3353 27.632C83.5673 27.512 83.7513 27.332 83.8873 27.092L85.5073 27.488C85.2193 28.032 84.8273 28.44 84.3313 28.712C83.8433 28.984 83.2473 29.12 82.5433 29.12ZM87.7183 26.048C87.8863 26.352 88.0743 26.616 88.2823 26.84C88.4983 27.064 88.7303 27.236 88.9783 27.356C89.2343 27.476 89.5023 27.536 89.7823 27.536C90.0783 27.536 90.3223 27.464 90.5143 27.32C90.7063 27.168 90.8023 26.964 90.8023 26.708C90.8023 26.492 90.7463 26.32 90.6343 26.192C90.5223 26.056 90.3423 25.928 90.0943 25.808C89.8463 25.688 89.5183 25.552 89.1103 25.4C88.9103 25.328 88.6783 25.228 88.4143 25.1C88.1583 24.972 87.9143 24.808 87.6823 24.608C87.4503 24.4 87.2583 24.152 87.1063 23.864C86.9543 23.568 86.8783 23.212 86.8783 22.796C86.8783 22.3 87.0063 21.872 87.2623 21.512C87.5263 21.152 87.8783 20.88 88.3183 20.696C88.7663 20.504 89.2623 20.408 89.8063 20.408C90.3663 20.408 90.8503 20.5 91.2583 20.684C91.6743 20.868 92.0183 21.1 92.2903 21.38C92.5623 21.66 92.7703 21.944 92.9143 22.232L91.3663 23.096C91.2463 22.896 91.1063 22.724 90.9463 22.58C90.7943 22.428 90.6223 22.312 90.4303 22.232C90.2463 22.144 90.0463 22.1 89.8303 22.1C89.5423 22.1 89.3223 22.164 89.1703 22.292C89.0183 22.412 88.9423 22.564 88.9423 22.748C88.9423 22.94 89.0143 23.108 89.1583 23.252C89.3103 23.396 89.5223 23.528 89.7943 23.648C90.0743 23.768 90.4103 23.896 90.8023 24.032C91.0983 24.144 91.3743 24.276 91.6303 24.428C91.8863 24.572 92.1103 24.748 92.3023 24.956C92.5023 25.164 92.6583 25.404 92.7703 25.676C92.8823 25.948 92.9383 26.26 92.9383 26.612C92.9383 27.036 92.8503 27.416 92.6743 27.752C92.5063 28.08 92.2743 28.356 91.9783 28.58C91.6903 28.804 91.3583 28.972 90.9823 29.084C90.6143 29.204 90.2343 29.264 89.8423 29.264C89.2983 29.264 88.7903 29.168 88.3183 28.976C87.8543 28.776 87.4503 28.508 87.1063 28.172C86.7623 27.836 86.4943 27.468 86.3022 27.068L87.7183 26.048ZM95.6383 26.24C95.6383 26.536 95.7023 26.792 95.8303 27.008C95.9583 27.216 96.1343 27.38 96.3583 27.5C96.5903 27.62 96.8383 27.68 97.1023 27.68C97.3263 27.68 97.5383 27.648 97.7383 27.584C97.9463 27.512 98.1343 27.416 98.3023 27.296C98.4783 27.176 98.6223 27.028 98.7343 26.852V28.616C98.5423 28.768 98.3023 28.892 98.0143 28.988C97.7263 29.076 97.3743 29.12 96.9583 29.12C96.3503 29.12 95.8023 29 95.3143 28.76C94.8343 28.52 94.4543 28.184 94.1743 27.752C93.9023 27.32 93.7663 26.816 93.7663 26.24C93.7663 25.656 93.9023 25.152 94.1743 24.728C94.4543 24.296 94.8343 23.96 95.3143 23.72C95.8023 23.48 96.3503 23.36 96.9583 23.36C97.3743 23.36 97.7263 23.408 98.0143 23.504C98.3023 23.592 98.5423 23.704 98.7343 23.84V25.616C98.6223 25.44 98.4743 25.292 98.2903 25.172C98.1143 25.052 97.9223 24.96 97.7143 24.896C97.5063 24.832 97.3023 24.8 97.1023 24.8C96.8383 24.8 96.5903 24.864 96.3583 24.992C96.1343 25.12 95.9583 25.292 95.8303 25.508C95.7023 25.724 95.6383 25.968 95.6383 26.24ZM101.832 23.48V29H100.044V23.48H101.832ZM103.428 25.352C103.332 25.256 103.228 25.18 103.116 25.124C103.012 25.068 102.88 25.04 102.72 25.04C102.544 25.04 102.388 25.088 102.252 25.184C102.116 25.28 102.012 25.42 101.94 25.604C101.868 25.788 101.832 26.012 101.832 26.276L101.4 25.64C101.4 25.2 101.484 24.808 101.652 24.464C101.828 24.12 102.056 23.848 102.336 23.648C102.616 23.448 102.908 23.348 103.212 23.348C103.412 23.348 103.604 23.388 103.788 23.468C103.972 23.548 104.112 23.66 104.208 23.804L103.428 25.352ZM104.87 21.404C104.87 21.116 104.974 20.884 105.182 20.708C105.39 20.524 105.638 20.432 105.926 20.432C106.222 20.432 106.47 20.524 106.67 20.708C106.878 20.884 106.982 21.116 106.982 21.404C106.982 21.692 106.878 21.928 106.67 22.112C106.47 22.296 106.222 22.388 105.926 22.388C105.638 22.388 105.39 22.296 105.182 22.112C104.974 21.928 104.87 21.692 104.87 21.404ZM105.05 23.48H106.802V29H105.05V23.48ZM110.094 31.64H108.282V23.48H110.094V31.64ZM114.606 26.24C114.606 26.88 114.478 27.42 114.222 27.86C113.974 28.3 113.65 28.632 113.25 28.856C112.858 29.08 112.434 29.192 111.978 29.192C111.498 29.192 111.082 29.072 110.73 28.832C110.386 28.584 110.122 28.24 109.938 27.8C109.754 27.352 109.662 26.832 109.662 26.24C109.662 25.64 109.754 25.12 109.938 24.68C110.122 24.24 110.386 23.9 110.73 23.66C111.082 23.412 111.498 23.288 111.978 23.288C112.434 23.288 112.858 23.4 113.25 23.624C113.65 23.848 113.974 24.18 114.222 24.62C114.478 25.052 114.606 25.592 114.606 26.24ZM112.698 26.24C112.698 25.952 112.638 25.708 112.518 25.508C112.398 25.308 112.238 25.156 112.038 25.052C111.838 24.948 111.618 24.896 111.378 24.896C111.17 24.896 110.966 24.948 110.766 25.052C110.574 25.148 110.414 25.296 110.286 25.496C110.158 25.696 110.094 25.944 110.094 26.24C110.094 26.536 110.158 26.784 110.286 26.984C110.414 27.184 110.574 27.336 110.766 27.44C110.966 27.536 111.17 27.584 111.378 27.584C111.618 27.584 111.838 27.532 112.038 27.428C112.238 27.324 112.398 27.172 112.518 26.972C112.638 26.772 112.698 26.528 112.698 26.24ZM115.052 23.48H118.748V24.98H115.052V23.48ZM116.024 21.56H117.764V29H116.024V21.56Z" fill="white"/>
</svg>
