<svg width="132" height="44" viewBox="0 0 132 44" fill="none" xmlns="http://www.w3.org/2000/svg">
<rect width="132" height="44" rx="10" fill="#898AA6"/>
<rect x="8" y="4" width="36" height="36" rx="18" fill="white"/>
<g clip-path="url(#clip0_5_148)">
<path d="M17.9531 12H34.0469C35.1255 12 36 12.8745 36 13.9531V30.0469C36 31.1255 35.1255 32 34.0469 32H17.9531C16.8745 32 16 31.1255 16 30.0469V13.9531C16 12.8745 16.8745 12 17.9531 12Z" fill="#3178C6"/>
<path d="M17.9531 12H34.0469C35.1255 12 36 12.8745 36 13.9531V30.0469C36 31.1255 35.1255 32 34.0469 32H17.9531C16.8745 32 16 31.1255 16 30.0469V13.9531C16 12.8745 16.8745 12 17.9531 12Z" fill="#3178C6"/>
<path fill-rule="evenodd" clip-rule="evenodd" d="M28.3804 27.915V29.8705C28.6983 30.0335 29.0743 30.1557 29.5084 30.2371C29.9424 30.3186 30.3999 30.3594 30.8808 30.3594C31.7097 30.3594 32.6171 30.2408 33.3262 29.7819C34.0318 29.3252 34.3594 28.5655 34.3594 27.7439C34.3594 27.1331 34.1699 26.5453 33.7419 26.1001C33.1002 25.4325 32.1983 25.1618 31.3882 24.7648C30.9824 24.566 30.4223 24.2573 30.4223 23.7351C30.4223 23.6007 30.457 23.4795 30.5263 23.3716C30.8048 22.9375 31.4236 22.8491 31.8957 22.8491C32.4315 22.8491 32.9968 22.969 33.4943 23.1913C33.6675 23.2687 33.8275 23.3583 33.9742 23.4602V21.633C33.6767 21.5189 33.3517 21.4344 32.9991 21.3794C32.6466 21.3244 32.2421 21.2969 31.7856 21.2969C31.321 21.2969 30.8808 21.3468 30.4651 21.4466C30.0494 21.5464 29.6836 21.7022 29.3677 21.9141C29.0519 22.1259 28.8023 22.3958 28.6189 22.7238C28.4355 23.0517 28.3438 23.4438 28.3438 23.9001C28.3438 24.4827 28.5119 24.9797 28.8481 25.3912C29.1843 25.8027 29.6948 26.151 30.3795 26.4362C30.8402 26.6245 31.3191 26.8104 31.7336 27.09C32.0209 27.2838 32.2808 27.554 32.2808 27.9211C32.2808 28.1875 32.1302 28.4134 31.9109 28.5536C31.5866 28.7609 31.1712 28.8072 30.7952 28.8072C30.3713 28.8072 29.9516 28.7329 29.5358 28.5841C29.1202 28.4355 28.735 28.2124 28.3804 27.915ZM25.093 23.097H27.6016V21.4922H20.6094V23.097H23.1057V30.2422H25.093V23.097Z" fill="white"/>
</g>
<path d="M56.278 18.842V26H54.886V18.842H52.402V17.72H58.822L58.678 18.842H56.278ZM65.8073 19.664L63.6233 26.024C63.4593 26.504 63.2493 26.926 62.9933 27.29C62.7373 27.658 62.4093 27.954 62.0093 28.178C61.6093 28.402 61.1133 28.54 60.5213 28.592L60.3473 27.584C60.7753 27.516 61.1153 27.416 61.3673 27.284C61.6233 27.156 61.8253 26.986 61.9733 26.774C62.1253 26.562 62.2593 26.304 62.3753 26H61.9193L59.7833 19.664H61.2113L62.8073 25.064L64.4273 19.664H65.8073ZM70.5486 19.496C71.1086 19.496 71.5566 19.634 71.8926 19.91C72.2286 20.182 72.4726 20.568 72.6246 21.068C72.7766 21.564 72.8526 22.148 72.8526 22.82C72.8526 23.464 72.7606 24.038 72.5766 24.542C72.3926 25.046 72.1186 25.442 71.7546 25.73C71.3946 26.018 70.9466 26.162 70.4106 26.162C69.7466 26.162 69.2106 25.928 68.8026 25.46V28.436L67.4586 28.586V19.664H68.6286L68.7126 20.48C68.9526 20.152 69.2306 19.906 69.5466 19.742C69.8666 19.578 70.2006 19.496 70.5486 19.496ZM70.1766 20.534C69.8766 20.534 69.6126 20.624 69.3846 20.804C69.1566 20.984 68.9626 21.196 68.8026 21.44V24.404C68.9546 24.632 69.1346 24.808 69.3426 24.932C69.5546 25.052 69.7926 25.112 70.0566 25.112C70.5086 25.112 70.8526 24.93 71.0886 24.566C71.3246 24.202 71.4426 23.622 71.4426 22.826C71.4426 22.286 71.3946 21.848 71.2986 21.512C71.2066 21.172 71.0666 20.924 70.8786 20.768C70.6946 20.612 70.4606 20.534 70.1766 20.534ZM75.7699 23.264C75.7979 23.696 75.8899 24.05 76.0459 24.326C76.2019 24.598 76.4059 24.798 76.6579 24.926C76.9139 25.054 77.1939 25.118 77.4979 25.118C77.8099 25.118 78.0979 25.07 78.3619 24.974C78.6259 24.878 78.8919 24.742 79.1599 24.566L79.7419 25.37C79.4459 25.61 79.0999 25.802 78.7039 25.946C78.3079 26.09 77.8839 26.162 77.4319 26.162C76.7759 26.162 76.2199 26.022 75.7639 25.742C75.3119 25.462 74.9679 25.072 74.7319 24.572C74.4959 24.072 74.3779 23.494 74.3779 22.838C74.3779 22.202 74.4939 21.634 74.7259 21.134C74.9579 20.63 75.2899 20.232 75.7219 19.94C76.1539 19.644 76.6699 19.496 77.2699 19.496C77.8339 19.496 78.3179 19.624 78.7219 19.88C79.1299 20.136 79.4439 20.5 79.6639 20.972C79.8879 21.44 79.9999 22.004 79.9999 22.664C79.9999 22.772 79.9959 22.88 79.9879 22.988C79.9839 23.092 79.9779 23.184 79.9699 23.264H75.7699ZM77.2819 20.492C76.8619 20.492 76.5139 20.642 76.2379 20.942C75.9659 21.242 75.8079 21.71 75.7639 22.346H78.6979C78.6859 21.75 78.5579 21.292 78.3139 20.972C78.0739 20.652 77.7299 20.492 77.2819 20.492ZM87.3633 23.66C87.3633 24.148 87.2373 24.582 86.9853 24.962C86.7373 25.338 86.3773 25.632 85.9053 25.844C85.4373 26.056 84.8713 26.162 84.2073 26.162C83.5353 26.162 82.9453 26.062 82.4373 25.862C81.9333 25.658 81.5073 25.388 81.1593 25.052L81.9213 24.2C82.2173 24.468 82.5513 24.68 82.9233 24.836C83.2953 24.988 83.7213 25.064 84.2013 25.064C84.5133 25.064 84.7993 25.016 85.0593 24.92C85.3193 24.82 85.5273 24.672 85.6833 24.476C85.8393 24.276 85.9173 24.026 85.9173 23.726C85.9173 23.482 85.8673 23.276 85.7673 23.108C85.6673 22.94 85.4933 22.788 85.2453 22.652C85.0013 22.516 84.6593 22.384 84.2193 22.256C83.6353 22.08 83.1453 21.884 82.7493 21.668C82.3533 21.452 82.0533 21.194 81.8493 20.894C81.6493 20.59 81.5493 20.222 81.5493 19.79C81.5493 19.342 81.6713 18.95 81.9153 18.614C82.1633 18.278 82.5013 18.018 82.9293 17.834C83.3613 17.646 83.8493 17.552 84.3933 17.552C84.9933 17.552 85.5173 17.638 85.9653 17.81C86.4133 17.982 86.8133 18.228 87.1653 18.548L86.4333 19.376C86.1413 19.12 85.8273 18.934 85.4913 18.818C85.1593 18.702 84.8213 18.644 84.4773 18.644C84.1973 18.644 83.9433 18.684 83.7153 18.764C83.4873 18.844 83.3073 18.962 83.1753 19.118C83.0433 19.274 82.9773 19.472 82.9773 19.712C82.9773 19.924 83.0353 20.106 83.1513 20.258C83.2713 20.41 83.4713 20.552 83.7513 20.684C84.0353 20.812 84.4233 20.95 84.9153 21.098C85.3793 21.234 85.7953 21.402 86.1633 21.602C86.5353 21.802 86.8273 22.064 87.0393 22.388C87.2553 22.712 87.3633 23.136 87.3633 23.66ZM92.0986 25.058C92.3946 25.058 92.6706 25.008 92.9266 24.908C93.1826 24.804 93.4266 24.67 93.6586 24.506L94.2826 25.37C94.0066 25.606 93.6706 25.798 93.2746 25.946C92.8826 26.09 92.4766 26.162 92.0566 26.162C91.4086 26.162 90.8546 26.026 90.3946 25.754C89.9346 25.478 89.5826 25.092 89.3386 24.596C89.0946 24.1 88.9726 23.522 88.9726 22.862C88.9726 22.218 89.0946 21.644 89.3386 21.14C89.5866 20.632 89.9426 20.232 90.4066 19.94C90.8706 19.644 91.4286 19.496 92.0806 19.496C92.5126 19.496 92.9106 19.56 93.2746 19.688C93.6386 19.816 93.9726 20.006 94.2766 20.258L93.6586 21.104C93.4106 20.932 93.1566 20.802 92.8966 20.714C92.6406 20.622 92.3766 20.576 92.1046 20.576C91.6046 20.576 91.1946 20.76 90.8746 21.128C90.5586 21.496 90.4006 22.074 90.4006 22.862C90.4006 23.39 90.4726 23.816 90.6166 24.14C90.7646 24.46 90.9666 24.694 91.2226 24.842C91.4786 24.986 91.7706 25.058 92.0986 25.058ZM96.2999 26V25.04H97.2299V20.618H96.2999V19.664H98.2559L98.5019 21.134C98.7379 20.602 99.0299 20.198 99.3779 19.922C99.7299 19.642 100.182 19.502 100.734 19.502C100.922 19.502 101.09 19.518 101.238 19.55C101.39 19.578 101.54 19.616 101.688 19.664L101.286 20.816C101.158 20.78 101.038 20.754 100.926 20.738C100.814 20.718 100.69 20.708 100.554 20.708C100.094 20.708 99.6959 20.88 99.3599 21.224C99.0279 21.568 98.7659 22.056 98.5739 22.688V25.04H99.8519V26H96.2999ZM100.5 21.998V20.438L100.668 19.664H101.688L101.46 21.998H100.5ZM106.897 19.664V25.016H108.619V26H103.657V25.016H105.553V20.648H103.717V19.664H106.897ZM105.961 16.562C106.225 16.562 106.437 16.642 106.597 16.802C106.761 16.962 106.843 17.162 106.843 17.402C106.843 17.642 106.761 17.844 106.597 18.008C106.437 18.172 106.225 18.254 105.961 18.254C105.705 18.254 105.495 18.172 105.331 18.008C105.167 17.844 105.085 17.642 105.085 17.402C105.085 17.162 105.167 16.962 105.331 16.802C105.495 16.642 105.705 16.562 105.961 16.562ZM113.721 19.496C114.281 19.496 114.729 19.634 115.065 19.91C115.401 20.182 115.645 20.568 115.797 21.068C115.949 21.564 116.025 22.148 116.025 22.82C116.025 23.464 115.933 24.038 115.749 24.542C115.565 25.046 115.291 25.442 114.927 25.73C114.567 26.018 114.119 26.162 113.583 26.162C112.919 26.162 112.383 25.928 111.975 25.46V28.436L110.631 28.586V19.664H111.801L111.885 20.48C112.125 20.152 112.403 19.906 112.719 19.742C113.039 19.578 113.373 19.496 113.721 19.496ZM113.349 20.534C113.049 20.534 112.785 20.624 112.557 20.804C112.329 20.984 112.135 21.196 111.975 21.44V24.404C112.127 24.632 112.307 24.808 112.515 24.932C112.727 25.052 112.965 25.112 113.229 25.112C113.681 25.112 114.025 24.93 114.261 24.566C114.497 24.202 114.615 23.622 114.615 22.826C114.615 22.286 114.567 21.848 114.471 21.512C114.379 21.172 114.239 20.924 114.051 20.768C113.867 20.612 113.633 20.534 113.349 20.534ZM123.118 25.664C122.886 25.812 122.608 25.932 122.284 26.024C121.96 26.116 121.622 26.162 121.27 26.162C120.534 26.162 119.974 25.972 119.59 25.592C119.21 25.208 119.02 24.704 119.02 24.08V20.642H117.61V19.664H119.02V18.248L120.364 18.086V19.664H122.5L122.35 20.642H120.364V24.068C120.364 24.408 120.448 24.662 120.616 24.83C120.788 24.994 121.068 25.076 121.456 25.076C121.688 25.076 121.902 25.048 122.098 24.992C122.294 24.936 122.472 24.864 122.632 24.776L123.118 25.664Z" fill="white"/>
<defs>
<clipPath id="clip0_5_148">
<rect width="20" height="20" fill="white" transform="translate(16 12)"/>
</clipPath>
</defs>
</svg>
