<svg width="105" height="49" viewBox="0 0 105 49" fill="none" xmlns="http://www.w3.org/2000/svg">
<rect width="105" height="49" rx="10" fill="#898AA6"/>
<rect x="12" y="6" width="37" height="37" rx="18.5" fill="white"/>
<path d="M24.2651 15.541L28.0389 15.5425L30.5057 19.6372L32.9639 15.5428L36.7344 15.5419L30.5246 26.3134L24.2651 15.541Z" fill="#35495E"/>
<path d="M20.1493 15.5699L24.2618 15.5417L30.5208 26.3139L36.7311 15.5424L40.8507 15.5466L30.5203 33.2752L20.1493 15.5699Z" fill="#41B883"/>
<path d="M63.404 25.616L65.456 20.6H67.832L63.404 29.528L58.988 20.6H61.352L63.404 25.616ZM69.5845 26.84C69.5845 27.16 69.6445 27.412 69.7645 27.596C69.8845 27.772 70.0925 27.86 70.3885 27.86C70.5885 27.86 70.7565 27.82 70.8925 27.74C71.0365 27.66 71.1485 27.544 71.2285 27.392C71.3085 27.24 71.3485 27.056 71.3485 26.84V23.48H73.1605V29H71.3485V28.172C71.1805 28.468 70.9605 28.704 70.6885 28.88C70.4165 29.048 70.0765 29.132 69.6685 29.132C68.9805 29.132 68.4765 28.948 68.1565 28.58C67.8445 28.204 67.6885 27.688 67.6885 27.032V23.48H69.5845V26.84ZM77.3988 29.12C76.7588 29.12 76.2028 29.004 75.7308 28.772C75.2668 28.532 74.9068 28.196 74.6508 27.764C74.3948 27.332 74.2668 26.824 74.2668 26.24C74.2668 25.648 74.3908 25.136 74.6388 24.704C74.8868 24.272 75.2428 23.94 75.7068 23.708C76.1788 23.476 76.7348 23.36 77.3748 23.36C78.0148 23.36 78.5548 23.472 78.9948 23.696C79.4348 23.912 79.7708 24.228 80.0028 24.644C80.2348 25.06 80.3508 25.564 80.3508 26.156C80.3508 26.244 80.3508 26.332 80.3508 26.42C80.3508 26.5 80.3428 26.568 80.3268 26.624H75.2868V25.616H78.6948L78.2628 26.168C78.3028 26.112 78.3348 26.044 78.3588 25.964C78.3908 25.876 78.4068 25.804 78.4068 25.748C78.4068 25.508 78.3628 25.3 78.2748 25.124C78.1868 24.948 78.0628 24.812 77.9028 24.716C77.7428 24.62 77.5548 24.572 77.3388 24.572C77.0668 24.572 76.8388 24.632 76.6548 24.752C76.4708 24.872 76.3308 25.056 76.2348 25.304C76.1468 25.544 76.0988 25.848 76.0908 26.216C76.0908 26.552 76.1388 26.84 76.2348 27.08C76.3308 27.32 76.4748 27.504 76.6668 27.632C76.8588 27.752 77.0948 27.812 77.3748 27.812C77.6948 27.812 77.9668 27.752 78.1908 27.632C78.4228 27.512 78.6068 27.332 78.7428 27.092L80.3628 27.488C80.0748 28.032 79.6828 28.44 79.1868 28.712C78.6988 28.984 78.1028 29.12 77.3988 29.12ZM80.9681 28.184C80.9681 27.88 81.0761 27.62 81.2921 27.404C81.5081 27.188 81.7761 27.08 82.0961 27.08C82.4321 27.08 82.7041 27.188 82.9121 27.404C83.1201 27.62 83.2241 27.88 83.2241 28.184C83.2241 28.488 83.1201 28.748 82.9121 28.964C82.7041 29.18 82.4321 29.288 82.0961 29.288C81.7761 29.288 81.5081 29.18 81.2921 28.964C81.0761 28.748 80.9681 28.488 80.9681 28.184ZM84.5713 21.404C84.5713 21.116 84.6713 20.884 84.8713 20.708C85.0793 20.524 85.3313 20.432 85.6273 20.432C85.9153 20.432 86.1593 20.524 86.3593 20.708C86.5673 20.884 86.6713 21.116 86.6713 21.404C86.6713 21.692 86.5673 21.928 86.3593 22.112C86.1593 22.296 85.9153 22.388 85.6273 22.388C85.3313 22.388 85.0793 22.296 84.8713 22.112C84.6713 21.928 84.5713 21.692 84.5713 21.404ZM83.6353 29.924C83.7072 30.02 83.7912 30.096 83.8872 30.152C83.9752 30.208 84.0753 30.236 84.1873 30.236C84.3153 30.236 84.4233 30.204 84.5113 30.14C84.5993 30.084 84.6633 29.996 84.7033 29.876C84.7433 29.756 84.7633 29.6 84.7633 29.408V23.48H86.5153V29.864C86.5153 30.264 86.4353 30.612 86.2753 30.908C86.1233 31.212 85.8913 31.448 85.5793 31.616C85.2753 31.784 84.8913 31.868 84.4272 31.868C84.1632 31.868 83.9352 31.836 83.7432 31.772C83.5432 31.708 83.3792 31.628 83.2512 31.532C83.1152 31.436 82.9992 31.344 82.9032 31.256L83.6353 29.924ZM88.3088 26.996C88.5888 27.228 88.8408 27.412 89.0648 27.548C89.2968 27.676 89.5008 27.768 89.6768 27.824C89.8528 27.872 90.0048 27.896 90.1328 27.896C90.3168 27.896 90.4528 27.856 90.5408 27.776C90.6288 27.696 90.6728 27.592 90.6728 27.464C90.6728 27.344 90.6368 27.244 90.5648 27.164C90.4928 27.076 90.3688 26.992 90.1928 26.912C90.0248 26.832 89.7928 26.748 89.4968 26.66C89.2328 26.564 88.9808 26.452 88.7408 26.324C88.5088 26.188 88.3168 26.008 88.1648 25.784C88.0128 25.56 87.9368 25.272 87.9368 24.92C87.9368 24.584 88.0248 24.3 88.2008 24.068C88.3848 23.836 88.6288 23.66 88.9328 23.54C89.2448 23.42 89.6008 23.36 90.0008 23.36C90.3208 23.36 90.6168 23.396 90.8888 23.468C91.1688 23.54 91.4288 23.636 91.6688 23.756C91.9168 23.876 92.1488 24.016 92.3648 24.176L91.7168 25.352C91.4848 25.136 91.2208 24.96 90.9248 24.824C90.6288 24.68 90.3568 24.608 90.1088 24.608C89.9408 24.608 89.8128 24.64 89.7248 24.704C89.6448 24.768 89.6048 24.852 89.6048 24.956C89.6048 25.076 89.6528 25.176 89.7488 25.256C89.8528 25.336 89.9968 25.412 90.1808 25.484C90.3728 25.548 90.6048 25.632 90.8768 25.736C91.1648 25.84 91.4288 25.96 91.6688 26.096C91.9168 26.232 92.1128 26.404 92.2568 26.612C92.4088 26.82 92.4848 27.096 92.4848 27.44C92.4848 28.032 92.3008 28.48 91.9328 28.784C91.5728 29.08 91.0648 29.228 90.4088 29.228C90.0088 29.228 89.6368 29.18 89.2928 29.084C88.9568 28.996 88.6448 28.876 88.3568 28.724C88.0688 28.564 87.8008 28.388 87.5528 28.196L88.3088 26.996Z" fill="white"/>
</svg>
