<svg width="104" height="44" viewBox="0 0 104 44" fill="none" xmlns="http://www.w3.org/2000/svg">
<rect width="104" height="44" rx="10" fill="#898AA6"/>
<rect x="8" y="4" width="36" height="36" rx="18" fill="white"/>
<path d="M20.062 13.4677L23.6561 13.4691L26.0055 17.3687L28.3466 13.4694L31.9375 13.4684L26.0234 23.727L20.062 13.4677Z" fill="#35495E"/>
<path d="M16.1422 13.4951L20.0589 13.4683L26.0198 23.7275L31.9344 13.4689L35.8578 13.4729L26.0194 30.3573L16.1422 13.4951Z" fill="#41B883"/>
<path d="M55.63 24.68L57.61 17.72H59.02L56.398 26H54.802L52.18 17.72H53.668L55.63 24.68ZM61.6073 19.664V24.092C61.6073 24.468 61.6813 24.736 61.8293 24.896C61.9813 25.056 62.2093 25.136 62.5133 25.136C62.8013 25.136 63.0793 25.05 63.3473 24.878C63.6153 24.706 63.8273 24.496 63.9833 24.248V19.664H65.3273V26H64.1693L64.0853 25.19C63.8493 25.506 63.5513 25.748 63.1913 25.916C62.8313 26.08 62.4633 26.162 62.0873 26.162C61.4753 26.162 61.0173 25.994 60.7133 25.658C60.4133 25.318 60.2633 24.852 60.2633 24.26V19.664H61.6073ZM68.5746 23.264C68.6026 23.696 68.6946 24.05 68.8506 24.326C69.0066 24.598 69.2106 24.798 69.4626 24.926C69.7186 25.054 69.9986 25.118 70.3026 25.118C70.6146 25.118 70.9026 25.07 71.1666 24.974C71.4306 24.878 71.6966 24.742 71.9646 24.566L72.5466 25.37C72.2506 25.61 71.9046 25.802 71.5086 25.946C71.1126 26.09 70.6886 26.162 70.2366 26.162C69.5806 26.162 69.0246 26.022 68.5686 25.742C68.1166 25.462 67.7726 25.072 67.5366 24.572C67.3006 24.072 67.1826 23.494 67.1826 22.838C67.1826 22.202 67.2986 21.634 67.5306 21.134C67.7626 20.63 68.0946 20.232 68.5266 19.94C68.9586 19.644 69.4746 19.496 70.0746 19.496C70.6386 19.496 71.1226 19.624 71.5266 19.88C71.9346 20.136 72.2486 20.5 72.4686 20.972C72.6926 21.44 72.8046 22.004 72.8046 22.664C72.8046 22.772 72.8006 22.88 72.7926 22.988C72.7886 23.092 72.7826 23.184 72.7746 23.264H68.5746ZM70.0866 20.492C69.6666 20.492 69.3186 20.642 69.0426 20.942C68.7706 21.242 68.6126 21.71 68.5686 22.346H71.5026C71.4906 21.75 71.3626 21.292 71.1186 20.972C70.8786 20.652 70.5346 20.492 70.0866 20.492ZM76.0219 24.998C76.0219 24.782 76.0719 24.588 76.1719 24.416C76.2759 24.24 76.4159 24.1 76.5919 23.996C76.7679 23.892 76.9639 23.84 77.1799 23.84C77.3999 23.84 77.5979 23.892 77.7739 23.996C77.9499 24.1 78.0879 24.24 78.1879 24.416C78.2919 24.588 78.3439 24.782 78.3439 24.998C78.3439 25.21 78.2919 25.406 78.1879 25.586C78.0879 25.762 77.9499 25.902 77.7739 26.006C77.5979 26.11 77.3999 26.162 77.1799 26.162C76.9639 26.162 76.7679 26.11 76.5919 26.006C76.4159 25.902 76.2759 25.762 76.1719 25.586C76.0719 25.406 76.0219 25.21 76.0219 24.998ZM86.2473 19.664V24.668C86.2473 25.456 86.0833 26.11 85.7553 26.63C85.4313 27.15 84.9553 27.564 84.3273 27.872C83.6993 28.184 82.9333 28.422 82.0293 28.586L81.8133 27.554C82.4413 27.434 82.9873 27.268 83.4513 27.056C83.9153 26.844 84.2733 26.554 84.5253 26.186C84.7773 25.818 84.9033 25.342 84.9033 24.758V20.648H82.4013V19.664H86.2473ZM85.1973 16.562C85.4573 16.562 85.6693 16.642 85.8333 16.802C85.9973 16.962 86.0793 17.162 86.0793 17.402C86.0793 17.642 85.9973 17.844 85.8333 18.008C85.6693 18.172 85.4573 18.254 85.1973 18.254C84.9373 18.254 84.7253 18.172 84.5613 18.008C84.4013 17.844 84.3213 17.642 84.3213 17.402C84.3213 17.162 84.4013 16.962 84.5613 16.802C84.7253 16.642 84.9373 16.562 85.1973 16.562ZM91.3486 25.13C91.7686 25.13 92.1026 25.056 92.3506 24.908C92.5986 24.756 92.7226 24.548 92.7226 24.284C92.7226 24.112 92.6866 23.966 92.6146 23.846C92.5426 23.722 92.3986 23.61 92.1826 23.51C91.9666 23.406 91.6386 23.298 91.1986 23.186C90.7826 23.078 90.4166 22.95 90.1006 22.802C89.7886 22.654 89.5466 22.462 89.3746 22.226C89.2026 21.99 89.1166 21.686 89.1166 21.314C89.1166 20.95 89.2186 20.632 89.4226 20.36C89.6266 20.088 89.9186 19.876 90.2986 19.724C90.6826 19.572 91.1326 19.496 91.6486 19.496C92.1806 19.496 92.6446 19.566 93.0406 19.706C93.4366 19.846 93.7746 20.02 94.0546 20.228L93.4906 21.074C93.2426 20.91 92.9706 20.776 92.6746 20.672C92.3826 20.568 92.0526 20.516 91.6846 20.516C91.2566 20.516 90.9486 20.58 90.7606 20.708C90.5766 20.836 90.4846 21.006 90.4846 21.218C90.4846 21.374 90.5306 21.506 90.6226 21.614C90.7186 21.718 90.8826 21.816 91.1146 21.908C91.3466 21.996 91.6746 22.1 92.0986 22.22C92.5106 22.332 92.8686 22.464 93.1726 22.616C93.4806 22.768 93.7186 22.97 93.8866 23.222C94.0586 23.47 94.1446 23.794 94.1446 24.194C94.1446 24.65 94.0126 25.024 93.7486 25.316C93.4886 25.604 93.1446 25.818 92.7166 25.958C92.2926 26.094 91.8366 26.162 91.3486 26.162C90.7606 26.162 90.2526 26.078 89.8246 25.91C89.3966 25.738 89.0366 25.524 88.7446 25.268L89.4586 24.452C89.7066 24.652 89.9906 24.816 90.3106 24.944C90.6306 25.068 90.9766 25.13 91.3486 25.13Z" fill="white"/>
</svg>
